var fontJSON=
{"glyphs":{"0":{"ha":978,"x_min":50,"x_max":928,"o":"m 490 -17 q 255 43 354 -17 q 103 216 156 103 q 50 486 50 329 q 103 756 50 643 q 255 929 156 869 q 490 989 354 989 q 724 929 625 989 q 875 756 822 869 q 928 486 928 643 q 875 216 928 329 q 724 43 822 103 q 490 -17 625 -17 m 490 214 q 616 281 572 214 q 660 486 660 349 q 616 691 660 624 q 490 758 572 758 q 363 691 407 758 q 318 486 318 624 q 363 281 318 349 q 490 214 407 214 z "},"1":{"ha":876,"x_min":38,"x_max":843,"o":"m 51 224 l 325 224 l 325 535 l 331 701 l 288 643 l 213 553 l 38 700 l 271 972 l 586 972 l 586 224 l 843 224 l 843 0 l 51 0 l 51 224 z "},"2":{"ha":851,"x_min":57,"x_max":799,"o":"m 60 342 l 440 535 q 515 593 492 561 q 538 665 538 625 q 506 741 538 714 q 417 768 474 768 q 322 735 360 768 q 257 628 283 701 l 57 724 q 197 925 108 861 q 425 989 285 989 q 688 906 593 989 q 782 679 782 824 q 716 479 782 564 q 503 324 650 394 l 415 278 l 275 214 l 436 218 l 799 218 l 799 0 l 60 0 l 60 342 z "},"3":{"ha":851,"x_min":29,"x_max":810,"o":"m 419 -17 q 29 232 133 -17 l 218 328 q 298 230 253 260 q 410 200 343 200 q 515 229 478 200 q 551 311 551 258 q 518 388 551 363 q 414 413 485 413 l 258 413 l 258 636 l 399 706 l 550 772 l 353 764 l 79 764 l 79 972 l 756 972 l 756 685 l 533 576 l 483 554 l 514 554 q 669 521 601 554 q 773 427 736 488 q 810 288 810 367 q 760 129 810 199 q 623 22 711 60 q 419 -17 535 -17 z "},"4":{"ha":936,"x_min":47,"x_max":900,"o":"m 536 160 l 47 160 l 47 478 l 433 972 l 790 972 l 790 383 l 900 383 l 900 160 l 790 160 l 790 0 l 536 0 l 536 160 m 392 376 l 543 376 l 543 632 l 544 736 l 460 626 l 358 494 l 260 375 l 392 376 z "},"5":{"ha":871,"x_min":38,"x_max":829,"o":"m 438 -17 q 38 203 169 -17 l 222 324 q 425 204 293 204 q 537 237 497 204 q 576 331 576 269 q 542 420 576 388 q 443 453 507 453 q 292 388 361 453 l 79 454 l 124 972 l 763 972 l 763 758 l 315 758 l 294 529 q 389 613 331 585 q 521 642 447 642 q 680 601 610 642 q 790 489 750 561 q 829 325 829 417 q 782 144 829 221 q 647 25 735 67 q 438 -17 558 -17 z "},"6":{"ha":915,"x_min":50,"x_max":871,"o":"m 478 -17 q 161 114 272 -17 q 50 486 50 244 q 160 859 50 729 q 479 989 271 989 q 831 847 688 989 l 697 694 q 601 756 654 735 q 493 778 549 778 q 292 496 296 778 q 390 612 325 572 q 544 651 454 651 q 713 610 639 651 q 829 494 788 568 q 871 324 871 419 q 822 145 871 222 q 685 26 774 68 q 478 -17 596 -17 m 464 194 q 570 232 531 194 q 610 332 610 269 q 570 433 610 396 q 464 471 531 471 q 358 433 397 471 q 318 332 318 396 q 358 232 318 269 q 464 194 397 194 z "},"7":{"ha":811,"x_min":33,"x_max":764,"o":"m 436 568 l 515 750 l 374 749 l 33 749 l 33 972 l 764 972 l 764 690 l 482 0 l 200 0 l 436 568 z "},"8":{"ha":894,"x_min":43,"x_max":851,"o":"m 447 -17 q 150 58 257 -17 q 43 263 43 132 q 94 413 43 351 q 243 504 144 474 q 124 592 163 539 q 86 719 86 644 q 131 863 86 801 q 256 956 175 924 q 447 989 338 989 q 639 956 557 989 q 765 863 721 924 q 810 719 810 801 q 654 504 810 571 q 801 413 751 474 q 851 263 851 351 q 744 58 851 132 q 447 -17 638 -17 m 447 172 q 553 204 514 172 q 592 293 592 236 q 553 383 592 350 q 447 415 514 415 q 341 383 381 415 q 301 293 301 350 q 341 204 301 236 q 447 172 381 172 m 447 590 q 538 619 504 590 q 571 697 571 647 q 538 776 571 747 q 447 806 504 806 q 357 776 390 806 q 324 697 324 747 q 357 619 324 647 q 447 590 390 590 z "},"9":{"ha":915,"x_min":44,"x_max":865,"o":"m 438 989 q 754 858 643 989 q 865 486 865 728 q 755 113 865 243 q 436 -17 644 -17 q 85 125 229 -17 l 218 278 q 314 216 261 238 q 422 194 367 194 q 624 476 619 194 q 526 360 590 400 q 371 321 461 321 q 202 363 276 321 q 86 478 128 404 q 44 649 44 553 q 93 827 44 750 q 231 947 142 904 q 438 989 319 989 m 451 778 q 345 740 385 778 q 306 640 306 703 q 345 539 306 576 q 451 501 385 501 q 558 539 518 501 q 597 640 597 576 q 558 740 597 703 q 451 778 518 778 z "},"\r":{"ha":833,"x_min":0,"x_max":0,"o":""}," ":{"ha":310,"x_min":0,"x_max":0,"o":""},"A":{"ha":1068,"x_min":15,"x_max":1051,"o":"m 339 972 l 728 972 l 1051 0 l 761 0 l 715 150 l 353 150 l 307 0 l 15 0 l 339 972 m 660 343 l 579 622 l 533 806 l 489 622 l 408 343 l 660 343 z "},"Á":{"ha":1068,"x_min":15,"x_max":1051,"o":"m 339 972 l 728 972 l 1051 0 l 761 0 l 715 150 l 353 150 l 307 0 l 15 0 l 339 972 m 560 1326 l 768 1221 l 614 1049 l 439 1049 l 560 1326 m 660 343 l 579 622 l 533 806 l 489 622 l 408 343 l 660 343 z "},"Ă":{"ha":1068,"x_min":15,"x_max":1051,"o":"m 339 972 l 728 972 l 1051 0 l 761 0 l 715 150 l 353 150 l 307 0 l 15 0 l 339 972 m 533 1038 q 356 1097 418 1038 q 288 1268 293 1157 l 447 1275 q 474 1208 451 1232 q 533 1185 496 1185 q 595 1208 572 1185 q 621 1275 618 1232 l 781 1268 q 711 1097 774 1157 q 533 1038 649 1038 m 660 343 l 579 622 l 533 806 l 489 622 l 408 343 l 660 343 z "},"Ǎ":{"ha":1068,"x_min":15,"x_max":1051,"o":"m 339 972 l 728 972 l 1051 0 l 761 0 l 715 150 l 353 150 l 307 0 l 15 0 l 339 972 m 713 1049 l 357 1049 l 264 1272 l 442 1272 l 493 1183 l 535 1104 l 576 1183 l 628 1272 l 804 1272 l 713 1049 m 660 343 l 579 622 l 533 806 l 489 622 l 408 343 l 660 343 z "},"Â":{"ha":1068,"x_min":15,"x_max":1051,"o":"m 339 972 l 728 972 l 1051 0 l 761 0 l 715 150 l 353 150 l 307 0 l 15 0 l 339 972 m 354 1272 l 711 1272 l 803 1049 l 625 1049 l 575 1138 l 533 1218 l 490 1138 l 440 1049 l 264 1049 l 354 1272 m 660 343 l 579 622 l 533 806 l 489 622 l 408 343 l 660 343 z "},"Ä":{"ha":1068,"x_min":15,"x_max":1051,"o":"m 339 972 l 728 972 l 1051 0 l 761 0 l 715 150 l 353 150 l 307 0 l 15 0 l 339 972 m 692 1047 q 603 1082 638 1047 q 568 1169 568 1117 q 603 1256 568 1222 q 692 1290 638 1290 q 778 1256 744 1290 q 813 1169 813 1222 q 778 1081 813 1115 q 692 1047 744 1047 m 379 1047 q 290 1082 325 1047 q 256 1169 256 1117 q 290 1256 256 1222 q 379 1290 325 1290 q 466 1256 432 1290 q 500 1169 500 1222 q 466 1081 500 1115 q 379 1047 432 1047 m 660 343 l 579 622 l 533 806 l 489 622 l 408 343 l 660 343 z "},"À":{"ha":1068,"x_min":15,"x_max":1051,"o":"m 339 972 l 728 972 l 1051 0 l 761 0 l 715 150 l 353 150 l 307 0 l 15 0 l 339 972 m 299 1221 l 507 1326 l 629 1049 l 453 1049 l 299 1221 m 660 343 l 579 622 l 533 806 l 489 622 l 408 343 l 660 343 z "},"Ā":{"ha":1068,"x_min":15,"x_max":1051,"o":"m 339 972 l 728 972 l 1051 0 l 761 0 l 715 150 l 353 150 l 307 0 l 15 0 l 339 972 m 311 1239 l 756 1239 l 756 1068 l 311 1068 l 311 1239 m 660 343 l 579 622 l 533 806 l 489 622 l 408 343 l 660 343 z "},"Ą":{"ha":1068,"x_min":15,"x_max":1100,"o":"m 339 972 l 728 972 l 1051 0 q 963 -63 996 -28 q 929 -131 929 -99 q 942 -160 929 -149 q 976 -171 956 -171 q 1035 -150 1004 -171 l 1100 -254 q 935 -312 1022 -312 q 813 -276 858 -312 q 768 -176 768 -239 q 801 -80 768 -125 q 897 0 833 -35 l 761 0 l 715 150 l 353 150 l 307 0 l 15 0 l 339 972 m 660 343 l 579 622 l 533 806 l 489 622 l 408 343 l 660 343 z "},"Å":{"ha":1068,"x_min":15,"x_max":1051,"o":"m 339 972 l 728 972 l 1051 0 l 761 0 l 715 150 l 353 150 l 307 0 l 15 0 l 339 972 m 533 1029 q 388 1078 444 1029 q 331 1204 331 1128 q 388 1331 331 1281 q 533 1381 446 1381 q 679 1331 622 1381 q 736 1204 736 1281 q 679 1078 736 1128 q 533 1029 622 1029 m 533 1150 q 576 1165 560 1150 q 592 1204 592 1181 q 575 1244 592 1229 q 533 1260 558 1260 q 492 1244 508 1260 q 476 1204 476 1229 q 492 1165 476 1179 q 533 1150 508 1150 m 660 343 l 579 622 l 533 806 l 489 622 l 408 343 l 660 343 z "},"Ã":{"ha":1068,"x_min":15,"x_max":1051,"o":"m 339 972 l 728 972 l 1051 0 l 761 0 l 715 150 l 353 150 l 307 0 l 15 0 l 339 972 m 261 1081 q 320 1217 276 1169 q 431 1265 364 1265 q 492 1257 465 1265 q 554 1233 518 1249 q 585 1221 569 1226 q 613 1215 600 1215 q 657 1258 647 1215 l 807 1239 q 748 1103 793 1150 q 638 1056 703 1056 q 576 1063 603 1056 q 513 1086 549 1071 q 456 1104 474 1104 q 410 1061 418 1104 l 261 1081 m 660 343 l 579 622 l 533 806 l 489 622 l 408 343 l 660 343 z "},"Æ":{"ha":1472,"x_min":-11,"x_max":1422,"o":"m 583 972 l 1406 972 l 1406 760 l 1014 760 l 1014 596 l 1340 596 l 1340 386 l 1014 386 l 1014 217 l 1422 217 l 1422 0 l 750 0 l 750 150 l 404 150 l 314 0 l -11 0 l 583 972 m 750 342 l 750 614 l 751 778 l 668 619 l 514 342 l 750 342 z "},"Ǽ":{"ha":1472,"x_min":-11,"x_max":1422,"o":"m 583 972 l 1406 972 l 1406 760 l 1014 760 l 1014 596 l 1340 596 l 1340 386 l 1014 386 l 1014 217 l 1422 217 l 1422 0 l 750 0 l 750 150 l 404 150 l 314 0 l -11 0 l 583 972 m 910 1326 l 1118 1221 l 964 1049 l 789 1049 l 910 1326 m 750 342 l 750 614 l 751 778 l 668 619 l 514 342 l 750 342 z "},"B":{"ha":928,"x_min":92,"x_max":885,"o":"m 92 972 l 557 972 q 766 908 689 972 q 843 735 843 844 q 797 590 843 650 q 669 507 751 531 q 828 420 771 486 q 885 257 885 354 q 801 69 885 139 q 576 0 718 0 l 92 0 l 92 972 m 497 193 q 588 219 556 193 q 619 294 619 246 q 588 369 619 343 q 497 396 556 396 l 358 396 l 358 193 l 497 193 m 475 581 q 563 607 532 581 q 594 682 594 633 q 563 756 594 731 q 475 782 532 782 l 358 782 l 358 581 l 475 581 z "},"C":{"ha":1022,"x_min":44,"x_max":1001,"o":"m 543 -17 q 282 46 394 -17 q 107 222 169 108 q 44 486 44 336 q 106 750 44 636 q 281 926 168 864 q 543 989 394 989 q 793 934 683 989 q 988 767 903 879 l 789 608 q 564 732 704 732 q 395 665 458 732 q 332 486 332 599 q 396 308 332 375 q 564 240 460 240 q 697 276 638 240 q 797 382 757 313 l 1001 232 q 816 47 933 110 q 543 -17 699 -17 z "},"Ć":{"ha":1022,"x_min":44,"x_max":1001,"o":"m 543 -17 q 282 46 394 -17 q 107 222 169 108 q 44 486 44 336 q 106 750 44 636 q 281 926 168 864 q 543 989 394 989 q 793 934 683 989 q 988 767 903 879 l 789 608 q 564 732 704 732 q 395 665 458 732 q 332 486 332 599 q 396 308 332 375 q 564 240 460 240 q 697 276 638 240 q 797 382 757 313 l 1001 232 q 816 47 933 110 q 543 -17 699 -17 m 571 1326 l 779 1221 l 624 1049 l 449 1049 l 571 1326 z "},"Č":{"ha":1022,"x_min":44,"x_max":1001,"o":"m 543 -17 q 282 46 394 -17 q 107 222 169 108 q 44 486 44 336 q 106 750 44 636 q 281 926 168 864 q 543 989 394 989 q 793 934 683 989 q 988 767 903 879 l 789 608 q 564 732 704 732 q 395 665 458 732 q 332 486 332 599 q 396 308 332 375 q 564 240 460 240 q 697 276 638 240 q 797 382 757 313 l 1001 232 q 816 47 933 110 q 543 -17 699 -17 m 722 1049 l 367 1049 l 274 1272 l 451 1272 l 503 1183 l 544 1104 l 586 1183 l 638 1272 l 814 1272 l 722 1049 z "},"Ç":{"ha":1022,"x_min":44,"x_max":1001,"o":"m 553 -360 q 374 -299 450 -360 l 439 -199 q 538 -231 490 -231 q 580 -220 564 -231 q 596 -192 596 -210 q 580 -164 596 -174 q 538 -154 564 -154 l 440 -154 l 485 -14 q 253 63 353 -3 q 99 237 154 128 q 44 486 44 346 q 106 750 44 636 q 281 926 168 864 q 543 989 394 989 q 793 934 683 989 q 988 767 903 879 l 789 608 q 564 732 704 732 q 395 665 458 732 q 332 486 332 599 q 396 308 332 375 q 564 240 460 240 q 697 276 638 240 q 797 382 757 313 l 1001 232 q 833 57 938 119 q 590 -15 729 -6 l 590 -57 q 706 -100 664 -60 q 747 -204 747 -140 q 695 -318 747 -276 q 553 -360 643 -360 z "},"Ĉ":{"ha":1022,"x_min":44,"x_max":1001,"o":"m 543 -17 q 282 46 394 -17 q 107 222 169 108 q 44 486 44 336 q 106 750 44 636 q 281 926 168 864 q 543 989 394 989 q 793 934 683 989 q 988 767 903 879 l 789 608 q 564 732 704 732 q 395 665 458 732 q 332 486 332 599 q 396 308 332 375 q 564 240 460 240 q 697 276 638 240 q 797 382 757 313 l 1001 232 q 816 47 933 110 q 543 -17 699 -17 m 365 1272 l 721 1272 l 813 1049 l 635 1049 l 585 1138 l 543 1218 l 500 1138 l 450 1049 l 274 1049 l 365 1272 z "},"Ċ":{"ha":1022,"x_min":44,"x_max":1001,"o":"m 543 -17 q 282 46 394 -17 q 107 222 169 108 q 44 486 44 336 q 106 750 44 636 q 281 926 168 864 q 543 989 394 989 q 793 934 683 989 q 988 767 903 879 l 789 608 q 564 732 704 732 q 395 665 458 732 q 332 486 332 599 q 396 308 332 375 q 564 240 460 240 q 697 276 638 240 q 797 382 757 313 l 1001 232 q 816 47 933 110 q 543 -17 699 -17 m 543 1043 q 433 1083 475 1043 q 392 1185 392 1124 q 433 1288 392 1249 q 543 1328 475 1328 q 654 1288 613 1328 q 696 1185 696 1249 q 653 1083 696 1122 q 543 1043 611 1043 z "},"D":{"ha":1058,"x_min":92,"x_max":1013,"o":"m 92 972 l 507 972 q 773 912 658 972 q 950 742 888 851 q 1013 486 1013 632 q 950 231 1013 340 q 773 60 888 121 q 507 0 658 0 l 92 0 l 92 972 m 478 251 q 663 312 599 251 q 726 486 726 372 q 663 660 726 600 q 478 721 599 721 l 369 721 l 369 251 l 478 251 z "},"Ď":{"ha":1058,"x_min":92,"x_max":1013,"o":"m 92 972 l 507 972 q 773 912 658 972 q 950 742 888 851 q 1013 486 1013 632 q 950 231 1013 340 q 773 60 888 121 q 507 0 658 0 l 92 0 l 92 972 m 664 1049 l 308 1049 l 215 1272 l 393 1272 l 444 1183 l 486 1104 l 528 1183 l 579 1272 l 756 1272 l 664 1049 m 478 251 q 663 312 599 251 q 726 486 726 372 q 663 660 726 600 q 478 721 599 721 l 369 721 l 369 251 l 478 251 z "},"Đ":{"ha":1114,"x_min":39,"x_max":1068,"o":"m 147 369 l 39 369 l 39 607 l 147 607 l 147 972 l 563 972 q 828 912 714 972 q 1006 742 943 851 q 1068 486 1068 632 q 1006 231 1068 340 q 828 60 943 121 q 563 0 714 0 l 147 0 l 147 369 m 533 251 q 718 312 654 251 q 782 486 782 372 q 718 660 782 600 q 533 721 654 721 l 426 721 l 426 589 l 604 589 l 604 388 l 426 388 l 426 251 l 533 251 z "},"Ð":{"ha":1114,"x_min":39,"x_max":1068,"o":"m 147 369 l 39 369 l 39 607 l 147 607 l 147 972 l 563 972 q 828 912 714 972 q 1006 742 943 851 q 1068 486 1068 632 q 1006 231 1068 340 q 828 60 943 121 q 563 0 714 0 l 147 0 l 147 369 m 533 251 q 718 312 654 251 q 782 486 782 372 q 718 660 782 600 q 533 721 654 721 l 426 721 l 426 589 l 604 589 l 604 388 l 426 388 l 426 251 l 533 251 z "},"E":{"ha":842,"x_min":92,"x_max":792,"o":"m 92 972 l 775 972 l 775 760 l 364 760 l 364 596 l 710 596 l 710 386 l 364 386 l 364 217 l 792 217 l 792 0 l 92 0 l 92 972 z "},"É":{"ha":842,"x_min":92,"x_max":792,"o":"m 92 972 l 775 972 l 775 760 l 364 760 l 364 596 l 710 596 l 710 386 l 364 386 l 364 217 l 792 217 l 792 0 l 92 0 l 92 972 m 460 1326 l 668 1221 l 514 1049 l 339 1049 l 460 1326 z "},"Ĕ":{"ha":842,"x_min":92,"x_max":792,"o":"m 92 972 l 775 972 l 775 760 l 364 760 l 364 596 l 710 596 l 710 386 l 364 386 l 364 217 l 792 217 l 792 0 l 92 0 l 92 972 m 433 1038 q 256 1097 318 1038 q 186 1268 193 1157 l 347 1275 q 374 1208 351 1232 q 433 1185 396 1185 q 494 1208 472 1185 q 521 1275 517 1232 l 681 1268 q 611 1097 674 1157 q 433 1038 549 1038 z "},"Ě":{"ha":842,"x_min":92,"x_max":792,"o":"m 92 972 l 775 972 l 775 760 l 364 760 l 364 596 l 710 596 l 710 386 l 364 386 l 364 217 l 792 217 l 792 0 l 92 0 l 92 972 m 613 1049 l 257 1049 l 164 1272 l 342 1272 l 393 1183 l 435 1104 l 476 1183 l 528 1272 l 704 1272 l 613 1049 z "},"Ê":{"ha":842,"x_min":92,"x_max":792,"o":"m 92 972 l 775 972 l 775 760 l 364 760 l 364 596 l 710 596 l 710 386 l 364 386 l 364 217 l 792 217 l 792 0 l 92 0 l 92 972 m 254 1272 l 610 1272 l 703 1049 l 525 1049 l 475 1138 l 433 1218 l 390 1138 l 340 1049 l 164 1049 l 254 1272 z "},"Ë":{"ha":842,"x_min":92,"x_max":792,"o":"m 92 972 l 775 972 l 775 760 l 364 760 l 364 596 l 710 596 l 710 386 l 364 386 l 364 217 l 792 217 l 792 0 l 92 0 l 92 972 m 592 1047 q 503 1082 538 1047 q 468 1169 468 1117 q 503 1256 468 1222 q 592 1290 538 1290 q 678 1256 644 1290 q 713 1169 713 1222 q 678 1081 713 1115 q 592 1047 644 1047 m 279 1047 q 190 1082 225 1047 q 156 1169 156 1117 q 190 1256 156 1222 q 279 1290 225 1290 q 366 1256 332 1290 q 400 1169 400 1222 q 366 1081 400 1115 q 279 1047 332 1047 z "},"Ė":{"ha":842,"x_min":92,"x_max":792,"o":"m 92 972 l 775 972 l 775 760 l 364 760 l 364 596 l 710 596 l 710 386 l 364 386 l 364 217 l 792 217 l 792 0 l 92 0 l 92 972 m 433 1043 q 324 1083 365 1043 q 282 1185 282 1124 q 324 1288 282 1249 q 433 1328 365 1328 q 544 1288 501 1328 q 586 1185 586 1249 q 544 1083 586 1124 q 433 1043 501 1043 z "},"È":{"ha":842,"x_min":92,"x_max":792,"o":"m 92 972 l 775 972 l 775 760 l 364 760 l 364 596 l 710 596 l 710 386 l 364 386 l 364 217 l 792 217 l 792 0 l 92 0 l 92 972 m 199 1221 l 407 1326 l 529 1049 l 353 1049 l 199 1221 z "},"Ē":{"ha":842,"x_min":92,"x_max":792,"o":"m 92 972 l 775 972 l 775 760 l 364 760 l 364 596 l 710 596 l 710 386 l 364 386 l 364 217 l 792 217 l 792 0 l 92 0 l 92 972 m 211 1239 l 656 1239 l 656 1068 l 211 1068 l 211 1239 z "},"Ę":{"ha":842,"x_min":92,"x_max":840,"o":"m 92 972 l 775 972 l 775 760 l 364 760 l 364 596 l 710 596 l 710 386 l 364 386 l 364 217 l 792 217 l 792 0 q 703 -63 736 -28 q 669 -131 669 -99 q 683 -160 669 -149 q 717 -171 696 -171 q 775 -150 744 -171 l 840 -254 q 675 -312 763 -312 q 553 -276 599 -312 q 508 -176 508 -239 q 541 -80 508 -125 q 638 0 574 -35 l 92 0 l 92 972 z "},"Ẽ":{"ha":842,"x_min":92,"x_max":792,"o":"m 92 972 l 775 972 l 775 760 l 364 760 l 364 596 l 710 596 l 710 386 l 364 386 l 364 217 l 792 217 l 792 0 l 92 0 l 92 972 m 161 1081 q 220 1217 176 1169 q 331 1265 264 1265 q 392 1257 365 1265 q 454 1233 418 1249 q 485 1221 469 1226 q 511 1215 500 1215 q 557 1258 547 1215 l 706 1239 q 647 1103 692 1150 q 538 1056 603 1056 q 476 1063 503 1056 q 413 1086 449 1071 q 356 1104 374 1104 q 310 1061 321 1104 l 161 1081 z "},"Ə":{"ha":1089,"x_min":40,"x_max":1044,"o":"m 544 -17 q 281 49 396 -17 q 103 231 167 115 q 40 489 40 346 q 47 579 40 528 l 767 579 q 684 719 750 669 q 514 769 618 769 q 257 651 360 769 l 101 815 q 281 944 174 900 q 519 989 389 989 q 794 926 675 989 q 979 750 914 864 q 1044 488 1044 636 q 981 224 1044 339 q 804 47 918 110 q 544 -17 690 -17 m 313 383 q 389 253 332 299 q 538 207 446 207 q 708 271 647 207 q 772 449 769 335 l 313 383 z "},"F":{"ha":796,"x_min":92,"x_max":761,"o":"m 92 972 l 761 972 l 761 747 l 368 747 l 368 553 l 686 553 l 686 336 l 369 336 l 369 0 l 92 0 l 92 972 z "},"G":{"ha":1111,"x_min":44,"x_max":1071,"o":"m 561 -17 q 288 44 404 -17 q 108 219 171 106 q 44 486 44 333 q 106 751 44 638 q 280 927 167 865 q 543 989 393 989 q 787 942 674 989 q 978 813 900 896 l 818 636 q 578 740 717 740 q 393 672 461 740 q 325 486 325 604 q 392 300 325 369 q 572 231 460 231 q 726 277 665 231 q 797 403 786 324 l 517 358 l 517 575 l 1068 575 q 1071 513 1071 533 q 1010 231 1071 350 q 834 47 949 111 q 561 -17 719 -17 z "},"Ğ":{"ha":1111,"x_min":44,"x_max":1071,"o":"m 561 -17 q 288 44 404 -17 q 108 219 171 106 q 44 486 44 333 q 106 751 44 638 q 280 927 167 865 q 543 989 393 989 q 787 942 674 989 q 978 813 900 896 l 818 636 q 578 740 717 740 q 393 672 461 740 q 325 486 325 604 q 392 300 325 369 q 572 231 460 231 q 726 277 665 231 q 797 403 786 324 l 517 358 l 517 575 l 1068 575 q 1071 513 1071 533 q 1010 231 1071 350 q 834 47 949 111 q 561 -17 719 -17 m 546 1038 q 368 1097 431 1038 q 299 1268 306 1157 l 460 1275 q 485 1208 463 1232 q 546 1185 507 1185 q 607 1208 585 1185 q 633 1275 629 1232 l 793 1268 q 724 1097 786 1157 q 546 1038 661 1038 z "},"Ǧ":{"ha":1111,"x_min":44,"x_max":1071,"o":"m 561 -17 q 288 44 404 -17 q 108 219 171 106 q 44 486 44 333 q 106 751 44 638 q 280 927 167 865 q 543 989 393 989 q 787 942 674 989 q 978 813 900 896 l 818 636 q 578 740 717 740 q 393 672 461 740 q 325 486 325 604 q 392 300 325 369 q 572 231 460 231 q 726 277 665 231 q 797 403 786 324 l 517 358 l 517 575 l 1068 575 q 1071 513 1071 533 q 1010 231 1071 350 q 834 47 949 111 q 561 -17 719 -17 m 725 1049 l 369 1049 l 276 1272 l 454 1272 l 506 1183 l 547 1104 l 589 1183 l 640 1272 l 817 1272 l 725 1049 z "},"Ĝ":{"ha":1111,"x_min":44,"x_max":1071,"o":"m 561 -17 q 288 44 404 -17 q 108 219 171 106 q 44 486 44 333 q 106 751 44 638 q 280 927 167 865 q 543 989 393 989 q 787 942 674 989 q 978 813 900 896 l 818 636 q 578 740 717 740 q 393 672 461 740 q 325 486 325 604 q 392 300 325 369 q 572 231 460 231 q 726 277 665 231 q 797 403 786 324 l 517 358 l 517 575 l 1068 575 q 1071 513 1071 533 q 1010 231 1071 350 q 834 47 949 111 q 561 -17 719 -17 m 367 1272 l 722 1272 l 815 1049 l 638 1049 l 586 1138 l 544 1217 l 503 1138 l 453 1049 l 275 1049 l 367 1272 z "},"Ģ":{"ha":1111,"x_min":44,"x_max":1071,"o":"m 561 -17 q 288 44 404 -17 q 108 219 171 106 q 44 486 44 333 q 106 751 44 638 q 280 927 167 865 q 543 989 393 989 q 787 942 674 989 q 978 813 900 896 l 818 636 q 578 740 717 740 q 393 672 461 740 q 325 486 325 604 q 392 300 325 369 q 572 231 460 231 q 726 277 665 231 q 797 403 786 324 l 517 358 l 517 575 l 1068 575 q 1071 513 1071 533 q 1010 231 1071 350 q 834 47 949 111 q 561 -17 719 -17 m 444 -81 l 672 -81 l 599 -356 l 426 -356 l 444 -81 z "},"Ġ":{"ha":1111,"x_min":44,"x_max":1071,"o":"m 561 -17 q 288 44 404 -17 q 108 219 171 106 q 44 486 44 333 q 106 751 44 638 q 280 927 167 865 q 543 989 393 989 q 787 942 674 989 q 978 813 900 896 l 818 636 q 578 740 717 740 q 393 672 461 740 q 325 486 325 604 q 392 300 325 369 q 572 231 460 231 q 726 277 665 231 q 797 403 786 324 l 517 358 l 517 575 l 1068 575 q 1071 513 1071 533 q 1010 231 1071 350 q 834 47 949 111 q 561 -17 719 -17 m 546 1043 q 436 1083 478 1043 q 394 1185 394 1124 q 436 1288 394 1249 q 546 1328 478 1328 q 656 1288 614 1328 q 699 1185 699 1249 q 656 1083 699 1124 q 546 1043 614 1043 z "},"Ḡ":{"ha":1111,"x_min":44,"x_max":1071,"o":"m 561 -17 q 288 44 404 -17 q 108 219 171 106 q 44 486 44 333 q 106 751 44 638 q 280 927 167 865 q 543 989 393 989 q 787 942 674 989 q 978 813 900 896 l 818 636 q 578 740 717 740 q 393 672 461 740 q 325 486 325 604 q 392 300 325 369 q 572 231 460 231 q 726 277 665 231 q 797 403 786 324 l 517 358 l 517 575 l 1068 575 q 1071 513 1071 533 q 1010 231 1071 350 q 834 47 949 111 q 561 -17 719 -17 m 324 1239 l 768 1239 l 768 1068 l 324 1068 l 324 1239 z "},"H":{"ha":1043,"x_min":92,"x_max":951,"o":"m 672 368 l 369 368 l 369 0 l 92 0 l 92 972 l 369 972 l 369 624 l 672 624 l 672 972 l 951 972 l 951 0 l 672 0 l 672 368 z "},"Ħ":{"ha":1182,"x_min":35,"x_max":1147,"o":"m 742 354 l 440 354 l 440 0 l 161 0 l 161 671 l 35 671 l 35 882 l 161 882 l 161 972 l 440 972 l 440 882 l 742 882 l 742 972 l 1021 972 l 1021 882 l 1147 882 l 1147 671 l 1021 671 l 1021 0 l 742 0 l 742 354 m 742 585 l 742 682 l 440 682 l 440 585 l 742 585 z "},"Ĥ":{"ha":1043,"x_min":92,"x_max":951,"o":"m 672 368 l 369 368 l 369 0 l 92 0 l 92 972 l 369 972 l 369 624 l 672 624 l 672 972 l 951 972 l 951 0 l 672 0 l 672 368 m 342 1272 l 697 1272 l 790 1049 l 613 1049 l 563 1138 l 521 1218 l 478 1138 l 428 1049 l 251 1049 l 342 1272 z "},"I":{"ha":461,"x_min":92,"x_max":369,"o":"m 92 972 l 369 972 l 369 0 l 92 0 l 92 972 z "},"Ĳ":{"ha":928,"x_min":92,"x_max":835,"o":"m 92 972 l 369 972 l 369 0 l 92 0 l 92 972 m 349 -107 l 413 -107 q 524 -74 490 -107 q 557 36 557 -42 l 557 972 l 835 972 l 835 24 q 743 -264 835 -172 q 456 -356 651 -356 l 349 -356 l 349 -107 z "},"Í":{"ha":461,"x_min":92,"x_max":465,"o":"m 92 972 l 369 972 l 369 0 l 92 0 l 92 972 m 257 1326 l 465 1221 l 311 1049 l 136 1049 l 257 1326 z "},"Ĭ":{"ha":461,"x_min":-3,"x_max":464,"o":"m 92 972 l 369 972 l 369 0 l 92 0 l 92 972 m 231 1038 q 61 1097 119 1038 q -3 1268 3 1157 l 154 1275 q 176 1208 157 1232 q 231 1185 196 1185 q 285 1208 265 1185 q 308 1275 306 1232 l 464 1268 q 399 1097 458 1156 q 231 1038 339 1038 z "},"Î":{"ha":461,"x_min":-25,"x_max":486,"o":"m 92 972 l 369 972 l 369 0 l 92 0 l 92 972 m 56 1272 l 406 1272 l 486 1049 l 311 1049 l 268 1138 l 231 1213 l 194 1138 l 150 1049 l -25 1049 l 56 1272 z "},"Ï":{"ha":461,"x_min":-33,"x_max":497,"o":"m 92 972 l 369 972 l 369 0 l 92 0 l 92 972 m 379 1047 q 293 1082 326 1047 q 260 1169 260 1117 q 293 1256 260 1222 q 379 1290 326 1290 q 464 1256 431 1290 q 497 1169 497 1222 q 464 1082 497 1117 q 379 1047 431 1047 m 86 1047 q 0 1082 33 1047 q -33 1169 -33 1117 q 0 1256 -33 1222 q 86 1290 33 1290 q 170 1256 138 1290 q 203 1169 203 1222 q 170 1081 203 1115 q 86 1047 138 1047 z "},"İ":{"ha":461,"x_min":79,"x_max":383,"o":"m 92 972 l 369 972 l 369 0 l 92 0 l 92 972 m 231 1043 q 121 1083 163 1043 q 79 1185 79 1124 q 121 1288 79 1249 q 231 1328 163 1328 q 341 1288 299 1328 q 383 1185 383 1249 q 341 1083 383 1124 q 231 1043 299 1043 z "},"Ị":{"ha":461,"x_min":89,"x_max":372,"o":"m 92 972 l 369 972 l 369 0 l 92 0 l 92 972 m 231 -354 q 128 -316 168 -354 q 89 -219 89 -278 q 128 -124 89 -161 q 231 -86 168 -86 q 333 -124 293 -86 q 372 -219 372 -161 q 333 -316 372 -278 q 231 -354 293 -354 z "},"Ì":{"ha":461,"x_min":-4,"x_max":369,"o":"m 92 972 l 369 972 l 369 0 l 92 0 l 92 972 m -4 1221 l 204 1326 l 325 1049 l 150 1049 l -4 1221 z "},"Ī":{"ha":461,"x_min":22,"x_max":439,"o":"m 92 972 l 369 972 l 369 0 l 92 0 l 92 972 m 22 1239 l 439 1239 l 439 1068 l 22 1068 l 22 1239 z "},"Į":{"ha":461,"x_min":92,"x_max":408,"o":"m 92 972 l 369 972 l 369 0 q 298 -62 325 -28 q 271 -126 271 -96 q 281 -154 271 -143 q 307 -165 290 -165 q 353 -146 329 -165 l 408 -243 q 268 -299 344 -299 q 169 -264 207 -299 q 131 -169 131 -229 q 238 0 131 -68 l 92 0 l 92 972 z "},"Ĩ":{"ha":461,"x_min":-25,"x_max":486,"o":"m 92 972 l 369 972 l 369 0 l 92 0 l 92 972 m -25 1081 q 28 1217 -14 1168 q 135 1265 69 1265 q 192 1257 167 1265 q 250 1233 218 1249 q 300 1215 286 1215 q 339 1258 333 1215 l 486 1239 q 432 1103 474 1151 q 326 1056 390 1056 q 267 1064 293 1056 q 210 1088 242 1072 q 161 1104 176 1104 q 122 1060 128 1104 l -25 1081 z "},"J":{"ha":465,"x_min":-112,"x_max":374,"o":"m -112 -107 l -49 -107 q 63 -74 29 -107 q 96 36 96 -42 l 96 972 l 374 972 l 374 24 q 282 -264 374 -172 q -6 -356 190 -356 l -112 -356 l -112 -107 z "},"Ĵ":{"ha":465,"x_min":-112,"x_max":490,"o":"m -112 -107 l -49 -107 q 63 -74 29 -107 q 96 36 96 -42 l 96 972 l 374 972 l 374 24 q 282 -264 374 -172 q -6 -356 190 -356 l -112 -356 l -112 -107 m 60 1272 l 410 1272 l 490 1049 l 315 1049 l 272 1138 l 235 1213 l 199 1138 l 154 1049 l -21 1049 l 60 1272 z "},"K":{"ha":1057,"x_min":92,"x_max":1051,"o":"m 92 972 l 369 972 l 369 446 l 686 972 l 1017 972 l 700 494 l 1051 0 l 707 0 l 478 346 l 369 215 l 369 0 l 92 0 l 92 972 z "},"Ķ":{"ha":1057,"x_min":92,"x_max":1051,"o":"m 92 972 l 369 972 l 369 446 l 686 972 l 1017 972 l 700 494 l 1051 0 l 707 0 l 478 346 l 369 215 l 369 0 l 92 0 l 92 972 m 421 -81 l 649 -81 l 575 -356 l 403 -356 l 421 -81 z "},"L":{"ha":800,"x_min":92,"x_max":768,"o":"m 92 972 l 369 972 l 369 256 l 768 256 l 768 0 l 92 0 l 92 972 z "},"Ĺ":{"ha":800,"x_min":92,"x_max":768,"o":"m 92 972 l 369 972 l 369 256 l 768 256 l 768 0 l 92 0 l 92 972 m 257 1326 l 465 1221 l 311 1049 l 136 1049 l 257 1326 z "},"Ľ":{"ha":818,"x_min":92,"x_max":768,"o":"m 92 972 l 369 972 l 369 256 l 768 256 l 768 0 l 92 0 l 92 972 m 553 972 l 765 972 l 686 678 l 533 678 l 553 972 z "},"Ļ":{"ha":800,"x_min":92,"x_max":768,"o":"m 92 972 l 369 972 l 369 256 l 768 256 l 768 0 l 92 0 l 92 972 m 317 -81 l 544 -81 l 471 -356 l 299 -356 l 317 -81 z "},"Ŀ":{"ha":807,"x_min":92,"x_max":768,"o":"m 92 972 l 369 972 l 369 256 l 768 256 l 768 0 l 92 0 l 92 972 m 569 381 q 466 420 506 381 q 426 522 426 460 q 466 624 426 586 q 569 663 506 663 q 672 624 633 663 q 711 522 711 586 q 672 420 711 460 q 569 381 633 381 z "},"Ł":{"ha":856,"x_min":42,"x_max":824,"o":"m 147 321 l 42 278 l 42 518 l 147 560 l 147 972 l 425 972 l 425 671 l 664 767 l 664 528 l 425 432 l 425 256 l 824 256 l 824 0 l 147 0 l 147 321 z "},"M":{"ha":1461,"x_min":42,"x_max":1418,"o":"m 169 972 l 608 972 l 693 500 l 731 267 l 767 500 l 853 972 l 1292 972 l 1418 0 l 1138 0 l 1088 489 l 1060 813 l 1007 489 l 929 107 l 531 107 l 454 489 l 401 813 l 374 489 l 322 0 l 42 0 l 169 972 z "},"N":{"ha":1092,"x_min":92,"x_max":1000,"o":"m 92 972 l 544 972 l 685 418 l 743 164 l 738 457 l 738 972 l 1000 972 l 1000 0 l 547 0 l 407 554 l 347 822 l 353 515 l 353 0 l 92 0 l 92 972 z "},"Ń":{"ha":1092,"x_min":92,"x_max":1000,"o":"m 92 972 l 544 972 l 685 418 l 743 164 l 738 457 l 738 972 l 1000 972 l 1000 0 l 547 0 l 407 554 l 347 822 l 353 515 l 353 0 l 92 0 l 92 972 m 572 1326 l 781 1221 l 626 1049 l 451 1049 l 572 1326 z "},"Ň":{"ha":1092,"x_min":92,"x_max":1000,"o":"m 92 972 l 544 972 l 685 418 l 743 164 l 738 457 l 738 972 l 1000 972 l 1000 0 l 547 0 l 407 554 l 347 822 l 353 515 l 353 0 l 92 0 l 92 972 m 725 1049 l 369 1049 l 276 1272 l 454 1272 l 506 1183 l 547 1104 l 589 1183 l 640 1272 l 817 1272 l 725 1049 z "},"Ņ":{"ha":1092,"x_min":92,"x_max":1000,"o":"m 92 972 l 544 972 l 685 418 l 743 164 l 738 457 l 738 972 l 1000 972 l 1000 0 l 547 0 l 407 554 l 347 822 l 353 515 l 353 0 l 92 0 l 92 972 m 432 -81 l 660 -81 l 586 -356 l 414 -356 l 432 -81 z "},"Ñ":{"ha":1092,"x_min":92,"x_max":1000,"o":"m 92 972 l 544 972 l 685 418 l 743 164 l 738 457 l 738 972 l 1000 972 l 1000 0 l 547 0 l 407 554 l 347 822 l 353 515 l 353 0 l 92 0 l 92 972 m 274 1081 q 332 1217 288 1169 q 442 1265 376 1265 q 502 1258 476 1265 q 567 1233 528 1250 q 624 1215 606 1215 q 669 1258 658 1215 l 818 1239 q 759 1103 804 1150 q 649 1056 714 1056 q 587 1064 614 1056 q 526 1086 560 1072 q 468 1104 485 1104 q 422 1061 433 1104 l 274 1081 z "},"Ŋ":{"ha":1092,"x_min":92,"x_max":1000,"o":"m 596 -108 l 646 -108 q 717 -87 694 -108 q 739 -17 739 -65 l 739 0 l 547 0 l 407 554 l 347 822 l 353 515 l 353 0 l 92 0 l 92 972 l 544 972 l 685 418 l 743 164 l 738 457 l 738 972 l 1000 972 l 1000 -36 q 927 -263 1000 -190 q 700 -336 854 -336 l 596 -336 l 596 -108 z "},"O":{"ha":1144,"x_min":44,"x_max":1099,"o":"m 572 -17 q 297 47 417 -17 q 110 224 176 110 q 44 486 44 338 q 110 749 44 635 q 297 926 176 863 q 572 989 417 989 q 847 926 728 989 q 1033 749 967 863 q 1099 486 1099 635 q 1033 224 1099 338 q 847 47 967 110 q 572 -17 728 -17 m 572 240 q 746 308 679 240 q 813 486 813 376 q 746 664 813 596 q 572 732 679 732 q 399 664 465 732 q 332 486 332 596 q 399 308 332 376 q 572 240 465 240 z "},"Ó":{"ha":1144,"x_min":44,"x_max":1099,"o":"m 572 -17 q 297 47 417 -17 q 110 224 176 110 q 44 486 44 338 q 110 749 44 635 q 297 926 176 863 q 572 989 417 989 q 847 926 728 989 q 1033 749 967 863 q 1099 486 1099 635 q 1033 224 1099 338 q 847 47 967 110 q 572 -17 728 -17 m 572 240 q 746 308 679 240 q 813 486 813 376 q 746 664 813 596 q 572 732 679 732 q 399 664 465 732 q 332 486 332 596 q 399 308 332 376 q 572 240 465 240 m 599 1326 l 807 1221 l 653 1049 l 478 1049 l 599 1326 z "},"Ŏ":{"ha":1144,"x_min":44,"x_max":1099,"o":"m 572 -17 q 297 47 417 -17 q 110 224 176 110 q 44 486 44 338 q 110 749 44 635 q 297 926 176 863 q 572 989 417 989 q 847 926 728 989 q 1033 749 967 863 q 1099 486 1099 635 q 1033 224 1099 338 q 847 47 967 110 q 572 -17 728 -17 m 572 240 q 746 308 679 240 q 813 486 813 376 q 746 664 813 596 q 572 732 679 732 q 399 664 465 732 q 332 486 332 596 q 399 308 332 376 q 572 240 465 240 m 572 1038 q 393 1097 456 1038 q 325 1268 331 1157 l 485 1275 q 511 1208 489 1232 q 572 1185 533 1185 q 633 1208 611 1185 q 660 1275 656 1232 l 819 1268 q 750 1097 813 1157 q 572 1038 688 1038 z "},"Ô":{"ha":1144,"x_min":44,"x_max":1099,"o":"m 572 -17 q 297 47 417 -17 q 110 224 176 110 q 44 486 44 338 q 110 749 44 635 q 297 926 176 863 q 572 989 417 989 q 847 926 728 989 q 1033 749 967 863 q 1099 486 1099 635 q 1033 224 1099 338 q 847 47 967 110 q 572 -17 728 -17 m 572 240 q 746 308 679 240 q 813 486 813 376 q 746 664 813 596 q 572 732 679 732 q 399 664 465 732 q 332 486 332 596 q 399 308 332 376 q 572 240 465 240 m 393 1272 l 749 1272 l 842 1049 l 664 1049 l 613 1138 l 571 1217 l 529 1138 l 478 1049 l 301 1049 l 393 1272 z "},"Ö":{"ha":1144,"x_min":44,"x_max":1099,"o":"m 572 -17 q 297 47 417 -17 q 110 224 176 110 q 44 486 44 338 q 110 749 44 635 q 297 926 176 863 q 572 989 417 989 q 847 926 728 989 q 1033 749 967 863 q 1099 486 1099 635 q 1033 224 1099 338 q 847 47 967 110 q 572 -17 728 -17 m 572 240 q 746 308 679 240 q 813 486 813 376 q 746 664 813 596 q 572 732 679 732 q 399 664 465 732 q 332 486 332 596 q 399 308 332 376 q 572 240 465 240 m 729 1047 q 640 1082 675 1047 q 606 1169 606 1117 q 640 1256 606 1222 q 729 1290 675 1290 q 816 1256 782 1290 q 850 1169 850 1222 q 816 1081 850 1115 q 729 1047 782 1047 m 417 1047 q 328 1082 363 1047 q 293 1169 293 1117 q 328 1256 293 1222 q 417 1290 364 1290 q 504 1256 469 1290 q 539 1169 539 1222 q 504 1081 539 1115 q 417 1047 469 1047 z "},"Ọ":{"ha":1144,"x_min":44,"x_max":1099,"o":"m 572 -17 q 297 47 417 -17 q 110 224 176 110 q 44 486 44 338 q 110 749 44 635 q 297 926 176 863 q 572 989 417 989 q 847 926 728 989 q 1033 749 967 863 q 1099 486 1099 635 q 1033 224 1099 338 q 847 47 967 110 q 572 -17 728 -17 m 572 240 q 746 308 679 240 q 813 486 813 376 q 746 664 813 596 q 572 732 679 732 q 399 664 465 732 q 332 486 332 596 q 399 308 332 376 q 572 240 465 240 m 572 -354 q 470 -316 510 -354 q 431 -219 431 -278 q 470 -124 431 -161 q 572 -86 510 -86 q 674 -124 635 -86 q 714 -219 714 -161 q 674 -316 714 -278 q 572 -354 635 -354 z "},"Ò":{"ha":1144,"x_min":44,"x_max":1099,"o":"m 572 -17 q 297 47 417 -17 q 110 224 176 110 q 44 486 44 338 q 110 749 44 635 q 297 926 176 863 q 572 989 417 989 q 847 926 728 989 q 1033 749 967 863 q 1099 486 1099 635 q 1033 224 1099 338 q 847 47 967 110 q 572 -17 728 -17 m 572 240 q 746 308 679 240 q 813 486 813 376 q 746 664 813 596 q 572 732 679 732 q 399 664 465 732 q 332 486 332 596 q 399 308 332 376 q 572 240 465 240 m 338 1221 l 546 1326 l 667 1049 l 492 1049 l 338 1221 z "},"Ő":{"ha":1144,"x_min":44,"x_max":1099,"o":"m 572 -17 q 297 47 417 -17 q 110 224 176 110 q 44 486 44 338 q 110 749 44 635 q 297 926 176 863 q 572 989 417 989 q 847 926 728 989 q 1033 749 967 863 q 1099 486 1099 635 q 1033 224 1099 338 q 847 47 967 110 q 572 -17 728 -17 m 572 240 q 746 308 679 240 q 813 486 813 376 q 746 664 813 596 q 572 732 679 732 q 399 664 465 732 q 332 486 332 596 q 399 308 332 376 q 572 240 465 240 m 813 1354 l 975 1218 l 807 1049 l 607 1049 l 813 1354 m 493 1354 l 669 1238 l 533 1049 l 346 1049 l 493 1354 z "},"Ō":{"ha":1144,"x_min":44,"x_max":1099,"o":"m 572 -17 q 297 47 417 -17 q 110 224 176 110 q 44 486 44 338 q 110 749 44 635 q 297 926 176 863 q 572 989 417 989 q 847 926 728 989 q 1033 749 967 863 q 1099 486 1099 635 q 1033 224 1099 338 q 847 47 967 110 q 572 -17 728 -17 m 572 240 q 746 308 679 240 q 813 486 813 376 q 746 664 813 596 q 572 732 679 732 q 399 664 465 732 q 332 486 332 596 q 399 308 332 376 q 572 240 465 240 m 349 1239 l 794 1239 l 794 1068 l 349 1068 l 349 1239 z "},"Ǫ":{"ha":1144,"x_min":44,"x_max":1099,"o":"m 665 -312 q 543 -276 588 -312 q 499 -176 499 -240 q 600 -17 499 -86 l 572 -17 q 297 47 417 -17 q 110 224 176 110 q 44 486 44 338 q 110 749 44 635 q 297 926 176 863 q 572 989 417 989 q 847 926 728 989 q 1033 749 967 863 q 1099 486 1099 635 q 1054 260 1099 351 q 949 119 1010 169 q 797 13 889 68 q 693 -59 726 -29 q 660 -131 660 -89 q 672 -160 660 -149 q 707 -171 685 -171 q 765 -150 736 -171 l 831 -254 q 749 -299 789 -285 q 665 -312 710 -312 m 572 240 q 746 308 679 240 q 813 486 813 376 q 746 664 813 596 q 572 732 679 732 q 399 664 465 732 q 332 486 332 596 q 399 308 332 376 q 572 240 465 240 z "},"Ø":{"ha":1154,"x_min":50,"x_max":1104,"o":"m 578 -17 q 376 15 472 -17 l 271 -124 l 67 35 l 163 158 q 50 486 50 293 q 116 749 50 635 q 302 926 182 863 q 578 989 422 989 q 778 958 683 989 l 885 1096 l 1089 938 l 993 814 q 1076 667 1047 750 q 1104 486 1104 583 q 1038 224 1104 338 q 853 47 972 110 q 578 -17 733 -17 m 578 240 q 751 308 685 240 q 818 486 818 376 q 751 664 818 596 q 578 732 685 732 q 404 664 471 732 q 338 486 338 596 q 404 308 338 376 q 578 240 471 240 z "},"Ǿ":{"ha":1154,"x_min":50,"x_max":1104,"o":"m 578 -17 q 376 15 472 -17 l 271 -124 l 67 35 l 163 158 q 50 486 50 293 q 116 749 50 635 q 302 926 182 863 q 578 989 422 989 q 778 958 683 989 l 885 1096 l 1089 938 l 993 814 q 1076 667 1047 750 q 1104 486 1104 583 q 1038 224 1104 338 q 853 47 972 110 q 578 -17 733 -17 m 578 240 q 751 308 685 240 q 818 486 818 376 q 751 664 818 596 q 578 732 685 732 q 404 664 471 732 q 338 486 338 596 q 404 308 338 376 q 578 240 471 240 m 604 1326 l 813 1221 l 658 1049 l 483 1049 l 604 1326 z "},"Õ":{"ha":1144,"x_min":44,"x_max":1099,"o":"m 572 -17 q 297 47 417 -17 q 110 224 176 110 q 44 486 44 338 q 110 749 44 635 q 297 926 176 863 q 572 989 417 989 q 847 926 728 989 q 1033 749 967 863 q 1099 486 1099 635 q 1033 224 1099 338 q 847 47 967 110 q 572 -17 728 -17 m 572 240 q 746 308 679 240 q 813 486 813 376 q 746 664 813 596 q 572 732 679 732 q 399 664 465 732 q 332 486 332 596 q 399 308 332 376 q 572 240 465 240 m 300 1081 q 358 1217 314 1169 q 468 1265 403 1265 q 528 1258 503 1265 q 593 1233 554 1250 q 650 1215 632 1215 q 694 1258 685 1215 l 844 1239 q 785 1103 831 1150 q 675 1056 740 1056 q 613 1064 640 1056 q 553 1086 586 1072 q 494 1104 511 1104 q 449 1061 460 1104 l 300 1081 z "},"Œ":{"ha":1400,"x_min":44,"x_max":1351,"o":"m 572 -17 q 297 47 417 -17 q 111 224 178 110 q 44 486 44 338 q 111 748 44 633 q 297 926 178 863 q 572 989 417 989 q 724 972 651 989 l 1336 972 l 1336 760 l 982 760 l 982 596 l 1275 596 l 1275 386 l 982 386 l 982 217 l 1351 217 l 1351 0 l 724 0 q 572 -17 651 -17 m 322 486 q 392 301 322 367 q 589 236 461 236 q 717 253 661 236 l 717 719 q 589 736 661 736 q 392 671 463 736 q 322 486 322 606 z "},"P":{"ha":918,"x_min":92,"x_max":881,"o":"m 92 972 l 496 972 q 778 877 676 972 q 881 615 881 782 q 778 353 881 447 q 496 258 676 258 l 369 258 l 369 0 l 92 0 l 92 972 m 464 481 q 570 515 532 481 q 608 610 608 549 q 570 706 608 671 q 464 740 532 740 l 365 740 l 365 481 l 464 481 z "},"Þ":{"ha":918,"x_min":92,"x_max":881,"o":"m 92 972 l 369 972 l 369 846 l 496 846 q 778 751 676 846 q 881 489 881 656 q 778 226 881 321 q 496 132 676 132 l 369 132 l 369 0 l 92 0 l 92 972 m 464 354 q 571 388 533 354 q 608 485 608 422 q 570 580 608 546 q 464 614 532 614 l 365 614 l 365 354 l 464 354 z "},"Q":{"ha":1144,"x_min":44,"x_max":1099,"o":"m 633 -14 q 572 -17 594 -17 q 297 47 417 -17 q 110 224 176 110 q 44 486 44 338 q 110 749 44 635 q 297 926 176 863 q 572 989 417 989 q 847 926 728 989 q 1033 749 967 863 q 1099 486 1099 635 q 1023 208 1099 328 q 814 31 947 89 l 954 -243 l 661 -243 l 633 -14 m 572 240 q 746 308 679 240 q 813 486 813 376 q 746 664 813 596 q 572 732 679 732 q 399 664 465 732 q 332 486 332 596 q 399 308 332 376 q 572 240 465 240 z "},"R":{"ha":963,"x_min":92,"x_max":928,"o":"m 92 972 l 490 972 q 794 883 686 972 q 901 633 901 794 q 767 363 901 453 l 928 0 l 624 0 l 500 293 l 490 293 l 369 293 l 369 0 l 92 0 l 92 972 m 479 504 q 585 536 549 504 q 621 628 621 568 q 585 719 621 688 q 479 751 549 751 l 367 751 l 367 504 l 479 504 z "},"Ŕ":{"ha":963,"x_min":92,"x_max":928,"o":"m 92 972 l 490 972 q 794 883 686 972 q 901 633 901 794 q 767 363 901 453 l 928 0 l 624 0 l 500 293 l 490 293 l 369 293 l 369 0 l 92 0 l 92 972 m 482 1326 l 690 1221 l 535 1049 l 360 1049 l 482 1326 m 479 504 q 585 536 549 504 q 621 628 621 568 q 585 719 621 688 q 479 751 549 751 l 367 751 l 367 504 l 479 504 z "},"Ř":{"ha":963,"x_min":92,"x_max":928,"o":"m 92 972 l 490 972 q 794 883 686 972 q 901 633 901 794 q 767 363 901 453 l 928 0 l 624 0 l 500 293 l 490 293 l 369 293 l 369 0 l 92 0 l 92 972 m 633 1049 l 278 1049 l 185 1272 l 363 1272 l 414 1183 l 456 1104 l 497 1183 l 549 1272 l 725 1272 l 633 1049 m 479 504 q 585 536 549 504 q 621 628 621 568 q 585 719 621 688 q 479 751 549 751 l 367 751 l 367 504 l 479 504 z "},"Ŗ":{"ha":963,"x_min":92,"x_max":928,"o":"m 92 972 l 490 972 q 794 883 686 972 q 901 633 901 794 q 767 363 901 453 l 928 0 l 624 0 l 500 293 l 490 293 l 369 293 l 369 0 l 92 0 l 92 972 m 381 -81 l 608 -81 l 535 -356 l 364 -356 l 381 -81 m 479 504 q 585 536 549 504 q 621 628 621 568 q 585 719 621 688 q 479 751 549 751 l 367 751 l 367 504 l 479 504 z "},"S":{"ha":915,"x_min":31,"x_max":874,"o":"m 490 -17 q 238 30 356 -17 q 31 168 119 76 l 178 349 q 316 253 228 292 q 493 215 404 215 q 565 232 540 215 q 590 279 590 249 q 550 341 590 319 q 419 389 510 363 q 253 448 319 418 q 138 540 186 478 q 89 704 89 603 q 182 915 89 842 q 432 989 275 989 q 659 945 551 989 q 833 819 767 901 l 689 654 q 572 733 635 704 q 453 763 508 763 q 386 747 410 763 q 363 701 363 731 q 403 642 363 663 q 536 594 444 621 q 706 535 638 565 q 824 443 774 504 q 874 283 874 382 q 772 63 874 143 q 490 -17 669 -17 z "},"Ś":{"ha":915,"x_min":31,"x_max":874,"o":"m 490 -17 q 238 30 356 -17 q 31 168 119 76 l 178 349 q 316 253 228 292 q 493 215 404 215 q 565 232 540 215 q 590 279 590 249 q 550 341 590 319 q 419 389 510 363 q 253 448 319 418 q 138 540 186 478 q 89 704 89 603 q 182 915 89 842 q 432 989 275 989 q 659 945 551 989 q 833 819 767 901 l 689 654 q 572 733 635 704 q 453 763 508 763 q 386 747 410 763 q 363 701 363 731 q 403 642 363 663 q 536 594 444 621 q 706 535 638 565 q 824 443 774 504 q 874 283 874 382 q 772 63 874 143 q 490 -17 669 -17 m 458 1326 l 667 1221 l 513 1049 l 338 1049 l 458 1326 z "},"Š":{"ha":915,"x_min":31,"x_max":874,"o":"m 490 -17 q 238 30 356 -17 q 31 168 119 76 l 178 349 q 316 253 228 292 q 493 215 404 215 q 565 232 540 215 q 590 279 590 249 q 550 341 590 319 q 419 389 510 363 q 253 448 319 418 q 138 540 186 478 q 89 704 89 603 q 182 915 89 842 q 432 989 275 989 q 659 945 551 989 q 833 819 767 901 l 689 654 q 572 733 635 704 q 453 763 508 763 q 386 747 410 763 q 363 701 363 731 q 403 642 363 663 q 536 594 444 621 q 706 535 638 565 q 824 443 774 504 q 874 283 874 382 q 772 63 874 143 q 490 -17 669 -17 m 611 1049 l 256 1049 l 163 1272 l 340 1272 l 392 1183 l 433 1104 l 475 1183 l 526 1272 l 703 1272 l 611 1049 z "},"Ş":{"ha":915,"x_min":31,"x_max":874,"o":"m 499 -360 q 319 -299 396 -360 l 385 -197 q 483 -231 438 -231 q 526 -220 510 -231 q 542 -192 542 -210 q 526 -164 542 -174 q 483 -154 510 -154 l 386 -154 l 431 -14 q 31 168 188 6 l 178 349 q 316 253 228 292 q 493 215 404 215 q 565 232 540 215 q 590 279 590 249 q 550 341 590 319 q 419 389 510 363 q 253 448 319 418 q 138 540 186 478 q 89 704 89 603 q 182 915 89 842 q 432 989 275 989 q 659 945 551 989 q 833 819 767 901 l 689 654 q 572 733 635 704 q 453 763 508 763 q 386 747 410 763 q 363 701 363 731 q 403 642 363 663 q 536 594 444 621 q 706 535 638 565 q 824 443 774 504 q 874 283 874 382 q 785 74 874 153 q 536 -15 696 -6 l 536 -57 q 652 -100 611 -60 q 693 -204 693 -140 q 641 -318 693 -276 q 499 -360 589 -360 z "},"Ŝ":{"ha":915,"x_min":31,"x_max":874,"o":"m 490 -17 q 238 30 356 -17 q 31 168 119 76 l 178 349 q 316 253 228 292 q 493 215 404 215 q 565 232 540 215 q 590 279 590 249 q 550 341 590 319 q 419 389 510 363 q 253 448 319 418 q 138 540 186 478 q 89 704 89 603 q 182 915 89 842 q 432 989 275 989 q 659 945 551 989 q 833 819 767 901 l 689 654 q 572 733 635 704 q 453 763 508 763 q 386 747 410 763 q 363 701 363 731 q 403 642 363 663 q 536 594 444 621 q 706 535 638 565 q 824 443 774 504 q 874 283 874 382 q 772 63 874 143 q 490 -17 669 -17 m 253 1272 l 608 1272 l 701 1049 l 524 1049 l 474 1138 l 432 1218 l 389 1138 l 339 1049 l 163 1049 l 253 1272 z "},"Ș":{"ha":915,"x_min":31,"x_max":874,"o":"m 490 -17 q 238 30 356 -17 q 31 168 119 76 l 178 349 q 316 253 228 292 q 493 215 404 215 q 565 232 540 215 q 590 279 590 249 q 550 341 590 319 q 419 389 510 363 q 253 448 319 418 q 138 540 186 478 q 89 704 89 603 q 182 915 89 842 q 432 989 275 989 q 659 945 551 989 q 833 819 767 901 l 689 654 q 572 733 635 704 q 453 763 508 763 q 386 747 410 763 q 363 701 363 731 q 403 642 363 663 q 536 594 444 621 q 706 535 638 565 q 824 443 774 504 q 874 283 874 382 q 772 63 874 143 q 490 -17 669 -17 m 376 -81 l 604 -81 l 531 -356 l 358 -356 l 376 -81 z "},"ẞ":{"ha":993,"x_min":79,"x_max":956,"o":"m 432 206 l 606 206 q 675 224 650 206 q 700 278 700 243 q 675 331 700 313 q 606 349 650 349 l 472 349 l 472 640 l 568 701 l 639 743 q 519 761 571 761 q 390 723 431 761 q 349 597 349 685 l 349 0 l 79 0 l 79 597 q 185 890 79 790 q 499 989 292 989 q 851 936 643 989 l 851 640 l 722 572 l 661 540 q 815 505 749 539 q 919 410 882 471 q 956 274 956 350 q 917 132 956 194 q 808 35 878 69 q 649 0 738 0 l 432 0 l 432 206 z "},"T":{"ha":889,"x_min":35,"x_max":853,"o":"m 306 718 l 35 718 l 35 972 l 853 972 l 853 718 l 583 718 l 583 0 l 306 0 l 306 718 z "},"Ŧ":{"ha":892,"x_min":36,"x_max":856,"o":"m 307 331 l 131 331 l 131 540 l 307 540 l 307 718 l 36 718 l 36 972 l 856 972 l 856 718 l 585 718 l 585 540 l 761 540 l 761 331 l 585 331 l 585 0 l 307 0 l 307 331 z "},"Ť":{"ha":889,"x_min":35,"x_max":853,"o":"m 306 718 l 35 718 l 35 972 l 853 972 l 853 718 l 583 718 l 583 0 l 306 0 l 306 718 m 624 1049 l 268 1049 l 175 1272 l 353 1272 l 404 1183 l 446 1104 l 488 1183 l 539 1272 l 715 1272 l 624 1049 z "},"Ţ":{"ha":889,"x_min":35,"x_max":853,"o":"m 306 718 l 35 718 l 35 972 l 853 972 l 853 718 l 583 718 l 583 0 l 490 0 l 490 -57 q 606 -100 565 -60 q 647 -204 647 -140 q 595 -318 647 -276 q 453 -360 543 -360 q 274 -299 350 -360 l 339 -197 q 438 -231 389 -231 q 480 -220 464 -231 q 496 -192 496 -210 q 480 -164 496 -174 q 438 -154 464 -154 l 340 -154 l 390 0 l 306 0 l 306 718 z "},"Ț":{"ha":889,"x_min":35,"x_max":853,"o":"m 306 718 l 35 718 l 35 972 l 853 972 l 853 718 l 583 718 l 583 0 l 306 0 l 306 718 m 331 -81 l 558 -81 l 485 -356 l 313 -356 l 331 -81 z "},"U":{"ha":1014,"x_min":78,"x_max":936,"o":"m 507 -17 q 278 34 375 -17 q 130 179 182 85 q 78 403 78 274 l 78 972 l 358 972 l 358 418 q 507 240 358 240 q 656 418 656 240 l 656 972 l 936 972 l 936 403 q 884 179 936 274 q 735 34 832 85 q 507 -17 639 -17 z "},"Ú":{"ha":1014,"x_min":78,"x_max":936,"o":"m 507 -17 q 278 34 375 -17 q 130 179 182 85 q 78 403 78 274 l 78 972 l 358 972 l 358 418 q 507 240 358 240 q 656 418 656 240 l 656 972 l 936 972 l 936 403 q 884 179 936 274 q 735 34 832 85 q 507 -17 639 -17 m 533 1326 l 742 1221 l 588 1049 l 413 1049 l 533 1326 z "},"Ŭ":{"ha":1014,"x_min":78,"x_max":936,"o":"m 507 -17 q 278 34 375 -17 q 130 179 182 85 q 78 403 78 274 l 78 972 l 358 972 l 358 418 q 507 240 358 240 q 656 418 656 240 l 656 972 l 936 972 l 936 403 q 884 179 936 274 q 735 34 832 85 q 507 -17 639 -17 m 507 1038 q 329 1097 392 1038 q 260 1268 267 1157 l 421 1275 q 446 1208 424 1232 q 507 1185 468 1185 q 568 1208 546 1185 q 594 1275 590 1232 l 754 1268 q 685 1097 747 1157 q 507 1038 622 1038 z "},"Û":{"ha":1014,"x_min":78,"x_max":936,"o":"m 507 -17 q 278 34 375 -17 q 130 179 182 85 q 78 403 78 274 l 78 972 l 358 972 l 358 418 q 507 240 358 240 q 656 418 656 240 l 656 972 l 936 972 l 936 403 q 884 179 936 274 q 735 34 832 85 q 507 -17 639 -17 m 328 1272 l 683 1272 l 776 1049 l 599 1049 l 547 1138 l 506 1217 l 464 1138 l 414 1049 l 236 1049 l 328 1272 z "},"Ü":{"ha":1014,"x_min":78,"x_max":936,"o":"m 507 -17 q 278 34 375 -17 q 130 179 182 85 q 78 403 78 274 l 78 972 l 358 972 l 358 418 q 507 240 358 240 q 656 418 656 240 l 656 972 l 936 972 l 936 403 q 884 179 936 274 q 735 34 832 85 q 507 -17 639 -17 m 664 1047 q 575 1082 610 1047 q 540 1169 540 1117 q 576 1256 540 1222 q 664 1290 611 1290 q 751 1256 717 1290 q 786 1169 786 1222 q 751 1081 786 1115 q 664 1047 717 1047 m 353 1047 q 264 1082 299 1047 q 229 1169 229 1117 q 264 1256 229 1222 q 353 1290 299 1290 q 440 1256 406 1290 q 474 1169 474 1222 q 440 1081 474 1115 q 353 1047 406 1047 z "},"Ụ":{"ha":1014,"x_min":78,"x_max":936,"o":"m 507 -17 q 278 34 375 -17 q 130 179 182 85 q 78 403 78 274 l 78 972 l 358 972 l 358 418 q 507 240 358 240 q 656 418 656 240 l 656 972 l 936 972 l 936 403 q 884 179 936 274 q 735 34 832 85 q 507 -17 639 -17 m 507 -354 q 405 -316 444 -354 q 365 -219 365 -278 q 405 -124 365 -161 q 507 -86 444 -86 q 609 -124 569 -86 q 649 -219 649 -161 q 609 -316 649 -278 q 507 -354 569 -354 z "},"Ù":{"ha":1014,"x_min":78,"x_max":936,"o":"m 507 -17 q 278 34 375 -17 q 130 179 182 85 q 78 403 78 274 l 78 972 l 358 972 l 358 418 q 507 240 358 240 q 656 418 656 240 l 656 972 l 936 972 l 936 403 q 884 179 936 274 q 735 34 832 85 q 507 -17 639 -17 m 272 1221 l 481 1326 l 601 1049 l 426 1049 l 272 1221 z "},"Ű":{"ha":1014,"x_min":78,"x_max":936,"o":"m 507 -17 q 278 34 375 -17 q 130 179 182 85 q 78 403 78 274 l 78 972 l 358 972 l 358 418 q 507 240 358 240 q 656 418 656 240 l 656 972 l 936 972 l 936 403 q 884 179 936 274 q 735 34 832 85 q 507 -17 639 -17 m 749 1354 l 910 1218 l 742 1049 l 542 1049 l 749 1354 m 428 1354 l 606 1238 l 468 1049 l 281 1049 l 428 1354 z "},"Ū":{"ha":1014,"x_min":78,"x_max":936,"o":"m 507 -17 q 278 34 375 -17 q 130 179 182 85 q 78 403 78 274 l 78 972 l 358 972 l 358 418 q 507 240 358 240 q 656 418 656 240 l 656 972 l 936 972 l 936 403 q 884 179 936 274 q 735 34 832 85 q 507 -17 639 -17 m 283 1239 l 729 1239 l 729 1068 l 283 1068 l 283 1239 z "},"Ų":{"ha":1014,"x_min":78,"x_max":936,"o":"m 617 -312 q 494 -276 539 -312 q 450 -176 450 -240 q 472 -92 450 -135 q 539 -15 493 -50 q 507 -17 526 -17 q 278 34 375 -17 q 130 179 182 85 q 78 403 78 274 l 78 972 l 358 972 l 358 418 q 507 240 358 240 q 656 418 656 240 l 656 972 l 936 972 l 936 403 q 904 222 936 296 q 828 102 872 147 q 719 8 785 57 q 638 -62 664 -33 q 611 -131 611 -92 q 623 -160 611 -150 q 657 -171 635 -171 q 717 -150 686 -171 l 782 -254 q 702 -299 740 -286 q 617 -312 664 -312 z "},"Ů":{"ha":1014,"x_min":78,"x_max":936,"o":"m 507 -17 q 278 34 375 -17 q 130 179 182 85 q 78 403 78 274 l 78 972 l 358 972 l 358 418 q 507 240 358 240 q 656 418 656 240 l 656 972 l 936 972 l 936 403 q 884 179 936 274 q 735 34 832 85 q 507 -17 639 -17 m 507 1029 q 361 1078 418 1029 q 304 1204 304 1128 q 362 1331 304 1281 q 507 1381 419 1381 q 653 1331 596 1381 q 710 1204 710 1281 q 653 1078 710 1128 q 507 1029 596 1029 m 507 1150 q 549 1165 533 1150 q 565 1204 565 1181 q 549 1244 565 1229 q 507 1260 532 1260 q 466 1244 482 1260 q 450 1204 450 1229 q 466 1165 450 1179 q 507 1150 482 1150 z "},"Ũ":{"ha":1014,"x_min":78,"x_max":936,"o":"m 507 -17 q 278 34 375 -17 q 130 179 182 85 q 78 403 78 274 l 78 972 l 358 972 l 358 418 q 507 240 358 240 q 656 418 656 240 l 656 972 l 936 972 l 936 403 q 884 179 936 274 q 735 34 832 85 q 507 -17 639 -17 m 235 1081 q 294 1217 250 1169 q 404 1265 338 1265 q 464 1257 438 1265 q 526 1233 490 1249 q 585 1215 568 1215 q 629 1258 619 1215 l 779 1239 q 721 1103 765 1150 q 611 1056 676 1056 q 549 1063 576 1056 q 486 1086 522 1071 q 429 1104 447 1104 q 383 1061 394 1104 l 235 1081 z "},"V":{"ha":1038,"x_min":15,"x_max":1021,"o":"m 15 972 l 311 972 l 444 489 l 519 165 l 593 489 l 726 972 l 1021 972 l 713 0 l 324 0 l 15 972 z "},"W":{"ha":1638,"x_min":39,"x_max":1597,"o":"m 39 972 l 325 972 l 418 478 l 467 161 l 517 478 l 611 972 l 1025 972 l 1121 478 l 1169 165 l 1218 478 l 1313 972 l 1597 972 l 1385 0 l 960 0 l 875 444 l 819 811 l 763 444 l 678 0 l 253 0 l 39 972 z "},"Ẃ":{"ha":1638,"x_min":39,"x_max":1597,"o":"m 39 972 l 325 972 l 418 478 l 467 161 l 517 478 l 611 972 l 1025 972 l 1121 478 l 1169 165 l 1218 478 l 1313 972 l 1597 972 l 1385 0 l 960 0 l 875 444 l 819 811 l 763 444 l 678 0 l 253 0 l 39 972 m 844 1326 l 1053 1221 l 899 1049 l 724 1049 l 844 1326 z "},"Ŵ":{"ha":1638,"x_min":39,"x_max":1597,"o":"m 39 972 l 325 972 l 418 478 l 467 161 l 517 478 l 611 972 l 1025 972 l 1121 478 l 1169 165 l 1218 478 l 1313 972 l 1597 972 l 1385 0 l 960 0 l 875 444 l 819 811 l 763 444 l 678 0 l 253 0 l 39 972 m 639 1272 l 994 1272 l 1088 1049 l 910 1049 l 860 1138 l 818 1218 l 775 1138 l 725 1049 l 549 1049 l 639 1272 z "},"Ẅ":{"ha":1638,"x_min":39,"x_max":1597,"o":"m 39 972 l 325 972 l 418 478 l 467 161 l 517 478 l 611 972 l 1025 972 l 1121 478 l 1169 165 l 1218 478 l 1313 972 l 1597 972 l 1385 0 l 960 0 l 875 444 l 819 811 l 763 444 l 678 0 l 253 0 l 39 972 m 976 1047 q 888 1082 922 1047 q 853 1169 853 1117 q 888 1256 853 1222 q 976 1290 922 1290 q 1063 1256 1029 1290 q 1097 1169 1097 1222 q 1063 1081 1097 1115 q 976 1047 1029 1047 m 664 1047 q 575 1082 610 1047 q 540 1169 540 1117 q 575 1256 540 1222 q 664 1290 610 1290 q 751 1256 717 1290 q 785 1169 785 1222 q 751 1081 785 1115 q 664 1047 717 1047 z "},"Ẁ":{"ha":1638,"x_min":39,"x_max":1597,"o":"m 39 972 l 325 972 l 418 478 l 467 161 l 517 478 l 611 972 l 1025 972 l 1121 478 l 1169 165 l 1218 478 l 1313 972 l 1597 972 l 1385 0 l 960 0 l 875 444 l 819 811 l 763 444 l 678 0 l 253 0 l 39 972 m 583 1221 l 792 1326 l 914 1049 l 738 1049 l 583 1221 z "},"X":{"ha":1017,"x_min":31,"x_max":986,"o":"m 581 194 l 508 368 l 436 194 l 346 0 l 31 0 l 289 496 l 53 972 l 361 972 l 440 796 l 508 625 l 576 796 l 656 972 l 964 972 l 728 494 l 986 0 l 671 0 l 581 194 z "},"Y":{"ha":996,"x_min":13,"x_max":983,"o":"m 13 972 l 317 972 l 433 653 l 499 460 l 563 653 l 679 972 l 983 972 l 708 321 l 638 321 l 638 0 l 358 0 l 358 321 l 288 321 l 13 972 z "},"Ý":{"ha":996,"x_min":13,"x_max":983,"o":"m 13 972 l 317 972 l 433 653 l 499 460 l 563 653 l 679 972 l 983 972 l 708 321 l 638 321 l 638 0 l 358 0 l 358 321 l 288 321 l 13 972 m 525 1326 l 733 1221 l 578 1049 l 403 1049 l 525 1326 z "},"Ŷ":{"ha":996,"x_min":13,"x_max":983,"o":"m 13 972 l 317 972 l 433 653 l 499 460 l 563 653 l 679 972 l 983 972 l 708 321 l 638 321 l 638 0 l 358 0 l 358 321 l 288 321 l 13 972 m 319 1272 l 675 1272 l 767 1049 l 589 1049 l 539 1138 l 497 1218 l 454 1138 l 404 1049 l 228 1049 l 319 1272 z "},"Ÿ":{"ha":996,"x_min":13,"x_max":983,"o":"m 13 972 l 317 972 l 433 653 l 499 460 l 563 653 l 679 972 l 983 972 l 708 321 l 638 321 l 638 0 l 358 0 l 358 321 l 288 321 l 13 972 m 656 1047 q 567 1082 601 1047 q 532 1169 532 1117 q 567 1256 532 1222 q 656 1290 601 1290 q 742 1256 708 1290 q 776 1169 776 1222 q 742 1081 776 1115 q 656 1047 708 1047 m 343 1047 q 254 1082 289 1047 q 219 1169 219 1117 q 254 1256 219 1222 q 343 1290 289 1290 q 430 1256 396 1290 q 464 1169 464 1222 q 430 1081 464 1115 q 343 1047 396 1047 z "},"Ỳ":{"ha":996,"x_min":13,"x_max":983,"o":"m 13 972 l 317 972 l 433 653 l 499 460 l 563 653 l 679 972 l 983 972 l 708 321 l 638 321 l 638 0 l 358 0 l 358 321 l 288 321 l 13 972 m 263 1221 l 471 1326 l 593 1049 l 418 1049 l 263 1221 z "},"Ȳ":{"ha":996,"x_min":13,"x_max":983,"o":"m 13 972 l 317 972 l 433 653 l 499 460 l 563 653 l 679 972 l 983 972 l 708 321 l 638 321 l 638 0 l 358 0 l 358 321 l 288 321 l 13 972 m 275 1239 l 719 1239 l 719 1068 l 275 1068 l 275 1239 z "},"Ỹ":{"ha":996,"x_min":13,"x_max":983,"o":"m 13 972 l 317 972 l 433 653 l 499 460 l 563 653 l 679 972 l 983 972 l 708 321 l 638 321 l 638 0 l 358 0 l 358 321 l 288 321 l 13 972 m 225 1081 q 284 1217 240 1169 q 394 1265 328 1265 q 455 1258 429 1265 q 519 1233 481 1250 q 576 1215 558 1215 q 622 1258 611 1215 l 771 1239 q 712 1103 757 1150 q 601 1056 667 1056 q 538 1064 567 1056 q 478 1086 510 1072 q 419 1104 436 1104 q 374 1061 382 1104 l 225 1081 z "},"Z":{"ha":913,"x_min":65,"x_max":846,"o":"m 65 363 l 396 610 l 565 735 l 319 731 l 85 731 l 85 972 l 831 972 l 831 619 l 496 368 l 325 247 l 576 251 l 846 251 l 846 0 l 65 0 l 65 363 z "},"Ź":{"ha":913,"x_min":65,"x_max":846,"o":"m 65 363 l 396 610 l 565 735 l 319 731 l 85 731 l 85 972 l 831 972 l 831 619 l 496 368 l 325 247 l 576 251 l 846 251 l 846 0 l 65 0 l 65 363 m 485 1326 l 693 1221 l 539 1049 l 364 1049 l 485 1326 z "},"Ž":{"ha":913,"x_min":65,"x_max":846,"o":"m 65 363 l 396 610 l 565 735 l 319 731 l 85 731 l 85 972 l 831 972 l 831 619 l 496 368 l 325 247 l 576 251 l 846 251 l 846 0 l 65 0 l 65 363 m 638 1049 l 282 1049 l 189 1272 l 367 1272 l 418 1183 l 460 1104 l 501 1183 l 553 1272 l 729 1272 l 638 1049 z "},"Ż":{"ha":913,"x_min":65,"x_max":846,"o":"m 65 363 l 396 610 l 565 735 l 319 731 l 85 731 l 85 972 l 831 972 l 831 619 l 496 368 l 325 247 l 576 251 l 846 251 l 846 0 l 65 0 l 65 363 m 458 1043 q 349 1083 390 1043 q 307 1185 307 1124 q 349 1288 307 1249 q 458 1328 390 1328 q 568 1288 526 1328 q 610 1185 610 1249 q 567 1083 610 1122 q 458 1043 525 1043 z "},"a":{"ha":829,"x_min":32,"x_max":758,"o":"m 274 -11 q 102 45 172 -11 q 32 203 32 101 q 101 365 32 306 q 290 425 169 425 l 519 425 q 485 514 519 483 q 385 544 451 544 q 291 526 335 544 q 200 469 247 508 l 90 629 q 241 710 163 685 q 418 735 319 735 q 669 656 581 735 q 758 435 758 578 l 758 0 l 526 0 l 526 124 q 419 23 486 57 q 274 -11 351 -11 m 281 222 q 376 158 281 158 q 484 194 446 158 q 522 293 522 229 l 522 329 l 344 292 q 297 267 314 285 q 281 222 281 249 z "},"á":{"ha":829,"x_min":32,"x_max":758,"o":"m 274 -11 q 102 45 172 -11 q 32 203 32 101 q 101 365 32 306 q 290 425 169 425 l 519 425 q 485 514 519 483 q 385 544 451 544 q 291 526 335 544 q 200 469 247 508 l 90 629 q 241 710 163 685 q 418 735 319 735 q 669 656 581 735 q 758 435 758 578 l 758 0 l 526 0 l 526 124 q 419 23 486 57 q 274 -11 351 -11 m 436 1086 l 636 982 l 489 801 l 321 801 l 436 1086 m 281 222 q 376 158 281 158 q 484 194 446 158 q 522 293 522 229 l 522 329 l 344 292 q 297 267 314 285 q 281 222 281 249 z "},"ă":{"ha":829,"x_min":32,"x_max":758,"o":"m 274 -11 q 102 45 172 -11 q 32 203 32 101 q 101 365 32 306 q 290 425 169 425 l 519 425 q 485 514 519 483 q 385 544 451 544 q 291 526 335 544 q 200 469 247 508 l 90 629 q 241 710 163 685 q 418 735 319 735 q 669 656 581 735 q 758 435 758 578 l 758 0 l 526 0 l 526 124 q 419 23 486 57 q 274 -11 351 -11 m 418 790 q 247 851 307 790 q 182 1028 186 913 l 335 1035 q 418 936 342 936 q 501 1035 497 936 l 654 1028 q 590 851 650 913 q 418 790 529 790 m 281 222 q 376 158 281 158 q 484 194 446 158 q 522 293 522 229 l 522 329 l 344 292 q 297 267 314 285 q 281 222 281 249 z "},"ǎ":{"ha":829,"x_min":32,"x_max":758,"o":"m 274 -11 q 102 45 172 -11 q 32 203 32 101 q 101 365 32 306 q 290 425 169 425 l 519 425 q 485 514 519 483 q 385 544 451 544 q 291 526 335 544 q 200 469 247 508 l 90 629 q 241 710 163 685 q 418 735 319 735 q 669 656 581 735 q 758 435 758 578 l 758 0 l 526 0 l 526 124 q 419 23 486 57 q 274 -11 351 -11 m 589 801 l 249 801 l 160 1032 l 329 1032 l 378 938 l 418 858 l 458 938 l 507 1032 l 676 1032 l 589 801 m 281 222 q 376 158 281 158 q 484 194 446 158 q 522 293 522 229 l 522 329 l 344 292 q 297 267 314 285 q 281 222 281 249 z "},"â":{"ha":829,"x_min":32,"x_max":758,"o":"m 274 -11 q 102 45 172 -11 q 32 203 32 101 q 101 365 32 306 q 290 425 169 425 l 519 425 q 485 514 519 483 q 385 544 451 544 q 291 526 335 544 q 200 469 247 508 l 90 629 q 241 710 163 685 q 418 735 319 735 q 669 656 581 735 q 758 435 758 578 l 758 0 l 526 0 l 526 124 q 419 23 486 57 q 274 -11 351 -11 m 247 1032 l 588 1032 l 676 801 l 506 801 l 458 896 l 418 975 l 378 896 l 329 801 l 160 801 l 247 1032 m 281 222 q 376 158 281 158 q 484 194 446 158 q 522 293 522 229 l 522 329 l 344 292 q 297 267 314 285 q 281 222 281 249 z "},"ä":{"ha":829,"x_min":32,"x_max":758,"o":"m 274 -11 q 102 45 172 -11 q 32 203 32 101 q 101 365 32 306 q 290 425 169 425 l 519 425 q 485 514 519 483 q 385 544 451 544 q 291 526 335 544 q 200 469 247 508 l 90 629 q 241 710 163 685 q 418 735 319 735 q 669 656 581 735 q 758 435 758 578 l 758 0 l 526 0 l 526 124 q 419 23 486 57 q 274 -11 351 -11 m 567 800 q 481 833 514 800 q 447 917 447 867 q 481 1000 447 967 q 567 1033 515 1033 q 653 999 619 1033 q 686 917 686 965 q 652 833 686 867 q 567 800 618 800 m 268 800 q 182 833 215 800 q 149 917 149 867 q 183 1000 149 967 q 268 1033 217 1033 q 354 999 321 1033 q 388 917 388 965 q 353 833 388 867 q 268 800 319 800 m 281 222 q 376 158 281 158 q 484 194 446 158 q 522 293 522 229 l 522 329 l 344 292 q 297 267 314 285 q 281 222 281 249 z "},"à":{"ha":829,"x_min":32,"x_max":758,"o":"m 274 -11 q 102 45 172 -11 q 32 203 32 101 q 101 365 32 306 q 290 425 169 425 l 519 425 q 485 514 519 483 q 385 544 451 544 q 291 526 335 544 q 200 469 247 508 l 90 629 q 241 710 163 685 q 418 735 319 735 q 669 656 581 735 q 758 435 758 578 l 758 0 l 526 0 l 526 124 q 419 23 486 57 q 274 -11 351 -11 m 200 982 l 400 1086 l 515 801 l 347 801 l 200 982 m 281 222 q 376 158 281 158 q 484 194 446 158 q 522 293 522 229 l 522 329 l 344 292 q 297 267 314 285 q 281 222 281 249 z "},"ā":{"ha":829,"x_min":32,"x_max":758,"o":"m 274 -11 q 102 45 172 -11 q 32 203 32 101 q 101 365 32 306 q 290 425 169 425 l 519 425 q 485 514 519 483 q 385 544 451 544 q 291 526 335 544 q 200 469 247 508 l 90 629 q 241 710 163 685 q 418 735 319 735 q 669 656 581 735 q 758 435 758 578 l 758 0 l 526 0 l 526 124 q 419 23 486 57 q 274 -11 351 -11 m 206 992 l 631 992 l 631 825 l 206 825 l 206 992 m 281 222 q 376 158 281 158 q 484 194 446 158 q 522 293 522 229 l 522 329 l 344 292 q 297 267 314 285 q 281 222 281 249 z "},"ą":{"ha":829,"x_min":32,"x_max":804,"o":"m 274 -11 q 102 45 172 -11 q 32 203 32 101 q 101 365 32 306 q 290 425 169 425 l 519 425 q 485 514 519 483 q 385 544 451 544 q 291 526 335 544 q 200 469 247 508 l 90 629 q 241 710 163 685 q 418 735 319 735 q 669 656 581 735 q 758 435 758 578 l 758 0 q 672 -62 703 -28 q 640 -125 640 -96 q 653 -153 640 -143 q 685 -164 665 -164 q 740 -144 713 -164 l 804 -244 q 646 -300 729 -300 q 529 -265 572 -300 q 486 -169 486 -231 q 517 -76 486 -119 q 610 0 549 -33 l 526 0 l 526 124 q 419 23 486 57 q 274 -11 351 -11 m 281 222 q 376 158 281 158 q 484 194 446 158 q 522 293 522 229 l 522 329 l 344 292 q 297 267 314 285 q 281 222 281 249 z "},"å":{"ha":829,"x_min":32,"x_max":758,"o":"m 274 -11 q 102 45 172 -11 q 32 203 32 101 q 101 365 32 306 q 290 425 169 425 l 519 425 q 485 514 519 483 q 385 544 451 544 q 291 526 335 544 q 200 469 247 508 l 90 629 q 241 710 163 685 q 418 735 319 735 q 669 656 581 735 q 758 435 758 578 l 758 0 l 526 0 l 526 124 q 419 23 486 57 q 274 -11 351 -11 m 418 782 q 280 832 335 782 q 225 957 225 882 q 280 1082 225 1033 q 418 1131 335 1131 q 557 1081 503 1131 q 611 957 611 1032 q 556 831 611 881 q 418 782 501 782 m 418 903 q 457 918 442 903 q 472 957 472 933 q 457 996 472 981 q 418 1011 442 1011 q 379 996 394 1011 q 364 957 364 981 q 379 918 364 933 q 418 903 394 903 m 281 222 q 376 158 281 158 q 484 194 446 158 q 522 293 522 229 l 522 329 l 344 292 q 297 267 314 285 q 281 222 281 249 z "},"ã":{"ha":829,"x_min":32,"x_max":758,"o":"m 274 -11 q 102 45 172 -11 q 32 203 32 101 q 101 365 32 306 q 290 425 169 425 l 519 425 q 485 514 519 483 q 385 544 451 544 q 291 526 335 544 q 200 469 247 508 l 90 629 q 241 710 163 685 q 418 735 319 735 q 669 656 581 735 q 758 435 758 578 l 758 0 l 526 0 l 526 124 q 419 23 486 57 q 274 -11 351 -11 m 158 839 q 214 974 172 926 q 318 1021 256 1021 q 377 1012 351 1021 q 436 986 403 1003 q 492 967 472 967 q 535 1015 525 967 l 676 993 q 622 858 664 906 q 515 810 579 810 q 458 819 483 810 q 399 844 432 828 q 369 858 383 851 q 343 864 354 864 q 300 817 310 864 l 158 839 m 281 222 q 376 158 281 158 q 484 194 446 158 q 522 293 522 229 l 522 329 l 344 292 q 297 267 314 285 q 281 222 281 249 z "},"æ":{"ha":1258,"x_min":32,"x_max":1229,"o":"m 315 -17 q 110 42 188 -17 q 32 207 32 100 q 99 366 32 307 q 281 425 165 425 l 496 425 q 371 544 493 544 q 284 527 325 544 q 196 469 243 510 l 90 631 q 376 735 222 735 q 618 608 546 735 q 726 704 661 671 q 879 738 792 738 q 1065 690 986 738 q 1187 557 1144 642 q 1229 364 1229 472 q 1224 286 1229 321 l 722 286 q 776 202 733 232 q 883 172 818 172 q 1058 246 982 172 l 1181 94 q 1047 13 1125 42 q 882 -17 968 -17 q 611 126 700 -17 q 315 -17 517 -17 m 281 222 q 365 158 281 158 q 463 194 426 158 q 499 294 499 231 l 499 328 l 336 292 q 294 267 308 286 q 281 222 281 249 m 990 440 q 944 524 979 494 q 854 553 910 553 q 752 510 789 553 q 717 392 715 468 l 990 440 z "},"ǽ":{"ha":1258,"x_min":32,"x_max":1229,"o":"m 315 -17 q 110 42 188 -17 q 32 207 32 100 q 99 366 32 307 q 281 425 165 425 l 496 425 q 371 544 493 544 q 284 527 325 544 q 196 469 243 510 l 90 631 q 376 735 222 735 q 618 608 546 735 q 726 704 661 671 q 879 738 792 738 q 1065 690 986 738 q 1187 557 1144 642 q 1229 364 1229 472 q 1224 286 1229 321 l 722 286 q 776 202 733 232 q 883 172 818 172 q 1058 246 982 172 l 1181 94 q 1047 13 1125 42 q 882 -17 968 -17 q 611 126 700 -17 q 315 -17 517 -17 m 656 1086 l 856 982 l 708 801 l 540 801 l 656 1086 m 281 222 q 365 158 281 158 q 463 194 426 158 q 499 294 499 231 l 499 328 l 336 292 q 294 267 308 286 q 281 222 281 249 m 990 440 q 944 524 979 494 q 854 553 910 553 q 752 510 789 553 q 717 392 715 468 l 990 440 z "},"b":{"ha":947,"x_min":83,"x_max":901,"o":"m 604 -17 q 436 34 506 -17 q 333 179 367 85 l 333 0 l 83 0 l 83 972 l 344 972 l 344 569 q 447 693 381 650 q 604 736 514 736 q 823 636 744 736 q 901 360 901 536 q 822 83 901 183 q 604 -17 743 -17 m 490 207 q 601 249 560 207 q 643 360 643 292 q 601 472 643 429 q 490 514 560 514 q 381 472 422 514 q 339 360 339 429 q 381 249 339 292 q 490 207 422 207 z "},"c":{"ha":774,"x_min":38,"x_max":763,"o":"m 424 -17 q 224 31 313 -17 q 87 163 136 78 q 38 360 38 249 q 86 556 38 469 q 222 690 135 642 q 421 738 310 738 q 609 698 524 738 q 751 583 694 658 l 586 444 q 522 496 558 478 q 444 514 486 514 q 338 472 379 514 q 297 360 297 429 q 338 249 297 290 q 444 207 378 207 q 596 289 539 207 l 763 151 q 617 26 706 69 q 424 -17 528 -17 z "},"ć":{"ha":774,"x_min":38,"x_max":763,"o":"m 424 -17 q 224 31 313 -17 q 87 163 136 78 q 38 360 38 249 q 86 556 38 469 q 222 690 135 642 q 421 738 310 738 q 609 698 524 738 q 751 583 694 658 l 586 444 q 522 496 558 478 q 444 514 486 514 q 338 472 379 514 q 297 360 297 429 q 338 249 297 290 q 444 207 378 207 q 596 289 539 207 l 763 151 q 617 26 706 69 q 424 -17 528 -17 m 440 1086 l 639 982 l 493 801 l 324 801 l 440 1086 z "},"č":{"ha":774,"x_min":38,"x_max":763,"o":"m 424 -17 q 224 31 313 -17 q 87 163 136 78 q 38 360 38 249 q 86 556 38 469 q 222 690 135 642 q 421 738 310 738 q 609 698 524 738 q 751 583 694 658 l 586 444 q 522 496 558 478 q 444 514 486 514 q 338 472 379 514 q 297 360 297 429 q 338 249 297 290 q 444 207 378 207 q 596 289 539 207 l 763 151 q 617 26 706 69 q 424 -17 528 -17 m 592 801 l 251 801 l 163 1032 l 332 1032 l 381 938 l 421 858 l 461 938 l 510 1032 l 679 1032 l 592 801 z "},"ç":{"ha":774,"x_min":38,"x_max":763,"o":"m 435 -346 q 264 -287 335 -346 l 326 -190 q 419 -222 375 -222 q 460 -212 446 -222 q 475 -185 475 -201 q 460 -158 475 -167 q 419 -149 446 -149 l 326 -149 l 369 -14 q 197 47 272 -3 q 79 176 121 96 q 38 360 38 257 q 86 556 38 469 q 222 690 135 642 q 421 738 310 738 q 609 698 524 738 q 751 583 694 658 l 586 444 q 522 496 558 478 q 444 514 486 514 q 338 472 379 514 q 297 360 297 429 q 338 249 297 290 q 444 207 378 207 q 596 289 539 207 l 763 151 q 636 37 713 79 q 471 -14 560 -6 l 471 -54 q 581 -96 542 -57 q 621 -196 621 -135 q 571 -306 621 -267 q 435 -346 521 -346 z "},"ĉ":{"ha":774,"x_min":38,"x_max":763,"o":"m 424 -17 q 224 31 313 -17 q 87 163 136 78 q 38 360 38 249 q 86 556 38 469 q 222 690 135 642 q 421 738 310 738 q 609 698 524 738 q 751 583 694 658 l 586 444 q 522 496 558 478 q 444 514 486 514 q 338 472 379 514 q 297 360 297 429 q 338 249 297 290 q 444 207 378 207 q 596 289 539 207 l 763 151 q 617 26 706 69 q 424 -17 528 -17 m 250 1032 l 592 1032 l 679 801 l 510 801 l 461 896 l 422 975 l 382 896 l 333 801 l 164 801 l 250 1032 z "},"ċ":{"ha":774,"x_min":38,"x_max":763,"o":"m 424 -17 q 224 31 313 -17 q 87 163 136 78 q 38 360 38 249 q 86 556 38 469 q 222 690 135 642 q 421 738 310 738 q 609 698 524 738 q 751 583 694 658 l 586 444 q 522 496 558 478 q 444 514 486 514 q 338 472 379 514 q 297 360 297 429 q 338 249 297 290 q 444 207 378 207 q 596 289 539 207 l 763 151 q 617 26 706 69 q 424 -17 528 -17 m 421 790 q 319 828 358 790 q 279 925 279 867 q 319 1021 279 983 q 421 1058 360 1058 q 524 1021 483 1058 q 564 925 564 983 q 524 828 564 867 q 421 790 483 790 z "},"d":{"ha":947,"x_min":46,"x_max":865,"o":"m 344 -17 q 125 83 204 -17 q 46 360 46 183 q 125 636 46 536 q 344 736 204 736 q 502 692 436 736 q 604 567 568 649 l 604 972 l 865 972 l 865 0 l 614 0 l 614 178 q 512 34 581 85 q 344 -17 443 -17 m 457 207 q 567 249 525 207 q 608 360 608 292 q 567 472 608 429 q 457 514 525 514 q 347 472 389 514 q 306 360 306 429 q 347 249 306 290 q 457 207 389 207 z "},"ď":{"ha":1075,"x_min":46,"x_max":1178,"o":"m 344 -17 q 125 83 204 -17 q 46 360 46 183 q 125 636 46 536 q 344 736 204 736 q 502 692 436 736 q 604 567 568 649 l 604 972 l 865 972 l 865 0 l 614 0 l 614 178 q 512 34 581 85 q 344 -17 443 -17 m 457 207 q 567 249 525 207 q 608 360 608 292 q 567 472 608 429 q 457 514 525 514 q 347 472 389 514 q 306 360 306 429 q 347 249 306 290 q 457 207 389 207 m 964 972 l 1178 972 l 1094 678 l 944 678 l 964 972 z "},"đ":{"ha":957,"x_min":46,"x_max":968,"o":"m 344 -17 q 125 81 204 -17 q 46 346 46 179 q 125 610 46 513 q 344 707 204 707 q 501 664 435 707 q 604 542 568 621 l 604 742 l 417 742 l 417 901 l 604 901 l 604 972 l 865 972 l 865 901 l 968 901 l 968 731 l 865 731 l 865 0 l 614 0 l 614 174 q 512 33 581 82 q 344 -17 443 -17 m 457 200 q 567 242 526 200 q 608 346 608 285 q 567 449 608 407 q 457 492 526 492 q 346 449 386 492 q 306 346 306 407 q 346 242 306 285 q 457 200 386 200 z "},"ð":{"ha":907,"x_min":36,"x_max":857,"o":"m 442 -17 q 233 28 325 -17 q 88 157 140 74 q 36 351 36 240 q 78 535 36 454 q 196 663 121 617 q 368 708 271 708 q 527 667 460 708 q 633 544 594 625 q 450 839 597 750 l 229 728 l 169 856 l 264 904 q 128 919 197 915 l 149 1124 q 506 1039 353 1114 l 688 1131 l 765 972 l 671 925 q 810 717 763 838 q 857 453 857 597 q 803 190 857 296 q 657 34 750 85 q 442 -17 564 -17 m 444 207 q 554 249 513 207 q 596 356 596 290 q 553 463 596 421 q 444 504 511 504 q 335 463 378 504 q 293 356 293 421 q 335 249 293 290 q 444 207 376 207 z "},"e":{"ha":844,"x_min":38,"x_max":814,"o":"m 443 -17 q 231 30 322 -17 q 88 162 139 76 q 38 358 38 247 q 87 556 38 469 q 224 690 136 642 q 425 738 313 738 q 628 687 540 738 q 765 547 717 636 q 814 349 814 458 q 810 286 814 318 l 283 286 q 340 202 296 232 q 454 172 385 172 q 639 244 565 172 l 765 96 q 623 13 707 43 q 443 -17 539 -17 m 574 442 q 428 553 543 553 q 317 510 357 553 q 278 392 278 467 l 574 442 z "},"é":{"ha":844,"x_min":38,"x_max":814,"o":"m 443 -17 q 231 30 322 -17 q 88 162 139 76 q 38 358 38 247 q 87 556 38 469 q 224 690 136 642 q 425 738 313 738 q 628 687 540 738 q 765 547 717 636 q 814 349 814 458 q 810 286 814 318 l 283 286 q 340 202 296 232 q 454 172 385 172 q 639 244 565 172 l 765 96 q 623 13 707 43 q 443 -17 539 -17 m 443 1086 l 642 982 l 496 801 l 326 801 l 443 1086 m 574 442 q 428 553 543 553 q 317 510 357 553 q 278 392 278 467 l 574 442 z "},"ĕ":{"ha":844,"x_min":38,"x_max":814,"o":"m 443 -17 q 231 30 322 -17 q 88 162 139 76 q 38 358 38 247 q 87 556 38 469 q 224 690 136 642 q 425 738 313 738 q 628 687 540 738 q 765 547 717 636 q 814 349 814 458 q 810 286 814 318 l 283 286 q 340 202 296 232 q 454 172 385 172 q 639 244 565 172 l 765 96 q 623 13 707 43 q 443 -17 539 -17 m 425 790 q 253 851 314 790 q 188 1028 192 913 l 342 1035 q 425 936 349 936 q 508 1035 504 936 l 661 1028 q 595 851 656 913 q 425 790 535 790 m 574 442 q 428 553 543 553 q 317 510 357 553 q 278 392 278 467 l 574 442 z "},"ě":{"ha":844,"x_min":38,"x_max":814,"o":"m 443 -17 q 231 30 322 -17 q 88 162 139 76 q 38 358 38 247 q 87 556 38 469 q 224 690 136 642 q 425 738 313 738 q 628 687 540 738 q 765 547 717 636 q 814 349 814 458 q 810 286 814 318 l 283 286 q 340 202 296 232 q 454 172 385 172 q 639 244 565 172 l 765 96 q 623 13 707 43 q 443 -17 539 -17 m 594 801 l 254 801 l 165 1032 l 335 1032 l 383 938 l 424 858 l 464 938 l 513 1032 l 682 1032 l 594 801 m 574 442 q 428 553 543 553 q 317 510 357 553 q 278 392 278 467 l 574 442 z "},"ê":{"ha":844,"x_min":38,"x_max":814,"o":"m 443 -17 q 231 30 322 -17 q 88 162 139 76 q 38 358 38 247 q 87 556 38 469 q 224 690 136 642 q 425 738 313 738 q 628 687 540 738 q 765 547 717 636 q 814 349 814 458 q 810 286 814 318 l 283 286 q 340 202 296 232 q 454 172 385 172 q 639 244 565 172 l 765 96 q 623 13 707 43 q 443 -17 539 -17 m 254 1032 l 594 1032 l 682 801 l 513 801 l 464 896 l 425 975 l 385 896 l 336 801 l 167 801 l 254 1032 m 574 442 q 428 553 543 553 q 317 510 357 553 q 278 392 278 467 l 574 442 z "},"ë":{"ha":844,"x_min":38,"x_max":814,"o":"m 443 -17 q 231 30 322 -17 q 88 162 139 76 q 38 358 38 247 q 87 556 38 469 q 224 690 136 642 q 425 738 313 738 q 628 687 540 738 q 765 547 717 636 q 814 349 814 458 q 810 286 814 318 l 283 286 q 340 202 296 232 q 454 172 385 172 q 639 244 565 172 l 765 96 q 623 13 707 43 q 443 -17 539 -17 m 574 800 q 488 833 521 800 q 454 917 454 867 q 488 1000 454 967 q 574 1033 522 1033 q 660 999 626 1033 q 693 917 693 965 q 659 833 693 867 q 574 800 625 800 m 275 800 q 189 833 222 800 q 156 917 156 867 q 190 1000 156 967 q 275 1033 224 1033 q 361 999 328 1033 q 394 917 394 965 q 360 833 394 867 q 275 800 326 800 m 574 442 q 428 553 543 553 q 317 510 357 553 q 278 392 278 467 l 574 442 z "},"ė":{"ha":844,"x_min":38,"x_max":814,"o":"m 443 -17 q 231 30 322 -17 q 88 162 139 76 q 38 358 38 247 q 87 556 38 469 q 224 690 136 642 q 425 738 313 738 q 628 687 540 738 q 765 547 717 636 q 814 349 814 458 q 810 286 814 318 l 283 286 q 340 202 296 232 q 454 172 385 172 q 639 244 565 172 l 765 96 q 623 13 707 43 q 443 -17 539 -17 m 425 790 q 322 828 363 790 q 282 925 282 867 q 322 1021 282 983 q 425 1058 363 1058 q 527 1021 488 1058 q 567 925 567 983 q 527 828 567 867 q 425 790 488 790 m 574 442 q 428 553 543 553 q 317 510 357 553 q 278 392 278 467 l 574 442 z "},"è":{"ha":844,"x_min":38,"x_max":814,"o":"m 443 -17 q 231 30 322 -17 q 88 162 139 76 q 38 358 38 247 q 87 556 38 469 q 224 690 136 642 q 425 738 313 738 q 628 687 540 738 q 765 547 717 636 q 814 349 814 458 q 810 286 814 318 l 283 286 q 340 202 296 232 q 454 172 385 172 q 639 244 565 172 l 765 96 q 623 13 707 43 q 443 -17 539 -17 m 207 982 l 406 1086 l 522 801 l 353 801 l 207 982 m 574 442 q 428 553 543 553 q 317 510 357 553 q 278 392 278 467 l 574 442 z "},"ē":{"ha":844,"x_min":38,"x_max":814,"o":"m 443 -17 q 231 30 322 -17 q 88 162 139 76 q 38 358 38 247 q 87 556 38 469 q 224 690 136 642 q 425 738 313 738 q 628 687 540 738 q 765 547 717 636 q 814 349 814 458 q 810 286 814 318 l 283 286 q 340 202 296 232 q 454 172 385 172 q 639 244 565 172 l 765 96 q 623 13 707 43 q 443 -17 539 -17 m 213 992 l 636 992 l 636 825 l 213 825 l 213 992 m 574 442 q 428 553 543 553 q 317 510 357 553 q 278 392 278 467 l 574 442 z "},"ę":{"ha":844,"x_min":38,"x_max":814,"o":"m 554 -300 q 442 -265 485 -300 q 400 -169 400 -231 q 479 -15 400 -86 q 443 -17 465 -17 q 231 30 322 -17 q 88 162 139 76 q 38 358 38 247 q 87 556 38 469 q 224 690 136 642 q 425 738 313 738 q 628 687 540 738 q 765 547 717 636 q 814 349 814 458 q 810 286 814 318 l 283 286 q 340 202 296 232 q 454 172 385 172 q 553 191 507 172 q 638 244 600 210 l 764 99 q 664 18 725 61 q 576 -54 604 -25 q 549 -122 549 -83 q 596 -164 549 -164 q 650 -144 625 -164 l 713 -244 q 637 -287 675 -274 q 554 -300 599 -300 m 574 442 q 428 553 543 553 q 317 510 357 553 q 278 392 278 467 l 574 442 z "},"ẽ":{"ha":844,"x_min":38,"x_max":814,"o":"m 443 -17 q 231 30 322 -17 q 88 162 139 76 q 38 358 38 247 q 87 556 38 469 q 224 690 136 642 q 425 738 313 738 q 628 687 540 738 q 765 547 717 636 q 814 349 814 458 q 810 286 814 318 l 283 286 q 340 202 296 232 q 454 172 385 172 q 639 244 565 172 l 765 96 q 623 13 707 43 q 443 -17 539 -17 m 164 839 q 219 974 178 926 q 325 1021 261 1021 q 384 1012 358 1021 q 443 986 410 1003 q 499 967 479 967 q 542 1015 533 967 l 683 993 q 628 858 671 906 q 522 810 586 810 q 463 819 489 810 q 404 844 438 828 q 350 864 368 864 q 307 817 315 864 l 164 839 m 574 442 q 428 553 543 553 q 317 510 357 553 q 278 392 278 467 l 574 442 z "},"ə":{"ha":844,"x_min":31,"x_max":807,"o":"m 401 738 q 614 691 522 738 q 756 559 706 644 q 807 363 807 474 q 758 165 807 251 q 620 31 708 79 q 419 -17 532 -17 q 216 34 304 -17 q 79 174 128 85 q 31 372 31 263 q 35 435 31 404 l 561 435 q 504 519 549 489 q 390 549 460 549 q 206 476 279 549 l 79 625 q 222 708 138 678 q 401 738 306 738 m 271 279 q 417 168 301 168 q 527 211 488 168 q 567 329 567 254 l 271 279 z "},"f":{"ha":588,"x_min":32,"x_max":572,"o":"m 153 783 q 226 998 153 924 q 440 1072 300 1072 l 572 1072 l 572 858 l 503 858 q 432 837 454 858 q 410 767 410 815 l 410 721 l 556 721 l 556 504 l 414 504 l 414 0 l 153 0 l 153 504 l 32 504 l 32 721 l 153 721 l 153 783 z "},"g":{"ha":942,"x_min":46,"x_max":858,"o":"m 444 -349 q 238 -309 329 -349 q 85 -193 146 -269 l 224 -49 q 310 -117 257 -93 q 426 -142 364 -142 q 556 -95 511 -142 q 600 40 600 -49 l 600 172 q 499 49 565 92 q 342 6 432 6 q 124 101 203 6 q 46 365 46 197 q 124 638 46 540 q 342 735 203 735 q 506 688 438 735 q 607 551 574 640 l 607 721 l 858 721 l 858 35 q 808 -169 858 -83 q 665 -302 758 -256 q 444 -349 571 -349 m 454 214 q 563 256 522 214 q 603 365 603 297 q 562 476 603 433 q 454 518 521 518 q 347 476 388 518 q 306 365 306 433 q 347 256 306 297 q 454 214 389 214 z "},"ğ":{"ha":942,"x_min":46,"x_max":858,"o":"m 444 -349 q 238 -309 329 -349 q 85 -193 146 -269 l 224 -49 q 310 -117 257 -93 q 426 -142 364 -142 q 556 -95 511 -142 q 600 40 600 -49 l 600 172 q 499 49 565 92 q 342 6 432 6 q 124 101 203 6 q 46 365 46 197 q 124 638 46 540 q 342 735 203 735 q 506 688 438 735 q 607 551 574 640 l 607 721 l 858 721 l 858 35 q 808 -169 858 -83 q 665 -302 758 -256 q 444 -349 571 -349 m 454 214 q 563 256 522 214 q 603 365 603 297 q 562 476 603 433 q 454 518 521 518 q 347 476 388 518 q 306 365 306 433 q 347 256 306 297 q 454 214 389 214 m 453 790 q 281 851 342 790 q 217 1028 221 913 l 369 1035 q 453 936 376 936 q 536 1035 532 936 l 689 1028 q 624 851 685 913 q 453 790 564 790 z "},"ǧ":{"ha":942,"x_min":46,"x_max":858,"o":"m 444 -349 q 238 -309 329 -349 q 85 -193 146 -269 l 224 -49 q 310 -117 257 -93 q 426 -142 364 -142 q 556 -95 511 -142 q 600 40 600 -49 l 600 172 q 499 49 565 92 q 342 6 432 6 q 124 101 203 6 q 46 365 46 197 q 124 638 46 540 q 342 735 203 735 q 506 688 438 735 q 607 551 574 640 l 607 721 l 858 721 l 858 35 q 808 -169 858 -83 q 665 -302 758 -256 q 444 -349 571 -349 m 454 214 q 563 256 522 214 q 603 365 603 297 q 562 476 603 433 q 454 518 521 518 q 347 476 388 518 q 306 365 306 433 q 347 256 306 297 q 454 214 389 214 m 624 801 l 283 801 l 194 1032 l 364 1032 l 413 938 l 453 858 l 493 938 l 542 1032 l 711 1032 l 624 801 z "},"ĝ":{"ha":942,"x_min":46,"x_max":858,"o":"m 444 -349 q 238 -309 329 -349 q 85 -193 146 -269 l 224 -49 q 310 -117 257 -93 q 426 -142 364 -142 q 556 -95 511 -142 q 600 40 600 -49 l 600 172 q 499 49 565 92 q 342 6 432 6 q 124 101 203 6 q 46 365 46 197 q 124 638 46 540 q 342 735 203 735 q 506 688 438 735 q 607 551 574 640 l 607 721 l 858 721 l 858 35 q 808 -169 858 -83 q 665 -302 758 -256 q 444 -349 571 -349 m 454 214 q 563 256 522 214 q 603 365 603 297 q 562 476 603 433 q 454 518 521 518 q 347 476 388 518 q 306 365 306 433 q 347 256 306 297 q 454 214 389 214 m 282 1032 l 622 1032 l 711 801 l 540 801 l 493 896 l 453 975 l 413 896 l 364 801 l 194 801 l 282 1032 z "},"ģ":{"ha":942,"x_min":46,"x_max":858,"o":"m 444 -349 q 238 -309 329 -349 q 85 -193 146 -269 l 224 -49 q 310 -117 257 -93 q 426 -142 364 -142 q 556 -95 511 -142 q 600 40 600 -49 l 600 172 q 499 49 565 92 q 342 6 432 6 q 124 101 203 6 q 46 365 46 197 q 124 638 46 540 q 342 735 203 735 q 506 688 438 735 q 607 551 574 640 l 607 721 l 858 721 l 858 35 q 808 -169 858 -83 q 665 -302 758 -256 q 444 -349 571 -349 m 454 214 q 563 256 522 214 q 603 365 603 297 q 562 476 603 433 q 454 518 521 518 q 347 476 388 518 q 306 365 306 433 q 347 256 306 297 q 454 214 389 214 m 557 801 l 329 801 l 403 1076 l 575 1076 l 557 801 z "},"ġ":{"ha":942,"x_min":46,"x_max":858,"o":"m 444 -349 q 238 -309 329 -349 q 85 -193 146 -269 l 224 -49 q 310 -117 257 -93 q 426 -142 364 -142 q 556 -95 511 -142 q 600 40 600 -49 l 600 172 q 499 49 565 92 q 342 6 432 6 q 124 101 203 6 q 46 365 46 197 q 124 638 46 540 q 342 735 203 735 q 506 688 438 735 q 607 551 574 640 l 607 721 l 858 721 l 858 35 q 808 -169 858 -83 q 665 -302 758 -256 q 444 -349 571 -349 m 454 214 q 563 256 522 214 q 603 365 603 297 q 562 476 603 433 q 454 518 521 518 q 347 476 388 518 q 306 365 306 433 q 347 256 306 297 q 454 214 389 214 m 453 790 q 351 828 390 790 q 311 925 311 867 q 351 1021 311 983 q 453 1058 390 1058 q 555 1021 515 1058 q 594 925 594 983 q 555 828 594 867 q 453 790 515 790 z "},"ḡ":{"ha":942,"x_min":46,"x_max":858,"o":"m 444 -349 q 238 -309 329 -349 q 85 -193 146 -269 l 224 -49 q 310 -117 257 -93 q 426 -142 364 -142 q 556 -95 511 -142 q 600 40 600 -49 l 600 172 q 499 49 565 92 q 342 6 432 6 q 124 101 203 6 q 46 365 46 197 q 124 638 46 540 q 342 735 203 735 q 506 688 438 735 q 607 551 574 640 l 607 721 l 858 721 l 858 35 q 808 -169 858 -83 q 665 -302 758 -256 q 444 -349 571 -349 m 454 214 q 563 256 522 214 q 603 365 603 297 q 562 476 603 433 q 454 518 521 518 q 347 476 388 518 q 306 365 306 433 q 347 256 306 297 q 454 214 389 214 m 240 992 l 665 992 l 665 825 l 240 825 l 240 992 z "},"h":{"ha":890,"x_min":83,"x_max":819,"o":"m 83 972 l 344 972 l 344 567 q 431 689 371 646 q 575 732 490 732 q 756 656 692 732 q 819 444 819 581 l 819 0 l 558 0 l 558 376 q 530 469 558 436 q 451 503 501 503 q 372 469 400 503 q 344 376 344 436 l 344 0 l 83 0 l 83 972 z "},"ħ":{"ha":900,"x_min":-11,"x_max":829,"o":"m 93 731 l -11 731 l -11 901 l 93 901 l 93 972 l 354 972 l 354 901 l 542 901 l 542 742 l 354 742 l 354 542 q 440 664 381 621 q 586 707 500 707 q 766 632 703 707 q 829 419 829 557 l 829 0 l 568 0 l 568 351 q 540 444 568 411 q 461 478 513 478 q 382 444 410 478 q 354 351 354 411 l 354 0 l 93 0 l 93 731 z "},"ĥ":{"ha":890,"x_min":-57,"x_max":819,"o":"m 83 972 l 344 972 l 344 567 q 431 689 371 646 q 575 732 490 732 q 756 656 692 732 q 819 444 819 581 l 819 0 l 558 0 l 558 376 q 530 469 558 436 q 451 503 501 503 q 372 469 400 503 q 344 376 344 436 l 344 0 l 83 0 l 83 972 m 35 1272 l 390 1272 l 483 1049 l 306 1049 l 254 1138 l 213 1217 l 171 1138 l 119 1049 l -57 1049 l 35 1272 z "},"i":{"ha":426,"x_min":61,"x_max":365,"o":"m 83 721 l 344 721 l 344 0 l 83 0 l 83 721 m 214 792 q 103 833 144 792 q 61 939 61 874 q 103 1045 61 1004 q 214 1086 144 1086 q 324 1045 283 1086 q 365 939 365 1004 q 324 833 365 874 q 214 792 282 792 z "},"ı":{"ha":426,"x_min":83,"x_max":344,"o":"m 83 721 l 344 721 l 344 0 l 83 0 l 83 721 z "},"í":{"ha":426,"x_min":83,"x_max":424,"o":"m 83 721 l 344 721 l 344 0 l 83 0 l 83 721 m 231 1086 l 424 981 l 288 801 l 124 801 l 231 1086 z "},"ĭ":{"ha":426,"x_min":-10,"x_max":435,"o":"m 83 721 l 344 721 l 344 0 l 83 0 l 83 721 m 213 790 q 51 851 108 790 q -10 1028 -6 913 l 138 1035 q 213 935 139 935 q 288 1035 286 935 l 435 1028 q 374 851 432 913 q 213 790 317 790 z "},"î":{"ha":426,"x_min":-31,"x_max":457,"o":"m 83 721 l 344 721 l 344 0 l 83 0 l 83 721 m 49 1031 l 378 1031 l 457 801 l 292 801 l 247 897 l 214 971 l 181 897 l 135 801 l -31 801 l 49 1031 z "},"ï":{"ha":426,"x_min":-42,"x_max":468,"o":"m 83 721 l 344 721 l 344 0 l 83 0 l 83 721 m 354 800 q 271 833 303 800 q 239 915 239 867 q 272 998 239 965 q 354 1031 304 1031 q 436 997 404 1031 q 468 915 468 964 q 436 833 468 867 q 354 800 404 800 m 72 800 q -10 833 22 800 q -42 915 -42 867 q -10 998 -42 965 q 72 1031 22 1031 q 155 997 122 1031 q 188 915 188 964 q 155 833 188 867 q 72 800 122 800 z "},"ị":{"ha":426,"x_min":61,"x_max":365,"o":"m 83 721 l 344 721 l 344 0 l 83 0 l 83 721 m 214 792 q 103 833 144 792 q 61 939 61 874 q 103 1045 61 1004 q 214 1086 144 1086 q 324 1045 283 1086 q 365 939 365 1004 q 324 833 365 874 q 214 792 282 792 m 213 -354 q 110 -316 150 -354 q 71 -219 71 -278 q 110 -124 71 -161 q 213 -86 150 -86 q 315 -124 275 -86 q 354 -219 354 -161 q 315 -316 354 -278 q 213 -354 275 -354 z "},"ì":{"ha":426,"x_min":4,"x_max":344,"o":"m 83 721 l 344 721 l 344 0 l 83 0 l 83 721 m 4 981 l 197 1086 l 303 801 l 139 801 l 4 981 z "},"ī":{"ha":426,"x_min":14,"x_max":413,"o":"m 83 721 l 344 721 l 344 0 l 83 0 l 83 721 m 14 989 l 413 989 l 413 825 l 14 825 l 14 989 z "},"į":{"ha":426,"x_min":61,"x_max":386,"o":"m 83 721 l 344 721 l 344 0 q 265 -62 294 -28 q 235 -125 235 -96 q 246 -154 235 -143 q 275 -165 257 -165 q 328 -146 300 -165 l 386 -243 q 238 -299 318 -299 q 132 -264 172 -299 q 92 -169 92 -229 q 206 0 92 -68 l 83 0 l 83 721 m 214 792 q 103 833 144 792 q 61 939 61 874 q 103 1045 61 1004 q 214 1086 144 1086 q 324 1045 283 1086 q 365 939 365 1004 q 324 833 365 874 q 214 792 282 792 z "},"ĩ":{"ha":426,"x_min":-31,"x_max":457,"o":"m 83 721 l 344 721 l 344 0 l 83 0 l 83 721 m -31 840 q 22 973 -18 926 q 122 1019 61 1019 q 178 1010 154 1019 q 233 983 203 1000 q 282 964 268 964 q 309 976 300 964 q 321 1014 318 989 l 457 990 q 407 857 446 904 q 306 810 368 810 q 249 819 274 810 q 194 846 225 829 q 146 865 161 865 q 108 817 114 865 l -31 840 z "},"ĳ":{"ha":864,"x_min":61,"x_max":803,"o":"m 83 721 l 344 721 l 344 0 l 83 0 l 83 721 m 214 792 q 103 833 144 792 q 61 939 61 874 q 103 1045 61 1004 q 214 1086 144 1086 q 324 1045 283 1086 q 365 939 365 1004 q 324 833 365 874 q 214 792 282 792 m 379 -108 l 429 -108 q 499 -86 478 -108 q 521 -17 521 -64 l 521 721 l 782 721 l 782 -49 q 712 -267 782 -197 q 494 -336 642 -336 l 379 -336 l 379 -108 m 651 792 q 540 833 582 792 q 499 939 499 874 q 540 1045 499 1004 q 651 1086 582 1086 q 762 1045 721 1086 q 803 939 803 1004 q 761 833 803 874 q 651 792 719 792 z "},"j":{"ha":431,"x_min":-54,"x_max":369,"o":"m -54 -108 l -4 -108 q 66 -87 44 -108 q 88 -17 88 -65 l 88 721 l 349 721 l 349 -49 q 279 -267 349 -199 q 61 -336 210 -336 l -54 -336 l -54 -108 m 218 792 q 107 833 149 792 q 65 939 65 874 q 107 1045 65 1004 q 218 1086 149 1086 q 328 1045 288 1086 q 369 939 369 1004 q 328 833 369 874 q 218 792 286 792 z "},"ȷ":{"ha":431,"x_min":-54,"x_max":349,"o":"m -54 -108 l -4 -108 q 66 -87 44 -108 q 88 -17 88 -65 l 88 721 l 349 721 l 349 -49 q 279 -267 349 -199 q 61 -336 210 -336 l -54 -336 l -54 -108 z "},"ĵ":{"ha":431,"x_min":-54,"x_max":461,"o":"m -54 -108 l -4 -108 q 66 -87 44 -108 q 88 -17 88 -65 l 88 721 l 349 721 l 349 -49 q 279 -267 349 -199 q 61 -336 210 -336 l -54 -336 l -54 -108 m 54 1031 l 382 1031 l 461 801 l 297 801 l 251 897 l 218 969 l 185 897 l 139 801 l -25 801 l 54 1031 z "},"k":{"ha":886,"x_min":83,"x_max":881,"o":"m 83 972 l 344 972 l 344 356 l 546 721 l 856 721 l 633 369 l 881 0 l 572 0 l 428 229 l 344 128 l 344 0 l 83 0 l 83 972 z "},"ķ":{"ha":886,"x_min":83,"x_max":881,"o":"m 83 972 l 344 972 l 344 356 l 546 721 l 856 721 l 633 369 l 881 0 l 572 0 l 428 229 l 344 128 l 344 0 l 83 0 l 83 972 m 333 -81 l 561 -81 l 488 -356 l 315 -356 l 333 -81 z "},"ĸ":{"ha":886,"x_min":83,"x_max":881,"o":"m 83 721 l 343 721 l 343 353 l 546 721 l 856 721 l 633 369 l 881 0 l 572 0 l 428 229 l 343 126 l 343 0 l 83 0 l 83 721 z "},"l":{"ha":426,"x_min":83,"x_max":344,"o":"m 83 972 l 344 972 l 344 0 l 83 0 l 83 972 z "},"ĺ":{"ha":426,"x_min":83,"x_max":449,"o":"m 83 972 l 344 972 l 344 0 l 83 0 l 83 972 m 240 1326 l 449 1221 l 294 1049 l 118 1049 l 240 1326 z "},"ľ":{"ha":554,"x_min":83,"x_max":657,"o":"m 83 972 l 344 972 l 344 0 l 83 0 l 83 972 m 443 972 l 657 972 l 574 678 l 424 678 l 443 972 z "},"ļ":{"ha":426,"x_min":82,"x_max":344,"o":"m 83 972 l 344 972 l 344 0 l 83 0 l 83 972 m 100 -81 l 328 -81 l 254 -356 l 82 -356 l 100 -81 z "},"ŀ":{"ha":671,"x_min":83,"x_max":667,"o":"m 83 972 l 344 972 l 344 0 l 83 0 l 83 972 m 526 315 q 425 353 464 315 q 386 450 386 390 q 425 547 386 510 q 526 585 464 585 q 628 547 589 585 q 667 450 667 510 q 628 353 667 390 q 526 315 589 315 z "},"ł":{"ha":549,"x_min":32,"x_max":517,"o":"m 143 328 l 32 290 l 32 472 l 143 510 l 143 972 l 404 972 l 404 599 l 517 636 l 517 454 l 404 417 l 404 0 l 143 0 l 143 328 z "},"m":{"ha":1344,"x_min":83,"x_max":1274,"o":"m 83 721 l 336 721 l 336 567 q 422 689 363 646 q 568 732 482 732 q 715 687 656 732 q 797 558 774 642 q 883 687 824 642 q 1029 732 942 732 q 1209 656 1144 732 q 1274 444 1274 579 l 1274 0 l 1013 0 l 1013 376 q 985 470 1013 438 q 908 503 958 503 q 833 469 860 503 q 806 376 806 436 l 806 0 l 551 0 l 551 376 q 524 470 551 438 q 447 503 497 503 q 372 469 399 503 q 344 376 344 436 l 344 0 l 83 0 l 83 721 z "},"n":{"ha":890,"x_min":83,"x_max":819,"o":"m 83 721 l 336 721 l 336 565 q 424 689 364 646 q 571 732 483 732 q 754 656 689 732 q 819 444 819 581 l 819 0 l 558 0 l 558 376 q 530 469 558 436 q 451 503 501 503 q 372 469 400 503 q 344 376 344 436 l 344 0 l 83 0 l 83 721 z "},"ń":{"ha":890,"x_min":83,"x_max":819,"o":"m 83 721 l 336 721 l 336 565 q 424 689 364 646 q 571 732 483 732 q 754 656 689 732 q 819 444 819 581 l 819 0 l 558 0 l 558 376 q 530 469 558 436 q 451 503 501 503 q 372 469 400 503 q 344 376 344 436 l 344 0 l 83 0 l 83 721 m 468 1086 l 667 982 l 521 801 l 351 801 l 468 1086 z "},"ŉ":{"ha":890,"x_min":-157,"x_max":819,"o":"m 83 721 l 336 721 l 336 565 q 424 689 364 646 q 571 732 483 732 q 754 656 689 732 q 819 444 819 581 l 819 0 l 558 0 l 558 376 q 530 469 558 436 q 451 503 501 503 q 372 469 400 503 q 344 376 344 436 l 344 0 l 83 0 l 83 721 m -129 972 l 83 972 l -12 654 l -157 654 l -129 972 z "},"ň":{"ha":890,"x_min":83,"x_max":819,"o":"m 83 721 l 336 721 l 336 565 q 424 689 364 646 q 571 732 483 732 q 754 656 689 732 q 819 444 819 581 l 819 0 l 558 0 l 558 376 q 530 469 558 436 q 451 503 501 503 q 372 469 400 503 q 344 376 344 436 l 344 0 l 83 0 l 83 721 m 619 801 l 279 801 l 190 1032 l 360 1032 l 408 938 l 449 858 l 489 938 l 538 1032 l 707 1032 l 619 801 z "},"ņ":{"ha":890,"x_min":83,"x_max":819,"o":"m 83 721 l 336 721 l 336 565 q 424 689 364 646 q 571 732 483 732 q 754 656 689 732 q 819 444 819 581 l 819 0 l 558 0 l 558 376 q 530 469 558 436 q 451 503 501 503 q 372 469 400 503 q 344 376 344 436 l 344 0 l 83 0 l 83 721 m 338 -81 l 565 -81 l 492 -356 l 319 -356 l 338 -81 z "},"ñ":{"ha":890,"x_min":83,"x_max":819,"o":"m 83 721 l 336 721 l 336 565 q 424 689 364 646 q 571 732 483 732 q 754 656 689 732 q 819 444 819 581 l 819 0 l 558 0 l 558 376 q 530 469 558 436 q 451 503 501 503 q 372 469 400 503 q 344 376 344 436 l 344 0 l 83 0 l 83 721 m 189 839 q 244 974 203 926 q 350 1021 286 1021 q 409 1012 383 1021 q 468 986 435 1003 q 522 967 504 967 q 551 978 540 967 q 567 1015 561 989 l 708 993 q 653 858 696 906 q 547 810 611 810 q 488 819 514 810 q 429 844 463 828 q 374 864 393 864 q 331 817 339 864 l 189 839 z "},"ŋ":{"ha":890,"x_min":83,"x_max":819,"o":"m 418 -108 l 465 -108 q 537 -87 515 -108 q 558 -17 558 -65 l 558 376 q 530 469 558 436 q 451 503 501 503 q 372 469 400 503 q 344 376 344 436 l 344 0 l 83 0 l 83 721 l 336 721 l 336 565 q 424 689 364 646 q 571 732 483 732 q 754 656 689 732 q 819 444 819 581 l 819 -36 q 747 -263 819 -190 q 521 -336 674 -336 l 418 -336 l 418 -108 z "},"o":{"ha":894,"x_min":36,"x_max":857,"o":"m 447 -17 q 233 31 326 -17 q 88 165 140 79 q 36 360 36 250 q 88 556 36 469 q 233 690 140 642 q 447 738 326 738 q 661 690 568 738 q 806 556 754 642 q 857 360 857 469 q 806 165 857 250 q 661 31 754 79 q 447 -17 568 -17 m 447 207 q 557 249 515 207 q 599 360 599 292 q 557 472 599 429 q 447 514 515 514 q 338 472 379 514 q 296 360 296 429 q 338 249 296 292 q 447 207 379 207 z "},"ó":{"ha":894,"x_min":36,"x_max":857,"o":"m 447 -17 q 233 31 326 -17 q 88 165 140 79 q 36 360 36 250 q 88 556 36 469 q 233 690 140 642 q 447 738 326 738 q 661 690 568 738 q 806 556 754 642 q 857 360 857 469 q 806 165 857 250 q 661 31 754 79 q 447 -17 568 -17 m 447 207 q 557 249 515 207 q 599 360 599 292 q 557 472 599 429 q 447 514 515 514 q 338 472 379 514 q 296 360 296 429 q 338 249 296 292 q 447 207 379 207 m 465 1086 l 665 982 l 518 801 l 350 801 l 465 1086 z "},"ŏ":{"ha":894,"x_min":36,"x_max":857,"o":"m 447 -17 q 233 31 326 -17 q 88 165 140 79 q 36 360 36 250 q 88 556 36 469 q 233 690 140 642 q 447 738 326 738 q 661 690 568 738 q 806 556 754 642 q 857 360 857 469 q 806 165 857 250 q 661 31 754 79 q 447 -17 568 -17 m 447 207 q 557 249 515 207 q 599 360 599 292 q 557 472 599 429 q 447 514 515 514 q 338 472 379 514 q 296 360 296 429 q 338 249 296 292 q 447 207 379 207 m 447 790 q 276 851 336 790 q 211 1028 215 913 l 364 1035 q 447 936 371 936 q 531 1035 526 936 l 683 1028 q 619 851 679 913 q 447 790 558 790 z "},"ô":{"ha":894,"x_min":36,"x_max":857,"o":"m 447 -17 q 233 31 326 -17 q 88 165 140 79 q 36 360 36 250 q 88 556 36 469 q 233 690 140 642 q 447 738 326 738 q 661 690 568 738 q 806 556 754 642 q 857 360 857 469 q 806 165 857 250 q 661 31 754 79 q 447 -17 568 -17 m 447 207 q 557 249 515 207 q 599 360 599 292 q 557 472 599 429 q 447 514 515 514 q 338 472 379 514 q 296 360 296 429 q 338 249 296 292 q 447 207 379 207 m 276 1032 l 617 1032 l 706 801 l 535 801 l 488 896 l 447 975 l 407 896 l 358 801 l 189 801 l 276 1032 z "},"ö":{"ha":894,"x_min":36,"x_max":857,"o":"m 447 -17 q 233 31 326 -17 q 88 165 140 79 q 36 360 36 250 q 88 556 36 469 q 233 690 140 642 q 447 738 326 738 q 661 690 568 738 q 806 556 754 642 q 857 360 857 469 q 806 165 857 250 q 661 31 754 79 q 447 -17 568 -17 m 447 207 q 557 249 515 207 q 599 360 599 292 q 557 472 599 429 q 447 514 515 514 q 338 472 379 514 q 296 360 296 429 q 338 249 296 292 q 447 207 379 207 m 596 800 q 510 833 543 800 q 476 917 476 867 q 510 1000 476 967 q 596 1033 544 1033 q 682 999 649 1033 q 715 917 715 965 q 681 833 715 867 q 596 800 647 800 m 297 800 q 211 833 244 800 q 178 917 178 867 q 212 1000 178 967 q 297 1033 246 1033 q 383 999 350 1033 q 417 917 417 965 q 383 833 417 867 q 297 800 349 800 z "},"ọ":{"ha":894,"x_min":36,"x_max":857,"o":"m 447 -17 q 233 31 326 -17 q 88 165 140 79 q 36 360 36 250 q 88 556 36 469 q 233 690 140 642 q 447 738 326 738 q 661 690 568 738 q 806 556 754 642 q 857 360 857 469 q 806 165 857 250 q 661 31 754 79 q 447 -17 568 -17 m 447 207 q 557 249 515 207 q 599 360 599 292 q 557 472 599 429 q 447 514 515 514 q 338 472 379 514 q 296 360 296 429 q 338 249 296 292 q 447 207 379 207 m 447 -354 q 345 -316 385 -354 q 306 -219 306 -278 q 345 -124 306 -161 q 447 -86 385 -86 q 549 -124 510 -86 q 589 -219 589 -161 q 549 -316 589 -278 q 447 -354 510 -354 z "},"ò":{"ha":894,"x_min":36,"x_max":857,"o":"m 447 -17 q 233 31 326 -17 q 88 165 140 79 q 36 360 36 250 q 88 556 36 469 q 233 690 140 642 q 447 738 326 738 q 661 690 568 738 q 806 556 754 642 q 857 360 857 469 q 806 165 857 250 q 661 31 754 79 q 447 -17 568 -17 m 447 207 q 557 249 515 207 q 599 360 599 292 q 557 472 599 429 q 447 514 515 514 q 338 472 379 514 q 296 360 296 429 q 338 249 296 292 q 447 207 379 207 m 229 982 l 429 1086 l 544 801 l 376 801 l 229 982 z "},"ő":{"ha":894,"x_min":36,"x_max":857,"o":"m 447 -17 q 233 31 326 -17 q 88 165 140 79 q 36 360 36 250 q 88 556 36 469 q 233 690 140 642 q 447 738 326 738 q 661 690 568 738 q 806 556 754 642 q 857 360 857 469 q 806 165 857 250 q 661 31 754 79 q 447 -17 568 -17 m 447 207 q 557 249 515 207 q 599 360 599 292 q 557 472 599 429 q 447 514 515 514 q 338 472 379 514 q 296 360 296 429 q 338 249 296 292 q 447 207 379 207 m 669 1110 l 824 981 l 661 801 l 472 801 l 669 1110 m 364 1110 l 533 997 l 403 801 l 225 801 l 364 1110 z "},"ō":{"ha":894,"x_min":36,"x_max":857,"o":"m 447 -17 q 233 31 326 -17 q 88 165 140 79 q 36 360 36 250 q 88 556 36 469 q 233 690 140 642 q 447 738 326 738 q 661 690 568 738 q 806 556 754 642 q 857 360 857 469 q 806 165 857 250 q 661 31 754 79 q 447 -17 568 -17 m 447 207 q 557 249 515 207 q 599 360 599 292 q 557 472 599 429 q 447 514 515 514 q 338 472 379 514 q 296 360 296 429 q 338 249 296 292 q 447 207 379 207 m 235 992 l 660 992 l 660 825 l 235 825 l 235 992 z "},"ǫ":{"ha":894,"x_min":36,"x_max":857,"o":"m 535 -300 q 415 -265 461 -300 q 368 -169 368 -231 q 450 -17 368 -85 l 447 -17 q 233 31 326 -17 q 88 165 140 79 q 36 360 36 250 q 88 556 36 469 q 233 690 140 642 q 447 738 326 738 q 661 690 568 738 q 806 556 754 642 q 857 360 857 469 q 826 203 857 268 q 751 98 794 138 q 642 13 708 58 q 556 -56 582 -28 q 529 -119 529 -83 q 572 -164 529 -164 q 629 -143 600 -164 l 693 -244 q 615 -287 653 -274 q 535 -300 578 -300 m 447 207 q 557 249 515 207 q 599 360 599 292 q 557 472 599 429 q 447 514 515 514 q 338 472 379 514 q 296 360 296 429 q 338 249 296 292 q 447 207 379 207 z "},"ø":{"ha":911,"x_min":44,"x_max":865,"o":"m 456 -17 q 297 8 371 -17 l 219 -97 l 81 7 l 149 97 q 72 215 99 147 q 44 360 44 282 q 97 556 44 469 q 242 690 149 642 q 456 738 335 738 q 613 713 540 738 l 690 817 l 831 714 l 761 622 q 838 505 811 572 q 865 360 865 438 q 814 165 865 250 q 669 31 763 79 q 456 -17 576 -17 m 456 207 q 565 249 524 207 q 607 360 607 292 q 565 472 607 429 q 456 514 524 514 q 346 472 388 514 q 304 360 304 429 q 346 249 304 292 q 456 207 388 207 z "},"ǿ":{"ha":911,"x_min":44,"x_max":865,"o":"m 456 -17 q 297 8 371 -17 l 219 -97 l 81 7 l 149 97 q 72 215 99 147 q 44 360 44 282 q 97 556 44 469 q 242 690 149 642 q 456 738 335 738 q 613 713 540 738 l 690 817 l 831 714 l 761 622 q 838 505 811 572 q 865 360 865 438 q 814 165 865 250 q 669 31 763 79 q 456 -17 576 -17 m 456 207 q 565 249 524 207 q 607 360 607 292 q 565 472 607 429 q 456 514 524 514 q 346 472 388 514 q 304 360 304 429 q 346 249 304 292 q 456 207 388 207 m 474 1086 l 674 982 l 526 801 l 358 801 l 474 1086 z "},"õ":{"ha":894,"x_min":36,"x_max":857,"o":"m 447 -17 q 233 31 326 -17 q 88 165 140 79 q 36 360 36 250 q 88 556 36 469 q 233 690 140 642 q 447 738 326 738 q 661 690 568 738 q 806 556 754 642 q 857 360 857 469 q 806 165 857 250 q 661 31 754 79 q 447 -17 568 -17 m 447 207 q 557 249 515 207 q 599 360 599 292 q 557 472 599 429 q 447 514 515 514 q 338 472 379 514 q 296 360 296 429 q 338 249 296 292 q 447 207 379 207 m 188 839 q 243 974 201 926 q 347 1021 285 1021 q 406 1012 381 1021 q 465 986 432 1003 q 521 967 501 967 q 564 1015 554 967 l 706 993 q 651 858 693 906 q 544 810 608 810 q 487 819 513 810 q 428 844 461 828 q 398 858 413 851 q 372 864 383 864 q 329 817 339 864 l 188 839 z "},"œ":{"ha":1372,"x_min":36,"x_max":1342,"o":"m 399 -17 q 209 31 292 -17 q 81 165 126 79 q 36 360 36 250 q 81 556 36 469 q 209 690 126 642 q 399 738 292 738 q 583 688 503 738 q 700 540 663 639 q 814 688 738 639 q 993 738 890 738 q 1178 689 1100 738 q 1299 554 1257 640 q 1342 361 1342 468 q 1336 286 1342 336 l 833 286 q 887 203 844 233 q 994 172 929 172 q 1167 246 1093 172 l 1293 96 q 1008 -17 1178 -17 q 826 28 906 -17 q 700 163 746 74 q 576 28 656 72 q 399 -17 497 -17 m 443 207 q 551 249 508 207 q 593 360 593 292 q 551 472 593 429 q 443 514 508 514 q 337 471 378 514 q 296 360 296 428 q 337 249 296 292 q 443 207 378 207 m 1103 440 q 1058 524 1092 494 q 971 553 1025 553 q 867 510 904 553 q 829 392 829 467 l 1103 440 z "},"p":{"ha":947,"x_min":83,"x_max":901,"o":"m 604 -17 q 447 26 513 -17 q 344 151 381 69 l 344 -250 l 83 -250 l 83 721 l 333 721 l 333 540 q 436 685 367 635 q 604 735 506 735 q 822 635 743 735 q 901 360 901 536 q 822 83 901 183 q 604 -17 743 -17 m 490 207 q 601 249 558 207 q 643 360 643 292 q 601 472 643 429 q 490 514 560 514 q 381 472 422 514 q 339 360 339 429 q 381 249 339 292 q 490 207 422 207 z "},"þ":{"ha":947,"x_min":83,"x_max":901,"o":"m 604 -15 q 447 28 514 -15 q 344 151 381 71 l 344 -250 l 83 -250 l 83 972 l 344 972 l 344 568 q 447 692 381 649 q 604 735 514 735 q 822 635 743 735 q 901 360 901 535 q 822 84 901 183 q 604 -15 743 -15 m 490 207 q 601 249 558 207 q 643 360 643 292 q 601 472 643 429 q 490 514 558 514 q 381 471 422 514 q 339 360 339 428 q 381 249 339 292 q 490 207 422 207 z "},"q":{"ha":947,"x_min":46,"x_max":865,"o":"m 344 -15 q 125 84 204 -15 q 46 360 46 183 q 125 635 46 536 q 344 735 204 735 q 512 685 443 735 q 614 540 581 635 l 614 721 l 865 721 l 865 -250 l 604 -250 l 604 154 q 502 28 568 72 q 344 -15 436 -15 m 457 207 q 567 249 525 207 q 608 360 608 292 q 567 472 608 429 q 457 514 525 514 q 347 472 389 514 q 306 360 306 429 q 347 249 306 292 q 457 207 389 207 z "},"r":{"ha":650,"x_min":83,"x_max":617,"o":"m 83 721 l 339 721 l 339 510 q 422 667 361 614 q 583 721 483 721 l 617 721 l 617 458 l 526 458 q 389 414 433 458 q 344 275 344 369 l 344 0 l 83 0 l 83 721 z "},"ŕ":{"ha":650,"x_min":83,"x_max":617,"o":"m 83 721 l 339 721 l 339 510 q 422 667 361 614 q 583 721 483 721 l 617 721 l 617 458 l 526 458 q 389 414 433 458 q 344 275 344 369 l 344 0 l 83 0 l 83 721 m 365 1086 l 565 982 l 418 801 l 250 801 l 365 1086 z "},"ř":{"ha":650,"x_min":83,"x_max":617,"o":"m 83 721 l 339 721 l 339 510 q 422 667 361 614 q 583 721 483 721 l 617 721 l 617 458 l 526 458 q 389 414 433 458 q 344 275 344 369 l 344 0 l 83 0 l 83 721 m 518 801 l 178 801 l 89 1032 l 258 1032 l 307 938 l 347 858 l 388 938 l 436 1032 l 606 1032 l 518 801 z "},"ŗ":{"ha":650,"x_min":82,"x_max":617,"o":"m 83 721 l 339 721 l 339 510 q 422 667 361 614 q 583 721 483 721 l 617 721 l 617 458 l 526 458 q 389 414 433 458 q 344 275 344 369 l 344 0 l 83 0 l 83 721 m 100 -81 l 328 -81 l 254 -356 l 82 -356 l 100 -81 z "},"s":{"ha":724,"x_min":26,"x_max":686,"o":"m 385 -15 q 188 19 283 -15 q 26 117 93 53 l 140 265 q 252 198 182 228 q 375 168 322 168 q 426 179 408 168 q 443 210 443 190 q 413 251 443 236 q 319 282 383 265 q 191 324 242 303 q 103 392 140 346 q 65 514 65 438 q 137 676 65 617 q 336 736 208 736 q 506 708 422 736 q 654 625 589 679 l 543 478 q 451 533 506 510 q 356 556 397 556 q 315 545 329 556 q 301 517 301 535 q 331 477 301 492 q 425 446 361 463 q 557 402 506 424 q 647 334 608 381 q 686 211 686 288 q 606 44 686 104 q 385 -15 525 -15 z "},"ś":{"ha":724,"x_min":26,"x_max":686,"o":"m 385 -15 q 188 19 283 -15 q 26 117 93 53 l 140 265 q 252 198 182 228 q 375 168 322 168 q 426 179 408 168 q 443 210 443 190 q 413 251 443 236 q 319 282 383 265 q 191 324 242 303 q 103 392 140 346 q 65 514 65 438 q 137 676 65 617 q 336 736 208 736 q 506 708 422 736 q 654 625 589 679 l 543 478 q 451 533 506 510 q 356 556 397 556 q 315 545 329 556 q 301 517 301 535 q 331 477 301 492 q 425 446 361 463 q 557 402 506 424 q 647 334 608 381 q 686 211 686 288 q 606 44 686 104 q 385 -15 525 -15 m 354 1086 l 554 982 l 407 801 l 239 801 l 354 1086 z "},"š":{"ha":724,"x_min":26,"x_max":686,"o":"m 385 -15 q 188 19 283 -15 q 26 117 93 53 l 140 265 q 252 198 182 228 q 375 168 322 168 q 426 179 408 168 q 443 210 443 190 q 413 251 443 236 q 319 282 383 265 q 191 324 242 303 q 103 392 140 346 q 65 514 65 438 q 137 676 65 617 q 336 736 208 736 q 506 708 422 736 q 654 625 589 679 l 543 478 q 451 533 506 510 q 356 556 397 556 q 315 545 329 556 q 301 517 301 535 q 331 477 301 492 q 425 446 361 463 q 557 402 506 424 q 647 334 608 381 q 686 211 686 288 q 606 44 686 104 q 385 -15 525 -15 m 507 801 l 167 801 l 78 1032 l 247 1032 l 296 938 l 336 858 l 376 938 l 425 1032 l 594 1032 l 507 801 z "},"ş":{"ha":724,"x_min":26,"x_max":686,"o":"m 383 -346 q 213 -287 283 -346 l 275 -190 q 368 -222 324 -222 q 409 -212 394 -222 q 424 -185 424 -201 q 409 -158 424 -167 q 368 -149 394 -149 l 275 -149 l 318 -11 q 158 31 233 -1 q 26 117 83 63 l 140 265 q 252 198 182 228 q 375 168 322 168 q 426 179 408 168 q 443 210 443 190 q 413 251 443 236 q 319 282 383 265 q 191 324 242 303 q 103 392 140 346 q 65 514 65 438 q 137 676 65 617 q 336 736 208 736 q 506 708 422 736 q 654 625 589 679 l 543 478 q 451 533 506 510 q 356 556 397 556 q 315 545 329 556 q 301 517 301 535 q 331 477 301 492 q 425 446 361 463 q 557 402 506 424 q 647 334 608 381 q 686 211 686 288 q 615 53 686 113 q 421 -14 544 -7 l 421 -54 q 530 -96 490 -57 q 569 -196 569 -135 q 519 -306 569 -267 q 383 -346 469 -346 z "},"ŝ":{"ha":724,"x_min":26,"x_max":686,"o":"m 385 -15 q 188 19 283 -15 q 26 117 93 53 l 140 265 q 252 198 182 228 q 375 168 322 168 q 426 179 408 168 q 443 210 443 190 q 413 251 443 236 q 319 282 383 265 q 191 324 242 303 q 103 392 140 346 q 65 514 65 438 q 137 676 65 617 q 336 736 208 736 q 506 708 422 736 q 654 625 589 679 l 543 478 q 451 533 506 510 q 356 556 397 556 q 315 545 329 556 q 301 517 301 535 q 331 477 301 492 q 425 446 361 463 q 557 402 506 424 q 647 334 608 381 q 686 211 686 288 q 606 44 686 104 q 385 -15 525 -15 m 165 1032 l 506 1032 l 594 801 l 425 801 l 376 896 l 336 975 l 296 896 l 249 801 l 78 801 l 165 1032 z "},"ș":{"ha":724,"x_min":26,"x_max":686,"o":"m 385 -15 q 188 19 283 -15 q 26 117 93 53 l 140 265 q 252 198 182 228 q 375 168 322 168 q 426 179 408 168 q 443 210 443 190 q 413 251 443 236 q 319 282 383 265 q 191 324 242 303 q 103 392 140 346 q 65 514 65 438 q 137 676 65 617 q 336 736 208 736 q 506 708 422 736 q 654 625 589 679 l 543 478 q 451 533 506 510 q 356 556 397 556 q 315 545 329 556 q 301 517 301 535 q 331 477 301 492 q 425 446 361 463 q 557 402 506 424 q 647 334 608 381 q 686 211 686 288 q 606 44 686 104 q 385 -15 525 -15 m 261 -81 l 489 -81 l 415 -356 l 244 -356 l 261 -81 z "},"ß":{"ha":882,"x_min":83,"x_max":844,"o":"m 83 656 q 180 952 83 849 q 456 1056 276 1056 q 638 1021 560 1056 q 760 922 717 986 q 803 775 803 858 q 765 640 803 696 q 654 551 726 583 q 794 458 743 528 q 844 285 844 388 q 760 76 844 151 q 529 0 676 0 l 404 0 l 404 217 l 463 217 q 556 246 522 217 q 589 326 589 275 q 556 410 589 379 q 463 440 522 440 l 408 440 l 408 621 l 444 621 q 526 649 497 621 q 554 731 554 676 q 528 811 554 783 q 453 839 501 839 q 370 803 399 839 q 342 699 342 767 l 342 0 l 83 0 l 83 656 z "},"ſ":{"ha":501,"x_min":32,"x_max":556,"o":"m 153 783 q 226 999 153 925 q 440 1072 299 1072 l 556 1072 l 556 858 l 506 858 q 435 833 457 858 q 414 751 414 808 l 414 0 l 153 0 l 153 504 l 32 504 l 32 721 l 153 721 l 153 783 z "},"t":{"ha":629,"x_min":31,"x_max":574,"o":"m 444 0 q 219 67 288 0 q 151 293 151 135 l 151 504 l 31 504 l 31 721 l 157 721 l 157 899 l 413 899 l 413 721 l 560 721 l 560 507 l 413 507 l 413 315 q 432 244 413 264 q 504 224 451 224 l 574 224 l 574 0 l 444 0 z "},"ŧ":{"ha":653,"x_min":49,"x_max":592,"o":"m 461 0 q 242 63 310 0 q 169 275 174 126 l 67 275 l 67 450 l 169 450 l 169 517 l 49 517 l 49 721 l 174 721 l 174 899 l 431 899 l 431 721 l 578 721 l 578 517 l 431 517 l 431 450 l 553 450 l 553 282 l 432 282 q 456 231 436 244 q 522 217 476 217 l 592 217 l 592 0 l 461 0 z "},"ť":{"ha":633,"x_min":31,"x_max":683,"o":"m 444 0 q 219 67 288 0 q 151 293 151 135 l 151 504 l 31 504 l 31 721 l 157 721 l 157 899 l 413 899 l 413 721 l 560 721 l 560 507 l 413 507 l 413 315 q 432 244 413 264 q 504 224 451 224 l 574 224 l 574 0 l 444 0 m 478 972 l 683 972 l 621 750 l 454 750 l 478 972 z "},"ţ":{"ha":629,"x_min":31,"x_max":601,"o":"m 31 721 l 157 721 l 157 899 l 413 899 l 413 721 l 560 721 l 560 507 l 413 507 l 413 315 q 432 244 413 264 q 504 224 451 224 l 574 224 l 574 0 l 453 0 l 453 -54 q 563 -96 524 -57 q 601 -196 601 -135 q 551 -306 601 -267 q 417 -346 501 -346 q 246 -287 317 -346 l 308 -190 q 401 -222 357 -222 q 442 -212 428 -222 q 457 -185 457 -201 q 442 -158 457 -167 q 401 -149 428 -149 l 307 -149 l 357 6 q 199 90 247 22 q 151 293 151 157 l 151 504 l 31 504 l 31 721 z "},"ț":{"ha":629,"x_min":31,"x_max":574,"o":"m 444 0 q 219 67 288 0 q 151 293 151 135 l 151 504 l 31 504 l 31 721 l 157 721 l 157 899 l 413 899 l 413 721 l 560 721 l 560 507 l 413 507 l 413 315 q 432 244 413 264 q 504 224 451 224 l 574 224 l 574 0 l 444 0 m 294 -81 l 522 -81 l 449 -356 l 276 -356 l 294 -81 z "},"u":{"ha":890,"x_min":71,"x_max":807,"o":"m 807 0 l 554 0 l 554 156 q 467 32 526 75 q 319 -11 407 -11 q 136 65 201 -11 q 71 276 71 140 l 71 721 l 332 721 l 332 344 q 360 251 332 285 q 439 218 389 218 q 518 251 490 218 q 546 344 546 285 l 546 721 l 807 721 l 807 0 z "},"ú":{"ha":890,"x_min":71,"x_max":807,"o":"m 807 0 l 554 0 l 554 158 q 467 32 528 76 q 318 -12 406 -12 q 136 64 201 -12 q 71 275 71 140 l 71 721 l 332 721 l 332 344 q 360 251 332 285 q 439 217 389 217 q 518 251 490 217 q 546 344 546 285 l 546 721 l 807 721 l 807 0 m 457 1086 l 657 982 l 510 801 l 342 801 l 457 1086 z "},"ŭ":{"ha":890,"x_min":71,"x_max":807,"o":"m 807 0 l 554 0 l 554 158 q 467 32 528 76 q 318 -12 406 -12 q 136 64 201 -12 q 71 275 71 140 l 71 721 l 332 721 l 332 344 q 360 251 332 285 q 439 217 389 217 q 518 251 490 217 q 546 344 546 285 l 546 721 l 807 721 l 807 0 m 439 790 q 267 851 328 790 q 203 1028 207 913 l 356 1035 q 380 961 358 986 q 439 936 401 936 q 498 961 476 936 q 522 1035 519 986 l 675 1028 q 610 851 671 913 q 439 790 550 790 z "},"û":{"ha":890,"x_min":71,"x_max":807,"o":"m 807 0 l 554 0 l 554 158 q 467 32 528 76 q 318 -12 406 -12 q 136 64 201 -12 q 71 275 71 140 l 71 721 l 332 721 l 332 344 q 360 251 332 285 q 439 217 389 217 q 518 251 490 217 q 546 344 546 285 l 546 721 l 807 721 l 807 0 m 268 1032 l 608 1032 l 697 801 l 528 801 l 479 896 l 439 975 l 399 896 l 350 801 l 181 801 l 268 1032 z "},"ü":{"ha":890,"x_min":71,"x_max":807,"o":"m 807 0 l 554 0 l 554 158 q 467 32 528 76 q 318 -12 406 -12 q 136 64 201 -12 q 71 275 71 140 l 71 721 l 332 721 l 332 344 q 360 251 332 285 q 439 217 389 217 q 518 251 490 217 q 546 344 546 285 l 546 721 l 807 721 l 807 0 m 588 800 q 502 833 536 800 q 468 917 468 867 q 502 999 468 965 q 588 1033 536 1033 q 674 999 640 1033 q 708 917 708 965 q 674 833 708 867 q 588 800 639 800 m 289 800 q 203 833 238 800 q 169 917 169 867 q 203 999 169 965 q 289 1033 238 1033 q 376 999 342 1033 q 410 917 410 965 q 375 833 410 867 q 289 800 340 800 z "},"ụ":{"ha":890,"x_min":71,"x_max":807,"o":"m 807 0 l 554 0 l 554 158 q 467 32 528 76 q 318 -12 406 -12 q 136 64 201 -12 q 71 275 71 140 l 71 721 l 332 721 l 332 344 q 360 251 332 285 q 439 217 389 217 q 518 251 490 217 q 546 344 546 285 l 546 721 l 807 721 l 807 0 m 440 -354 q 338 -316 378 -354 q 299 -219 299 -278 q 338 -124 299 -161 q 440 -86 378 -86 q 542 -124 503 -86 q 582 -219 582 -161 q 542 -316 582 -278 q 440 -354 503 -354 z "},"ù":{"ha":890,"x_min":71,"x_max":807,"o":"m 807 0 l 554 0 l 554 158 q 467 32 528 76 q 318 -12 406 -12 q 136 64 201 -12 q 71 275 71 140 l 71 721 l 332 721 l 332 344 q 360 251 332 285 q 439 217 389 217 q 518 251 490 217 q 546 344 546 285 l 546 721 l 807 721 l 807 0 m 221 982 l 421 1086 l 536 801 l 368 801 l 221 982 z "},"ű":{"ha":890,"x_min":71,"x_max":815,"o":"m 807 0 l 554 0 l 554 158 q 467 32 528 76 q 318 -12 406 -12 q 136 64 201 -12 q 71 275 71 140 l 71 721 l 332 721 l 332 344 q 360 251 332 285 q 439 217 389 217 q 518 251 490 217 q 546 344 546 285 l 546 721 l 807 721 l 807 0 m 661 1110 l 815 981 l 653 801 l 464 801 l 661 1110 m 356 1110 l 525 997 l 394 801 l 218 801 l 356 1110 z "},"ū":{"ha":890,"x_min":71,"x_max":807,"o":"m 807 0 l 554 0 l 554 158 q 467 32 528 76 q 318 -12 406 -12 q 136 64 201 -12 q 71 275 71 140 l 71 721 l 332 721 l 332 344 q 360 251 332 285 q 439 217 389 217 q 518 251 490 217 q 546 344 546 285 l 546 721 l 807 721 l 807 0 m 226 992 l 651 992 l 651 825 l 226 825 l 226 992 z "},"ų":{"ha":890,"x_min":71,"x_max":854,"o":"m 807 0 q 721 -61 751 -28 q 690 -125 690 -94 q 702 -153 690 -143 q 733 -164 714 -164 q 790 -144 763 -164 l 854 -244 q 696 -300 779 -300 q 579 -265 622 -300 q 536 -169 536 -231 q 658 0 536 -68 l 554 0 l 554 158 q 467 32 528 76 q 318 -12 406 -12 q 136 64 201 -12 q 71 275 71 140 l 71 721 l 332 721 l 332 344 q 360 251 332 285 q 439 217 389 217 q 518 251 490 217 q 546 344 546 285 l 546 721 l 807 721 l 807 0 z "},"ů":{"ha":890,"x_min":71,"x_max":807,"o":"m 807 0 l 554 0 l 554 158 q 467 32 528 76 q 318 -12 406 -12 q 136 64 201 -12 q 71 275 71 140 l 71 721 l 332 721 l 332 344 q 360 251 332 285 q 439 217 389 217 q 518 251 490 217 q 546 344 546 285 l 546 721 l 807 721 l 807 0 m 439 782 q 301 832 356 782 q 246 957 246 882 q 301 1082 246 1033 q 439 1131 356 1131 q 578 1081 524 1131 q 632 957 632 1032 q 577 831 632 881 q 439 782 522 782 m 439 903 q 478 918 463 903 q 493 957 493 933 q 478 996 493 981 q 439 1011 463 1011 q 400 996 415 1011 q 385 957 385 981 q 400 918 385 933 q 439 903 415 903 z "},"ũ":{"ha":890,"x_min":71,"x_max":807,"o":"m 807 0 l 554 0 l 554 158 q 467 32 528 76 q 318 -12 406 -12 q 136 64 201 -12 q 71 275 71 140 l 71 721 l 332 721 l 332 344 q 360 251 332 285 q 439 217 389 217 q 518 251 490 217 q 546 344 546 285 l 546 721 l 807 721 l 807 0 m 179 839 q 235 974 193 926 q 340 1021 276 1021 q 398 1012 372 1021 q 457 986 424 1003 q 487 973 472 979 q 513 967 501 967 q 556 1015 546 967 l 697 993 q 643 858 685 906 q 538 810 601 810 q 478 819 504 810 q 419 844 453 828 q 364 864 383 864 q 321 817 331 864 l 179 839 z "},"v":{"ha":838,"x_min":11,"x_max":826,"o":"m 11 721 l 285 721 l 378 343 l 419 146 l 460 343 l 551 721 l 826 721 l 601 0 l 235 0 l 11 721 z "},"w":{"ha":1340,"x_min":36,"x_max":1304,"o":"m 36 721 l 301 721 l 358 403 l 397 149 l 433 403 l 486 721 l 856 721 l 907 403 l 943 149 l 982 403 l 1039 721 l 1304 721 l 1150 0 l 753 0 l 713 269 l 671 567 l 629 269 l 588 0 l 192 0 l 36 721 z "},"ẃ":{"ha":1340,"x_min":36,"x_max":1304,"o":"m 36 721 l 301 721 l 358 403 l 397 149 l 433 403 l 486 721 l 856 721 l 907 403 l 943 149 l 982 403 l 1039 721 l 1304 721 l 1150 0 l 753 0 l 713 269 l 671 567 l 629 269 l 588 0 l 192 0 l 36 721 m 688 1086 l 888 982 l 740 801 l 572 801 l 688 1086 z "},"ŵ":{"ha":1340,"x_min":36,"x_max":1304,"o":"m 36 721 l 301 721 l 358 403 l 397 149 l 433 403 l 486 721 l 856 721 l 907 403 l 943 149 l 982 403 l 1039 721 l 1304 721 l 1150 0 l 753 0 l 713 269 l 671 567 l 629 269 l 588 0 l 192 0 l 36 721 m 499 1032 l 839 1032 l 928 801 l 757 801 l 710 896 l 669 975 l 629 896 l 581 801 l 411 801 l 499 1032 z "},"ẅ":{"ha":1340,"x_min":36,"x_max":1304,"o":"m 36 721 l 301 721 l 358 403 l 397 149 l 433 403 l 486 721 l 856 721 l 907 403 l 943 149 l 982 403 l 1039 721 l 1304 721 l 1150 0 l 753 0 l 713 269 l 671 567 l 629 269 l 588 0 l 192 0 l 36 721 m 818 800 q 732 833 765 800 q 699 917 699 867 q 733 1000 699 967 q 818 1033 767 1033 q 904 999 871 1033 q 938 917 938 965 q 903 833 938 867 q 818 800 869 800 m 519 800 q 433 833 467 800 q 400 917 400 867 q 434 1000 400 967 q 519 1033 468 1033 q 606 999 572 1033 q 639 917 639 965 q 605 833 639 867 q 519 800 571 800 z "},"ẁ":{"ha":1340,"x_min":36,"x_max":1304,"o":"m 36 721 l 301 721 l 358 403 l 397 149 l 433 403 l 486 721 l 856 721 l 907 403 l 943 149 l 982 403 l 1039 721 l 1304 721 l 1150 0 l 753 0 l 713 269 l 671 567 l 629 269 l 588 0 l 192 0 l 36 721 m 451 982 l 651 1086 l 767 801 l 599 801 l 451 982 z "},"x":{"ha":825,"x_min":21,"x_max":804,"o":"m 467 121 l 413 257 l 360 121 l 307 0 l 21 0 l 217 365 l 39 721 l 317 721 l 363 604 l 413 471 l 461 604 l 508 721 l 786 721 l 608 365 l 804 0 l 519 0 l 467 121 z "},"y":{"ha":838,"x_min":11,"x_max":828,"o":"m 133 -117 l 193 -117 q 281 -100 253 -117 q 328 -33 308 -83 l 342 0 l 233 0 l 11 721 l 285 721 l 376 343 l 421 147 l 464 343 l 554 721 l 828 721 l 575 -106 q 504 -247 547 -194 q 392 -322 461 -299 q 218 -344 324 -344 l 133 -344 l 133 -117 z "},"ý":{"ha":838,"x_min":11,"x_max":828,"o":"m 133 -117 l 193 -117 q 281 -100 253 -117 q 328 -33 308 -83 l 342 0 l 233 0 l 11 721 l 285 721 l 376 343 l 421 147 l 464 343 l 554 721 l 828 721 l 575 -106 q 504 -247 547 -194 q 392 -322 461 -299 q 218 -344 324 -344 l 133 -344 l 133 -117 m 439 1086 l 639 981 l 492 801 l 324 801 l 439 1086 z "},"ŷ":{"ha":838,"x_min":11,"x_max":828,"o":"m 133 -117 l 193 -117 q 281 -100 253 -117 q 328 -33 308 -83 l 342 0 l 233 0 l 11 721 l 285 721 l 376 343 l 421 147 l 464 343 l 554 721 l 828 721 l 575 -106 q 504 -247 547 -194 q 392 -322 461 -299 q 218 -344 324 -344 l 133 -344 l 133 -117 m 250 1032 l 590 1032 l 679 801 l 508 801 l 460 896 l 421 975 l 381 896 l 332 801 l 163 801 l 250 1032 z "},"ÿ":{"ha":838,"x_min":11,"x_max":828,"o":"m 133 -117 l 193 -117 q 281 -100 253 -117 q 328 -33 308 -83 l 342 0 l 233 0 l 11 721 l 285 721 l 376 343 l 421 147 l 464 343 l 554 721 l 828 721 l 575 -106 q 504 -247 547 -194 q 392 -322 461 -299 q 218 -344 324 -344 l 133 -344 l 133 -117 m 569 800 q 483 833 517 800 q 450 917 450 867 q 484 1000 450 967 q 569 1033 518 1033 q 656 999 622 1033 q 689 917 689 965 q 655 833 689 867 q 569 800 621 800 m 271 800 q 185 833 218 800 q 151 917 151 867 q 185 1000 151 967 q 271 1033 219 1033 q 357 999 324 1033 q 390 917 390 965 q 356 833 390 867 q 271 800 322 800 z "},"ỳ":{"ha":838,"x_min":11,"x_max":828,"o":"m 133 -117 l 193 -117 q 281 -100 253 -117 q 328 -33 308 -83 l 342 0 l 233 0 l 11 721 l 285 721 l 376 343 l 421 147 l 464 343 l 554 721 l 828 721 l 575 -106 q 504 -247 547 -194 q 392 -322 461 -299 q 218 -344 324 -344 l 133 -344 l 133 -117 m 203 982 l 401 1086 l 518 801 l 349 801 l 203 982 z "},"ȳ":{"ha":838,"x_min":11,"x_max":828,"o":"m 133 -117 l 193 -117 q 281 -100 253 -117 q 328 -33 308 -83 l 342 0 l 233 0 l 11 721 l 285 721 l 376 343 l 421 147 l 464 343 l 554 721 l 828 721 l 575 -106 q 504 -247 547 -194 q 392 -322 461 -299 q 218 -344 324 -344 l 133 -344 l 133 -117 m 208 992 l 632 992 l 632 825 l 208 825 l 208 992 z "},"ỹ":{"ha":838,"x_min":11,"x_max":828,"o":"m 133 -117 l 193 -117 q 281 -100 253 -117 q 328 -33 308 -83 l 342 0 l 233 0 l 11 721 l 285 721 l 376 343 l 421 147 l 464 343 l 554 721 l 828 721 l 575 -106 q 504 -247 547 -194 q 392 -322 461 -299 q 218 -344 324 -344 l 133 -344 l 133 -117 m 160 839 q 215 974 174 926 q 321 1021 257 1021 q 380 1012 354 1021 q 439 986 406 1003 q 494 967 475 967 q 538 1015 529 967 l 679 993 q 624 858 667 906 q 518 810 582 810 q 460 819 486 810 q 401 844 435 828 q 372 858 386 851 q 346 864 357 864 q 303 817 311 864 l 160 839 z "},"z":{"ha":760,"x_min":60,"x_max":700,"o":"m 60 288 l 283 433 l 426 519 l 232 514 l 76 514 l 76 721 l 689 721 l 689 444 l 458 292 l 328 211 l 515 214 l 700 214 l 700 0 l 60 0 l 60 288 z "},"ź":{"ha":760,"x_min":60,"x_max":700,"o":"m 60 288 l 283 433 l 426 519 l 232 514 l 76 514 l 76 721 l 689 721 l 689 444 l 458 292 l 328 211 l 515 214 l 700 214 l 700 0 l 60 0 l 60 288 m 400 1086 l 599 982 l 453 801 l 283 801 l 400 1086 z "},"ž":{"ha":760,"x_min":60,"x_max":700,"o":"m 60 288 l 283 433 l 426 519 l 232 514 l 76 514 l 76 721 l 689 721 l 689 444 l 458 292 l 328 211 l 515 214 l 700 214 l 700 0 l 60 0 l 60 288 m 551 801 l 211 801 l 122 1032 l 292 1032 l 340 938 l 381 858 l 421 938 l 469 1032 l 639 1032 l 551 801 z "},"ż":{"ha":760,"x_min":60,"x_max":700,"o":"m 60 288 l 283 433 l 426 519 l 232 514 l 76 514 l 76 721 l 689 721 l 689 444 l 458 292 l 328 211 l 515 214 l 700 214 l 700 0 l 60 0 l 60 288 m 381 790 q 278 828 318 790 q 239 925 239 867 q 279 1021 239 983 q 381 1058 319 1058 q 483 1021 443 1058 q 524 925 524 983 q 483 828 524 867 q 381 790 443 790 z "},"ﬁ":{"ha":1026,"x_min":32,"x_max":965,"o":"m 683 507 l 414 507 l 414 0 l 153 0 l 153 504 l 32 504 l 32 721 l 153 721 l 153 783 q 226 998 153 924 q 440 1072 300 1072 l 538 1072 l 538 858 l 503 858 q 432 837 454 858 q 410 767 410 815 l 410 721 l 944 721 l 944 0 l 683 0 l 683 507 m 814 792 q 703 833 744 792 q 661 939 661 874 q 703 1045 661 1004 q 814 1086 744 1086 q 924 1045 883 1086 q 965 939 965 1004 q 924 833 965 874 q 814 792 882 792 z "},"ﬂ":{"ha":1022,"x_min":32,"x_max":939,"o":"m 153 783 q 226 998 153 924 q 440 1072 300 1072 l 939 1072 l 939 0 l 678 0 l 678 858 l 503 858 q 432 837 454 858 q 410 767 410 815 l 410 721 l 547 721 l 547 507 l 414 507 l 414 0 l 153 0 l 153 504 l 32 504 l 32 721 l 153 721 l 153 783 z "},"ª":{"ha":579,"x_min":24,"x_max":529,"o":"m 185 469 q 72 508 119 469 q 24 615 24 546 q 71 728 24 688 q 201 769 118 769 l 349 769 q 264 840 346 840 q 201 829 231 840 q 140 794 172 818 l 65 917 q 293 982 161 982 q 468 928 407 982 q 529 775 529 875 l 529 478 l 354 478 l 354 563 q 281 493 328 517 q 185 469 233 469 m 214 633 q 267 594 214 594 q 328 617 306 594 q 350 678 350 639 l 350 699 l 249 675 q 223 660 232 671 q 214 633 214 649 z "},"º":{"ha":625,"x_min":26,"x_max":600,"o":"m 313 464 q 163 497 228 464 q 62 588 97 529 q 26 724 26 647 q 62 858 26 800 q 163 949 97 917 q 313 982 228 982 q 463 949 397 982 q 564 858 528 917 q 600 724 600 800 q 564 588 600 647 q 463 497 528 529 q 313 464 397 464 m 313 635 q 377 659 353 635 q 401 724 401 683 q 377 788 401 764 q 313 813 353 813 q 249 788 274 813 q 224 724 224 764 q 248 659 224 683 q 313 635 272 635 z "},"А":{"ha":1068,"x_min":15,"x_max":1051,"o":"m 339 972 l 728 972 l 1051 0 l 761 0 l 715 150 l 353 150 l 307 0 l 15 0 l 339 972 m 660 343 l 579 622 l 533 806 l 489 622 l 408 343 l 660 343 z "},"Б":{"ha":906,"x_min":92,"x_max":865,"o":"m 92 972 l 782 972 l 782 753 l 365 753 l 365 608 l 504 608 q 773 531 681 608 q 865 304 865 453 q 773 78 865 156 q 504 0 681 0 l 92 0 l 92 972 m 469 196 q 565 225 532 196 q 599 308 599 254 q 565 392 599 363 q 469 422 532 422 l 365 422 l 365 196 l 469 196 z "},"В":{"ha":928,"x_min":92,"x_max":885,"o":"m 92 972 l 557 972 q 766 908 689 972 q 843 735 843 844 q 797 590 843 650 q 669 507 751 531 q 828 420 771 486 q 885 257 885 354 q 801 69 885 139 q 576 0 718 0 l 92 0 l 92 972 m 497 193 q 588 219 556 193 q 619 294 619 246 q 588 369 619 343 q 497 396 556 396 l 358 396 l 358 193 l 497 193 m 475 581 q 563 607 532 581 q 594 682 594 633 q 563 756 594 731 q 475 782 532 782 l 358 782 l 358 581 l 475 581 z "},"Г":{"ha":810,"x_min":92,"x_max":776,"o":"m 92 972 l 776 972 l 776 718 l 369 718 l 369 0 l 92 0 l 92 972 z "},"Ѓ":{"ha":810,"x_min":92,"x_max":776,"o":"m 92 972 l 776 972 l 776 718 l 369 718 l 369 0 l 92 0 l 92 972 m 447 1326 l 656 1221 l 501 1049 l 325 1049 l 447 1326 z "},"Ґ":{"ha":810,"x_min":92,"x_max":776,"o":"m 92 972 l 525 972 l 525 1171 l 776 1171 l 776 718 l 369 718 l 369 0 l 92 0 l 92 972 z "},"Д":{"ha":1203,"x_min":36,"x_max":1163,"o":"m 36 258 l 65 258 q 181 294 147 258 q 221 419 215 329 l 257 972 l 1018 972 l 1018 258 l 1163 258 l 1163 -212 l 894 -212 l 894 0 l 304 0 l 304 -212 l 36 -212 l 36 258 m 744 249 l 744 726 l 517 726 l 499 446 q 480 326 493 371 q 439 249 467 282 l 744 249 z "},"Е":{"ha":842,"x_min":92,"x_max":792,"o":"m 92 972 l 775 972 l 775 760 l 364 760 l 364 596 l 710 596 l 710 386 l 364 386 l 364 217 l 792 217 l 792 0 l 92 0 l 92 972 z "},"Ѐ":{"ha":842,"x_min":92,"x_max":792,"o":"m 92 972 l 775 972 l 775 760 l 364 760 l 364 596 l 710 596 l 710 386 l 364 386 l 364 217 l 792 217 l 792 0 l 92 0 l 92 972 m 199 1221 l 407 1326 l 529 1049 l 353 1049 l 199 1221 z "},"Ё":{"ha":842,"x_min":92,"x_max":792,"o":"m 92 972 l 775 972 l 775 760 l 364 760 l 364 596 l 710 596 l 710 386 l 364 386 l 364 217 l 792 217 l 792 0 l 92 0 l 92 972 m 592 1047 q 503 1082 538 1047 q 468 1169 468 1117 q 503 1256 468 1222 q 592 1290 538 1290 q 678 1256 644 1290 q 713 1169 713 1222 q 678 1081 713 1115 q 592 1047 644 1047 m 279 1047 q 190 1082 225 1047 q 156 1169 156 1117 q 190 1256 156 1222 q 279 1290 225 1290 q 366 1256 332 1290 q 400 1169 400 1222 q 366 1081 400 1115 q 279 1047 332 1047 z "},"Ж":{"ha":1626,"x_min":8,"x_max":1618,"o":"m 1075 381 l 950 381 l 950 0 l 676 0 l 676 381 l 551 381 l 331 0 l 8 0 l 307 504 l 49 972 l 360 972 l 557 611 l 676 611 l 676 972 l 950 972 l 950 611 l 1069 611 l 1267 972 l 1578 972 l 1321 503 l 1618 0 l 1296 0 l 1075 381 z "},"З":{"ha":879,"x_min":22,"x_max":836,"o":"m 436 -17 q 201 26 300 -17 q 22 160 101 68 l 172 314 q 281 228 226 254 q 406 201 335 201 q 514 226 476 201 q 551 299 551 251 q 521 366 551 342 q 435 390 490 390 l 281 390 l 281 583 l 415 583 q 501 609 471 583 q 531 681 531 635 q 499 750 531 726 q 406 774 467 774 q 289 749 344 774 q 175 674 233 725 l 43 831 q 228 952 136 915 q 436 989 319 989 q 701 921 607 989 q 794 728 794 853 q 756 592 794 649 q 647 507 718 535 q 788 418 740 481 q 836 264 836 356 q 732 57 836 131 q 436 -17 628 -17 z "},"И":{"ha":1092,"x_min":92,"x_max":1000,"o":"m 92 972 l 356 972 l 356 457 l 351 154 l 410 418 l 544 972 l 1000 972 l 1000 0 l 735 0 l 735 515 l 739 813 l 682 554 l 547 0 l 92 0 l 92 972 z "},"Й":{"ha":1092,"x_min":92,"x_max":1000,"o":"m 92 972 l 356 972 l 356 457 l 351 154 l 410 418 l 544 972 l 1000 972 l 1000 0 l 735 0 l 735 515 l 739 813 l 682 554 l 547 0 l 92 0 l 92 972 m 546 1038 q 368 1097 431 1038 q 299 1268 306 1157 l 458 1275 q 485 1208 463 1232 q 546 1185 507 1185 q 607 1208 585 1185 q 633 1275 629 1232 l 793 1268 q 724 1097 786 1157 q 546 1038 661 1038 z "},"Ѝ":{"ha":1092,"x_min":92,"x_max":1000,"o":"m 92 972 l 356 972 l 356 457 l 351 154 l 410 418 l 544 972 l 1000 972 l 1000 0 l 735 0 l 735 515 l 739 813 l 682 554 l 547 0 l 92 0 l 92 972 m 311 1221 l 519 1326 l 640 1049 l 465 1049 l 311 1221 z "},"К":{"ha":1060,"x_min":92,"x_max":1050,"o":"m 499 381 l 369 381 l 369 0 l 92 0 l 92 972 l 369 972 l 369 611 l 494 611 l 697 972 l 1010 972 l 747 504 l 1050 0 l 725 0 l 499 381 z "},"Ќ":{"ha":1060,"x_min":92,"x_max":1050,"o":"m 499 381 l 369 381 l 369 0 l 92 0 l 92 972 l 369 972 l 369 611 l 494 611 l 697 972 l 1010 972 l 747 504 l 1050 0 l 725 0 l 499 381 m 550 1326 l 758 1221 l 604 1049 l 429 1049 l 550 1326 z "},"Л":{"ha":1093,"x_min":36,"x_max":1001,"o":"m 36 256 l 57 256 q 149 283 118 256 q 183 372 179 311 l 224 972 l 1001 972 l 1001 0 l 724 0 l 724 726 l 483 726 l 460 356 q 409 143 450 219 q 285 33 368 67 q 57 0 201 0 l 36 0 l 36 256 z "},"М":{"ha":1461,"x_min":42,"x_max":1418,"o":"m 169 972 l 608 972 l 693 500 l 731 267 l 767 500 l 853 972 l 1292 972 l 1418 0 l 1138 0 l 1088 489 l 1060 813 l 1007 489 l 929 107 l 531 107 l 454 489 l 401 813 l 374 489 l 322 0 l 42 0 l 169 972 z "},"Н":{"ha":1043,"x_min":92,"x_max":951,"o":"m 672 368 l 369 368 l 369 0 l 92 0 l 92 972 l 369 972 l 369 624 l 672 624 l 672 972 l 951 972 l 951 0 l 672 0 l 672 368 z "},"О":{"ha":1144,"x_min":44,"x_max":1099,"o":"m 572 -17 q 297 47 417 -17 q 110 224 176 110 q 44 486 44 338 q 110 749 44 635 q 297 926 176 863 q 572 989 417 989 q 847 926 728 989 q 1033 749 967 863 q 1099 486 1099 635 q 1033 224 1099 338 q 847 47 967 110 q 572 -17 728 -17 m 572 240 q 746 308 679 240 q 813 486 813 376 q 746 664 813 596 q 572 732 679 732 q 399 664 465 732 q 332 486 332 596 q 399 308 332 376 q 572 240 465 240 z "},"П":{"ha":1043,"x_min":92,"x_max":951,"o":"m 92 972 l 951 972 l 951 0 l 672 0 l 672 717 l 369 717 l 369 0 l 92 0 l 92 972 z "},"Р":{"ha":918,"x_min":92,"x_max":881,"o":"m 92 972 l 496 972 q 778 877 676 972 q 881 615 881 782 q 778 353 881 447 q 496 258 676 258 l 369 258 l 369 0 l 92 0 l 92 972 m 464 481 q 570 515 532 481 q 608 610 608 549 q 570 706 608 671 q 464 740 532 740 l 365 740 l 365 481 l 464 481 z "},"С":{"ha":1022,"x_min":44,"x_max":1001,"o":"m 543 -17 q 282 46 394 -17 q 107 222 169 108 q 44 486 44 336 q 106 750 44 636 q 281 926 168 864 q 543 989 394 989 q 793 934 683 989 q 988 767 903 879 l 789 608 q 564 732 704 732 q 395 665 458 732 q 332 486 332 599 q 396 308 332 375 q 564 240 460 240 q 697 276 638 240 q 797 382 757 313 l 1001 232 q 816 47 933 110 q 543 -17 699 -17 z "},"Т":{"ha":889,"x_min":35,"x_max":853,"o":"m 306 718 l 35 718 l 35 972 l 853 972 l 853 718 l 583 718 l 583 0 l 306 0 l 306 718 z "},"У":{"ha":957,"x_min":13,"x_max":940,"o":"m 419 297 l 276 297 l 13 972 l 315 972 l 418 682 l 490 472 l 553 682 l 644 972 l 940 972 l 608 0 l 310 0 l 419 297 z "},"Ў":{"ha":957,"x_min":13,"x_max":940,"o":"m 419 297 l 276 297 l 13 972 l 315 972 l 418 682 l 490 472 l 553 682 l 644 972 l 940 972 l 608 0 l 310 0 l 419 297 m 481 1038 q 303 1097 365 1038 q 233 1268 240 1157 l 393 1275 q 419 1208 397 1232 q 481 1185 442 1185 q 542 1208 519 1185 q 568 1275 564 1232 l 728 1268 q 658 1097 721 1157 q 481 1038 596 1038 z "},"Ф":{"ha":1353,"x_min":43,"x_max":1310,"o":"m 539 53 q 174 172 306 58 q 43 486 43 286 q 174 800 43 686 q 539 919 306 914 l 539 1068 l 814 1068 l 814 919 q 1178 800 1047 914 q 1310 486 1310 686 q 1178 172 1310 286 q 814 53 1047 58 l 814 -104 l 539 -104 l 539 53 m 315 486 q 374 338 315 390 q 544 283 432 286 l 544 689 q 374 634 432 686 q 315 486 315 582 m 808 283 q 979 338 921 286 q 1038 486 1038 390 q 979 634 1038 582 q 808 689 921 686 l 808 283 z "},"Х":{"ha":1017,"x_min":31,"x_max":986,"o":"m 581 194 l 508 368 l 436 194 l 346 0 l 31 0 l 289 496 l 53 972 l 361 972 l 440 796 l 508 625 l 576 796 l 656 972 l 964 972 l 728 494 l 986 0 l 671 0 l 581 194 z "},"Ц":{"ha":1136,"x_min":92,"x_max":1096,"o":"m 826 0 l 92 0 l 92 972 l 369 972 l 369 254 l 672 254 l 672 972 l 951 972 l 951 258 l 1096 258 l 1096 -212 l 826 -212 l 826 0 z "},"Ч":{"ha":986,"x_min":56,"x_max":894,"o":"m 615 417 q 354 282 533 282 q 133 369 210 282 q 56 617 56 456 l 56 972 l 335 972 l 335 661 q 371 534 335 578 q 475 490 407 490 q 579 534 543 490 q 615 661 615 578 l 615 972 l 894 972 l 894 0 l 615 0 l 615 417 z "},"Ш":{"ha":1585,"x_min":92,"x_max":1493,"o":"m 92 972 l 369 972 l 369 254 l 657 254 l 657 972 l 926 972 l 926 254 l 1214 254 l 1214 972 l 1493 972 l 1493 0 l 92 0 l 92 972 z "},"Щ":{"ha":1678,"x_min":92,"x_max":1638,"o":"m 1369 0 l 92 0 l 92 972 l 369 972 l 369 254 l 657 254 l 657 972 l 926 972 l 926 254 l 1214 254 l 1214 972 l 1493 972 l 1493 258 l 1638 258 l 1638 -212 l 1369 -212 l 1369 0 z "},"Џ":{"ha":1043,"x_min":92,"x_max":951,"o":"m 92 972 l 369 972 l 369 254 l 672 254 l 672 972 l 951 972 l 951 0 l 656 0 l 656 -212 l 388 -212 l 388 0 l 92 0 l 92 972 z "},"Ь":{"ha":928,"x_min":92,"x_max":890,"o":"m 92 972 l 369 972 l 369 683 l 522 683 q 792 592 694 683 q 890 342 890 501 q 792 91 890 182 q 522 0 694 0 l 92 0 l 92 972 m 472 222 q 618 344 618 222 q 472 467 618 467 l 365 467 l 365 222 l 472 222 z "},"Ы":{"ha":1390,"x_min":92,"x_max":1297,"o":"m 92 972 l 369 972 l 369 683 l 522 683 q 792 592 694 683 q 890 342 890 501 q 792 91 890 182 q 522 0 694 0 l 92 0 l 92 972 m 472 222 q 618 344 618 222 q 472 467 618 467 l 365 467 l 365 222 l 472 222 m 1019 972 l 1297 972 l 1297 0 l 1019 0 l 1019 972 z "},"Ъ":{"ha":1075,"x_min":33,"x_max":1036,"o":"m 243 736 l 33 736 l 33 972 l 521 972 l 521 683 l 669 683 q 939 592 842 683 q 1036 342 1036 501 q 939 91 1036 182 q 669 0 842 0 l 243 0 l 243 736 m 619 222 q 765 344 765 222 q 728 435 765 404 q 619 467 692 467 l 515 467 l 515 222 l 619 222 z "},"Љ":{"ha":1526,"x_min":36,"x_max":1489,"o":"m 36 256 l 57 256 q 149 283 118 256 q 183 372 179 311 l 224 972 l 975 972 l 975 683 l 1121 683 q 1391 592 1293 683 q 1489 342 1489 501 q 1391 91 1489 182 q 1121 0 1293 0 l 700 0 l 700 726 l 483 726 l 460 354 q 410 147 451 224 q 288 35 369 69 q 74 0 207 0 l 36 0 l 36 256 m 1071 222 q 1217 344 1217 222 q 1071 467 1217 467 l 971 467 l 971 222 l 1071 222 z "},"Њ":{"ha":1468,"x_min":92,"x_max":1429,"o":"m 642 390 l 369 390 l 369 0 l 92 0 l 92 972 l 369 972 l 369 646 l 642 646 l 642 972 l 921 972 l 921 667 l 1063 667 q 1331 577 1233 667 q 1429 333 1429 488 q 1331 90 1429 179 q 1063 0 1233 0 l 642 0 l 642 390 m 1013 222 q 1121 251 1083 222 q 1158 336 1158 281 q 1121 421 1158 392 q 1013 450 1083 450 l 915 450 l 915 222 l 1013 222 z "},"Ѕ":{"ha":915,"x_min":31,"x_max":874,"o":"m 490 -17 q 238 30 356 -17 q 31 168 119 76 l 178 349 q 316 253 228 292 q 493 215 404 215 q 565 232 540 215 q 590 279 590 249 q 550 341 590 319 q 419 389 510 363 q 253 448 319 418 q 138 540 186 478 q 89 704 89 603 q 182 915 89 842 q 432 989 275 989 q 659 945 551 989 q 833 819 767 901 l 689 654 q 572 733 635 704 q 453 763 508 763 q 386 747 410 763 q 363 701 363 731 q 403 642 363 663 q 536 594 444 621 q 706 535 638 565 q 824 443 774 504 q 874 283 874 382 q 772 63 874 143 q 490 -17 669 -17 z "},"Є":{"ha":1029,"x_min":44,"x_max":1007,"o":"m 547 -17 q 281 45 394 -17 q 106 220 168 107 q 44 486 44 333 q 106 753 44 639 q 281 928 168 867 q 547 989 394 989 q 993 765 835 989 l 797 613 q 565 743 708 743 q 421 701 482 743 q 336 592 360 660 l 667 592 l 667 381 l 336 381 q 421 270 360 311 q 565 229 482 229 q 810 375 714 229 l 1007 233 q 820 47 939 111 q 547 -17 701 -17 z "},"Э":{"ha":1029,"x_min":22,"x_max":985,"o":"m 482 -17 q 209 48 328 -17 q 22 233 90 113 l 221 375 q 464 229 315 229 q 608 269 547 229 q 693 381 669 310 l 363 381 l 363 592 l 693 592 q 608 701 669 660 q 464 743 547 743 q 232 613 321 743 l 38 765 q 482 989 194 989 q 749 927 635 989 q 924 752 863 865 q 985 486 985 639 q 923 220 985 333 q 748 45 861 107 q 482 -17 635 -17 z "},"І":{"ha":461,"x_min":92,"x_max":369,"o":"m 92 972 l 369 972 l 369 0 l 92 0 l 92 972 z "},"Ї":{"ha":461,"x_min":-33,"x_max":497,"o":"m 92 972 l 369 972 l 369 0 l 92 0 l 92 972 m 379 1047 q 293 1082 326 1047 q 260 1169 260 1117 q 293 1256 260 1222 q 379 1290 326 1290 q 464 1256 431 1290 q 497 1169 497 1222 q 464 1082 497 1117 q 379 1047 431 1047 m 86 1047 q 0 1082 33 1047 q -33 1169 -33 1117 q 0 1256 -33 1222 q 86 1290 33 1290 q 170 1256 138 1290 q 203 1169 203 1222 q 170 1081 203 1115 q 86 1047 138 1047 z "},"Ј":{"ha":465,"x_min":-112,"x_max":374,"o":"m -112 -107 l -49 -107 q 63 -74 29 -107 q 96 36 96 -42 l 96 972 l 374 972 l 374 24 q 282 -264 374 -172 q -6 -356 190 -356 l -112 -356 l -112 -107 z "},"Ћ":{"ha":1128,"x_min":35,"x_max":1069,"o":"m 296 718 l 35 718 l 35 972 l 876 972 l 876 718 l 575 718 l 575 490 q 665 601 606 564 q 808 639 724 639 q 999 562 929 639 q 1069 351 1069 485 l 1069 0 l 790 0 l 790 274 q 763 368 790 335 q 683 401 735 401 q 603 368 631 401 q 575 274 575 335 l 575 0 l 296 0 l 296 718 z "},"Ю":{"ha":1539,"x_min":92,"x_max":1494,"o":"m 979 -17 q 743 31 849 -17 q 569 165 638 78 q 476 368 500 251 l 369 368 l 369 0 l 92 0 l 92 972 l 369 972 l 369 624 l 481 624 q 576 817 507 735 q 749 944 646 899 q 979 989 853 989 q 1248 926 1131 989 q 1430 749 1365 863 q 1494 486 1494 635 q 1430 224 1494 338 q 1248 47 1365 110 q 979 -17 1131 -17 m 974 240 q 1142 308 1078 240 q 1207 486 1207 376 q 1142 664 1207 596 q 974 732 1078 732 q 805 664 869 732 q 740 486 740 596 q 805 308 740 376 q 974 240 869 240 z "},"Я":{"ha":963,"x_min":35,"x_max":871,"o":"m 593 293 l 474 293 l 457 293 l 333 0 l 35 0 l 196 363 q 96 474 131 406 q 61 633 61 543 q 169 883 61 794 q 474 972 278 972 l 871 972 l 871 0 l 593 0 l 593 293 m 343 628 q 379 535 343 567 q 485 504 415 504 l 596 504 l 596 751 l 485 751 q 379 720 415 751 q 343 628 343 689 z "},"Ђ":{"ha":1128,"x_min":35,"x_max":1069,"o":"m 650 -103 l 699 -103 q 769 -81 749 -103 q 790 -11 790 -60 l 790 275 q 763 368 790 335 q 683 401 735 401 q 603 368 632 401 q 575 275 575 335 l 575 0 l 296 0 l 296 718 l 35 718 l 35 972 l 876 972 l 876 718 l 575 718 l 575 490 q 665 600 604 561 q 810 639 725 639 q 999 563 929 639 q 1069 351 1069 486 l 1069 -49 q 995 -267 1069 -197 q 771 -336 921 -336 l 650 -336 l 650 -103 z "},"Ү":{"ha":996,"x_min":13,"x_max":983,"o":"m 13 972 l 317 972 l 433 653 l 499 460 l 563 653 l 679 972 l 983 972 l 708 321 l 638 321 l 638 0 l 358 0 l 358 321 l 288 321 l 13 972 z "},"Ӂ":{"ha":1626,"x_min":8,"x_max":1618,"o":"m 1075 381 l 950 381 l 950 0 l 676 0 l 676 381 l 551 381 l 331 0 l 8 0 l 307 504 l 49 972 l 360 972 l 557 611 l 676 611 l 676 972 l 950 972 l 950 611 l 1069 611 l 1267 972 l 1578 972 l 1321 503 l 1618 0 l 1296 0 l 1075 381 m 813 1038 q 635 1097 697 1038 q 565 1268 572 1157 l 725 1275 q 751 1208 729 1232 q 813 1185 774 1185 q 874 1208 851 1185 q 900 1275 896 1232 l 1060 1268 q 990 1097 1053 1157 q 813 1038 928 1038 z "},"Ӑ":{"ha":1068,"x_min":15,"x_max":1051,"o":"m 339 972 l 728 972 l 1051 0 l 761 0 l 715 150 l 353 150 l 307 0 l 15 0 l 339 972 m 533 1038 q 356 1097 418 1038 q 286 1268 293 1157 l 446 1275 q 472 1208 450 1232 q 533 1185 494 1185 q 594 1208 572 1185 q 621 1275 617 1232 l 781 1268 q 711 1097 774 1157 q 533 1038 649 1038 m 660 343 l 579 622 l 533 806 l 489 622 l 408 343 l 660 343 z "},"Ӓ":{"ha":1068,"x_min":15,"x_max":1051,"o":"m 339 972 l 728 972 l 1051 0 l 761 0 l 715 150 l 353 150 l 307 0 l 15 0 l 339 972 m 692 1047 q 603 1082 638 1047 q 568 1169 568 1117 q 603 1256 568 1222 q 692 1290 638 1290 q 778 1256 744 1290 q 813 1169 813 1222 q 778 1081 813 1115 q 692 1047 744 1047 m 379 1047 q 290 1082 325 1047 q 256 1169 256 1117 q 290 1256 256 1222 q 379 1290 325 1290 q 466 1256 432 1290 q 500 1169 500 1222 q 466 1081 500 1115 q 379 1047 432 1047 m 660 343 l 579 622 l 533 806 l 489 622 l 408 343 l 660 343 z "},"Ӕ":{"ha":1472,"x_min":-11,"x_max":1422,"o":"m 583 972 l 1406 972 l 1406 760 l 1014 760 l 1014 596 l 1340 596 l 1340 386 l 1014 386 l 1014 217 l 1422 217 l 1422 0 l 750 0 l 750 150 l 404 150 l 314 0 l -11 0 l 583 972 m 750 342 l 750 614 l 751 778 l 668 619 l 514 342 l 750 342 z "},"Ӗ":{"ha":842,"x_min":92,"x_max":792,"o":"m 92 972 l 775 972 l 775 760 l 364 760 l 364 596 l 710 596 l 710 386 l 364 386 l 364 217 l 792 217 l 792 0 l 92 0 l 92 972 m 433 1038 q 256 1097 318 1038 q 186 1268 193 1157 l 346 1275 q 372 1208 350 1232 q 433 1185 394 1185 q 494 1208 472 1185 q 521 1275 517 1232 l 681 1268 q 611 1097 674 1157 q 433 1038 549 1038 z "},"Ә":{"ha":1089,"x_min":40,"x_max":1044,"o":"m 544 -17 q 281 49 396 -17 q 103 231 167 115 q 40 489 40 346 q 47 579 40 528 l 767 579 q 684 719 750 669 q 514 769 618 769 q 257 651 360 769 l 101 815 q 281 944 174 900 q 519 989 389 989 q 794 926 675 989 q 979 750 914 864 q 1044 488 1044 636 q 981 224 1044 339 q 804 47 918 110 q 544 -17 690 -17 m 313 383 q 389 253 332 299 q 538 207 446 207 q 708 271 647 207 q 772 449 769 335 l 313 383 z "},"Ӝ":{"ha":1626,"x_min":8,"x_max":1618,"o":"m 1075 381 l 950 381 l 950 0 l 676 0 l 676 381 l 551 381 l 331 0 l 8 0 l 307 504 l 49 972 l 360 972 l 557 611 l 676 611 l 676 972 l 950 972 l 950 611 l 1069 611 l 1267 972 l 1578 972 l 1321 503 l 1618 0 l 1296 0 l 1075 381 m 971 1047 q 882 1082 917 1047 q 847 1169 847 1117 q 882 1256 847 1222 q 971 1290 917 1290 q 1058 1256 1024 1290 q 1092 1169 1092 1222 q 1058 1081 1092 1115 q 971 1047 1024 1047 m 658 1047 q 569 1082 604 1047 q 535 1169 535 1117 q 569 1256 535 1222 q 658 1290 604 1290 q 745 1256 711 1290 q 779 1169 779 1222 q 745 1081 779 1115 q 658 1047 711 1047 z "},"Ӟ":{"ha":879,"x_min":22,"x_max":836,"o":"m 436 -17 q 201 26 300 -17 q 22 160 101 68 l 172 314 q 281 228 226 254 q 406 201 335 201 q 514 226 476 201 q 551 299 551 251 q 521 366 551 342 q 435 390 490 390 l 281 390 l 281 583 l 415 583 q 501 609 471 583 q 531 681 531 635 q 499 750 531 726 q 406 774 467 774 q 289 749 344 774 q 175 674 233 725 l 43 831 q 228 952 136 915 q 436 989 319 989 q 701 921 607 989 q 794 728 794 853 q 756 592 794 649 q 647 507 718 535 q 788 418 740 481 q 836 264 836 356 q 732 57 836 131 q 436 -17 628 -17 m 593 1047 q 504 1082 539 1047 q 469 1169 469 1117 q 505 1256 469 1222 q 593 1290 540 1290 q 681 1256 646 1290 q 715 1169 715 1222 q 681 1081 715 1115 q 593 1047 646 1047 m 282 1047 q 193 1082 228 1047 q 158 1169 158 1117 q 193 1256 158 1222 q 282 1290 228 1290 q 369 1256 335 1290 q 403 1169 403 1222 q 369 1081 403 1115 q 282 1047 335 1047 z "},"Ӣ":{"ha":1092,"x_min":92,"x_max":1000,"o":"m 92 972 l 356 972 l 356 457 l 351 154 l 410 418 l 544 972 l 1000 972 l 1000 0 l 735 0 l 735 515 l 739 813 l 682 554 l 547 0 l 92 0 l 92 972 m 322 1239 l 768 1239 l 768 1068 l 322 1068 l 322 1239 z "},"Ӥ":{"ha":1092,"x_min":92,"x_max":1000,"o":"m 92 972 l 356 972 l 356 457 l 351 154 l 410 418 l 544 972 l 1000 972 l 1000 0 l 735 0 l 735 515 l 739 813 l 682 554 l 547 0 l 92 0 l 92 972 m 703 1047 q 614 1082 649 1047 q 579 1169 579 1117 q 614 1256 579 1222 q 703 1290 649 1290 q 790 1256 756 1290 q 824 1169 824 1222 q 790 1081 824 1115 q 703 1047 756 1047 m 390 1047 q 301 1082 336 1047 q 267 1169 267 1117 q 302 1256 267 1222 q 390 1290 338 1290 q 478 1256 443 1290 q 513 1169 513 1222 q 478 1081 513 1115 q 390 1047 443 1047 z "},"Ӭ":{"ha":1029,"x_min":22,"x_max":985,"o":"m 482 -17 q 209 48 328 -17 q 22 233 90 113 l 221 375 q 464 229 315 229 q 608 269 547 229 q 693 381 669 310 l 363 381 l 363 592 l 693 592 q 608 701 669 660 q 464 743 547 743 q 232 613 321 743 l 38 765 q 482 989 194 989 q 749 927 635 989 q 924 752 863 865 q 985 486 985 639 q 923 220 985 333 q 748 45 861 107 q 482 -17 635 -17 m 640 1047 q 551 1082 586 1047 q 517 1169 517 1117 q 551 1256 517 1222 q 640 1290 586 1290 q 727 1256 693 1290 q 761 1169 761 1222 q 727 1081 761 1115 q 640 1047 693 1047 m 328 1047 q 239 1082 274 1047 q 204 1169 204 1117 q 239 1256 204 1222 q 328 1290 274 1290 q 415 1256 381 1290 q 449 1169 449 1222 q 415 1081 449 1115 q 328 1047 381 1047 z "},"Ӯ":{"ha":957,"x_min":13,"x_max":940,"o":"m 419 297 l 276 297 l 13 972 l 315 972 l 418 682 l 490 472 l 553 682 l 644 972 l 940 972 l 608 0 l 310 0 l 419 297 m 258 1239 l 703 1239 l 703 1068 l 258 1068 l 258 1239 z "},"Ӱ":{"ha":957,"x_min":13,"x_max":940,"o":"m 419 297 l 276 297 l 13 972 l 315 972 l 418 682 l 490 472 l 553 682 l 644 972 l 940 972 l 608 0 l 310 0 l 419 297 m 638 1047 q 549 1082 583 1047 q 515 1169 515 1117 q 550 1256 515 1222 q 638 1290 585 1290 q 726 1256 692 1290 q 760 1169 760 1222 q 725 1081 760 1115 q 638 1047 690 1047 m 326 1047 q 238 1082 272 1047 q 203 1169 203 1117 q 238 1256 203 1222 q 326 1290 272 1290 q 413 1256 379 1290 q 447 1169 447 1222 q 413 1081 447 1115 q 326 1047 379 1047 z "},"Ӳ":{"ha":957,"x_min":13,"x_max":940,"o":"m 419 297 l 276 297 l 13 972 l 315 972 l 418 682 l 490 472 l 553 682 l 644 972 l 940 972 l 608 0 l 310 0 l 419 297 m 722 1354 l 883 1218 l 715 1049 l 517 1049 l 722 1354 m 401 1356 l 579 1238 l 442 1049 l 254 1049 l 401 1356 z "},"Ӵ":{"ha":986,"x_min":56,"x_max":894,"o":"m 615 417 q 354 282 533 282 q 133 369 210 282 q 56 617 56 456 l 56 972 l 335 972 l 335 661 q 371 534 335 578 q 475 490 407 490 q 579 534 543 490 q 615 661 615 578 l 615 972 l 894 972 l 894 0 l 615 0 l 615 417 m 632 1047 q 543 1082 578 1047 q 508 1169 508 1117 q 543 1256 508 1222 q 632 1290 578 1290 q 719 1256 685 1290 q 753 1169 753 1222 q 719 1081 753 1115 q 632 1047 685 1047 m 319 1047 q 231 1082 265 1047 q 196 1169 196 1117 q 231 1256 196 1222 q 319 1290 265 1290 q 407 1256 372 1290 q 442 1169 442 1222 q 407 1081 442 1115 q 319 1047 372 1047 z "},"Ӹ":{"ha":1390,"x_min":92,"x_max":1438,"o":"m 92 972 l 369 972 l 369 683 l 522 683 q 792 592 694 683 q 890 342 890 501 q 792 91 890 182 q 522 0 694 0 l 92 0 l 92 972 m 1019 972 l 1299 972 l 1299 0 l 1019 0 l 1019 972 m 1317 1047 q 1227 1081 1261 1047 q 1193 1169 1193 1115 q 1228 1256 1193 1222 q 1317 1290 1263 1290 q 1403 1256 1369 1290 q 1438 1169 1438 1222 q 1403 1081 1438 1115 q 1317 1047 1369 1047 m 1004 1047 q 915 1082 950 1047 q 881 1169 881 1117 q 915 1256 881 1222 q 1004 1290 950 1290 q 1091 1256 1057 1290 q 1125 1169 1125 1222 q 1091 1081 1125 1115 q 1004 1047 1057 1047 m 472 222 q 618 344 618 222 q 472 467 618 467 l 365 467 l 365 222 l 472 222 z "},"Ԝ":{"ha":1638,"x_min":39,"x_max":1597,"o":"m 39 972 l 325 972 l 418 478 l 467 161 l 517 478 l 611 972 l 1025 972 l 1121 478 l 1169 165 l 1218 478 l 1313 972 l 1597 972 l 1385 0 l 960 0 l 875 444 l 819 811 l 763 444 l 678 0 l 253 0 l 39 972 z "},"а":{"ha":829,"x_min":32,"x_max":758,"o":"m 274 -11 q 102 45 172 -11 q 32 203 32 101 q 101 365 32 306 q 290 425 169 425 l 519 425 q 485 514 519 483 q 385 544 451 544 q 291 526 335 544 q 200 469 247 508 l 90 629 q 241 710 163 685 q 418 735 319 735 q 669 656 581 735 q 758 435 758 578 l 758 0 l 526 0 l 526 124 q 419 23 486 57 q 274 -11 351 -11 m 281 222 q 376 158 281 158 q 484 194 446 158 q 522 293 522 229 l 522 329 l 344 292 q 297 267 314 285 q 281 222 281 249 z "},"б":{"ha":894,"x_min":50,"x_max":857,"o":"m 454 -17 q 159 99 268 -17 q 50 475 50 215 q 89 750 50 640 q 219 926 128 860 q 465 1021 310 992 l 803 1083 l 803 839 l 490 781 q 379 742 419 767 q 321 672 339 717 q 300 551 303 626 q 400 659 335 621 q 553 697 465 697 q 712 656 643 697 q 819 540 781 615 q 857 368 857 465 q 807 166 857 253 q 666 31 757 79 q 454 -17 575 -17 m 454 207 q 561 248 521 207 q 601 354 601 289 q 561 461 601 421 q 454 501 521 501 q 349 461 389 501 q 308 354 308 421 q 349 248 308 289 q 454 207 389 207 z "},"в":{"ha":772,"x_min":83,"x_max":735,"o":"m 83 721 l 474 721 q 640 673 579 721 q 701 542 701 625 q 666 438 701 481 q 567 376 631 394 q 690 313 644 361 q 735 192 735 264 q 668 51 735 103 q 488 0 601 0 l 83 0 l 83 721 m 410 161 q 467 178 447 161 q 488 225 488 194 q 467 274 488 257 q 410 290 447 290 l 332 290 l 332 161 l 410 161 m 397 438 q 453 453 433 438 q 474 499 474 469 q 454 545 474 529 q 397 561 435 561 l 332 561 l 332 438 l 397 438 z "},"г":{"ha":664,"x_min":83,"x_max":636,"o":"m 83 721 l 636 721 l 636 492 l 344 492 l 344 0 l 83 0 l 83 721 z "},"ѓ":{"ha":664,"x_min":83,"x_max":636,"o":"m 83 721 l 636 721 l 636 492 l 344 492 l 344 0 l 83 0 l 83 721 m 364 1086 l 564 982 l 417 801 l 249 801 l 364 1086 z "},"ґ":{"ha":664,"x_min":83,"x_max":636,"o":"m 83 721 l 385 721 l 385 888 l 636 888 l 636 492 l 344 492 l 344 0 l 83 0 l 83 721 z "},"д":{"ha":978,"x_min":32,"x_max":944,"o":"m 32 242 l 57 242 q 148 267 119 242 q 182 356 176 293 l 206 721 l 825 721 l 825 243 l 944 243 l 944 -182 l 696 -182 l 696 0 l 281 0 l 281 -182 l 32 -182 l 32 242 m 576 228 l 576 510 l 436 510 l 429 374 q 416 287 426 321 q 382 228 406 253 l 576 228 z "},"е":{"ha":844,"x_min":38,"x_max":814,"o":"m 443 -17 q 231 30 322 -17 q 88 162 139 76 q 38 358 38 247 q 87 556 38 469 q 224 690 136 642 q 425 738 313 738 q 628 687 540 738 q 765 547 717 636 q 814 349 814 458 q 810 286 814 318 l 283 286 q 340 202 296 232 q 454 172 385 172 q 639 244 565 172 l 765 96 q 623 13 707 43 q 443 -17 539 -17 m 574 442 q 428 553 543 553 q 317 510 357 553 q 278 392 278 467 l 574 442 z "},"ѐ":{"ha":844,"x_min":38,"x_max":814,"o":"m 443 -17 q 231 30 322 -17 q 88 162 139 76 q 38 358 38 247 q 87 556 38 469 q 224 690 136 642 q 425 738 313 738 q 628 687 540 738 q 765 547 717 636 q 814 349 814 458 q 810 286 814 318 l 283 286 q 340 202 296 232 q 454 172 385 172 q 639 244 565 172 l 765 96 q 623 13 707 43 q 443 -17 539 -17 m 207 982 l 406 1086 l 522 801 l 353 801 l 207 982 m 574 442 q 428 553 543 553 q 317 510 357 553 q 278 392 278 467 l 574 442 z "},"ё":{"ha":844,"x_min":38,"x_max":814,"o":"m 443 -17 q 231 30 322 -17 q 88 162 139 76 q 38 358 38 247 q 87 556 38 469 q 224 690 136 642 q 425 738 313 738 q 628 687 540 738 q 765 547 717 636 q 814 349 814 458 q 810 286 814 318 l 283 286 q 340 202 296 232 q 454 172 385 172 q 639 244 565 172 l 765 96 q 623 13 707 43 q 443 -17 539 -17 m 574 800 q 488 833 521 800 q 454 917 454 867 q 488 1000 454 967 q 574 1033 522 1033 q 660 999 626 1033 q 693 917 693 965 q 659 833 693 867 q 574 800 625 800 m 275 800 q 189 833 222 800 q 156 917 156 867 q 190 1000 156 967 q 275 1033 224 1033 q 361 999 328 1033 q 394 917 394 965 q 360 833 394 867 q 275 800 326 800 m 574 442 q 428 553 543 553 q 317 510 357 553 q 278 392 278 467 l 574 442 z "},"ж":{"ha":1338,"x_min":8,"x_max":1329,"o":"m 876 263 l 797 263 l 797 0 l 540 0 l 540 263 l 461 263 l 311 0 l 8 0 l 228 372 l 36 721 l 328 721 l 461 475 l 540 475 l 540 721 l 797 721 l 797 475 l 876 475 l 1010 721 l 1300 721 l 1110 372 l 1329 0 l 1026 0 l 876 263 z "},"з":{"ha":703,"x_min":19,"x_max":665,"o":"m 349 -15 q 161 15 242 -15 q 19 108 81 44 l 132 243 q 221 185 175 204 q 322 167 267 167 q 422 225 422 167 q 342 281 422 281 l 215 281 l 215 443 l 329 443 q 390 458 368 443 q 411 499 411 472 q 321 554 411 554 q 140 482 226 554 l 38 625 q 357 736 167 736 q 560 686 489 736 q 632 544 632 636 q 603 443 632 486 q 525 379 575 400 q 628 311 592 358 q 665 196 665 264 q 583 40 665 94 q 349 -15 500 -15 z "},"и":{"ha":911,"x_min":83,"x_max":828,"o":"m 83 721 l 321 721 l 321 383 l 317 156 l 358 340 l 446 721 l 828 721 l 828 0 l 590 0 l 590 338 l 594 565 l 551 379 l 465 0 l 83 0 l 83 721 z "},"й":{"ha":911,"x_min":83,"x_max":828,"o":"m 83 721 l 321 721 l 321 383 l 317 156 l 358 340 l 446 721 l 828 721 l 828 0 l 590 0 l 590 338 l 594 565 l 551 379 l 465 0 l 83 0 l 83 721 m 456 790 q 284 851 344 790 q 219 1028 224 913 l 372 1035 q 397 961 375 986 q 456 936 418 936 q 515 961 494 936 q 539 1035 536 986 l 692 1028 q 627 851 688 913 q 456 790 567 790 z "},"ѝ":{"ha":911,"x_min":83,"x_max":828,"o":"m 83 721 l 321 721 l 321 383 l 317 156 l 358 340 l 446 721 l 828 721 l 828 0 l 590 0 l 590 338 l 594 565 l 551 379 l 465 0 l 83 0 l 83 721 m 238 982 l 438 1086 l 553 801 l 385 801 l 238 982 z "},"к":{"ha":890,"x_min":83,"x_max":882,"o":"m 425 263 l 344 263 l 344 0 l 83 0 l 83 721 l 344 721 l 344 475 l 425 475 l 563 721 l 853 721 l 657 374 l 882 0 l 578 0 l 425 263 z "},"ќ":{"ha":890,"x_min":83,"x_max":882,"o":"m 425 263 l 344 263 l 344 0 l 83 0 l 83 721 l 344 721 l 344 475 l 425 475 l 563 721 l 853 721 l 657 374 l 882 0 l 578 0 l 425 263 m 481 1086 l 679 982 l 533 801 l 364 801 l 481 1086 z "},"л":{"ha":901,"x_min":35,"x_max":819,"o":"m 35 236 l 53 236 q 127 257 106 236 q 151 331 149 278 l 178 721 l 819 721 l 819 0 l 558 0 l 558 485 l 417 485 l 406 317 q 362 123 397 190 q 254 28 326 56 q 53 0 182 0 l 35 0 l 35 236 z "},"м":{"ha":1203,"x_min":38,"x_max":1167,"o":"m 136 721 l 519 721 l 574 403 l 601 231 l 629 403 l 683 721 l 1067 721 l 1167 0 l 903 0 l 874 297 l 851 567 l 811 296 l 776 75 l 428 75 l 393 296 l 351 561 l 331 297 l 301 0 l 38 0 l 136 721 z "},"н":{"ha":868,"x_min":83,"x_max":785,"o":"m 524 251 l 344 251 l 344 0 l 83 0 l 83 721 l 344 721 l 344 486 l 524 486 l 524 721 l 785 721 l 785 0 l 524 0 l 524 251 z "},"о":{"ha":894,"x_min":36,"x_max":857,"o":"m 447 -17 q 233 31 326 -17 q 88 165 140 79 q 36 360 36 250 q 88 556 36 469 q 233 690 140 642 q 447 738 326 738 q 661 690 568 738 q 806 556 754 642 q 857 360 857 469 q 806 165 857 250 q 661 31 754 79 q 447 -17 568 -17 m 447 207 q 557 249 515 207 q 599 360 599 292 q 557 472 599 429 q 447 514 515 514 q 338 472 379 514 q 296 360 296 429 q 338 249 296 292 q 447 207 379 207 z "},"п":{"ha":868,"x_min":83,"x_max":785,"o":"m 83 721 l 785 721 l 785 0 l 524 0 l 524 481 l 344 481 l 344 0 l 83 0 l 83 721 z "},"р":{"ha":947,"x_min":83,"x_max":901,"o":"m 604 -17 q 447 26 513 -17 q 344 151 381 69 l 344 -250 l 83 -250 l 83 721 l 333 721 l 333 540 q 436 685 367 635 q 604 735 506 735 q 822 635 743 735 q 901 360 901 536 q 822 83 901 183 q 604 -17 743 -17 m 490 207 q 601 249 558 207 q 643 360 643 292 q 601 472 643 429 q 490 514 560 514 q 381 472 422 514 q 339 360 339 429 q 381 249 339 292 q 490 207 422 207 z "},"с":{"ha":774,"x_min":38,"x_max":763,"o":"m 424 -17 q 224 31 313 -17 q 87 163 136 78 q 38 360 38 249 q 86 556 38 469 q 222 690 135 642 q 421 738 310 738 q 609 698 524 738 q 751 583 694 658 l 586 444 q 522 496 558 478 q 444 514 486 514 q 338 472 379 514 q 297 360 297 429 q 338 249 297 290 q 444 207 378 207 q 596 289 539 207 l 763 151 q 617 26 706 69 q 424 -17 528 -17 z "},"т":{"ha":726,"x_min":29,"x_max":697,"o":"m 232 492 l 29 492 l 29 721 l 697 721 l 697 492 l 493 492 l 493 0 l 232 0 l 232 492 z "},"у":{"ha":838,"x_min":11,"x_max":828,"o":"m 133 -117 l 193 -117 q 281 -100 253 -117 q 328 -33 308 -83 l 342 0 l 233 0 l 11 721 l 285 721 l 376 343 l 421 147 l 464 343 l 554 721 l 828 721 l 575 -106 q 504 -247 547 -194 q 392 -322 461 -299 q 218 -344 324 -344 l 133 -344 l 133 -117 z "},"ў":{"ha":838,"x_min":11,"x_max":828,"o":"m 133 -117 l 193 -117 q 281 -100 253 -117 q 328 -33 308 -83 l 342 0 l 233 0 l 11 721 l 285 721 l 376 343 l 421 147 l 464 343 l 554 721 l 828 721 l 575 -106 q 504 -247 547 -194 q 392 -322 461 -299 q 218 -344 324 -344 l 133 -344 l 133 -117 m 421 790 q 249 851 310 790 q 185 1028 189 913 l 338 1035 q 362 961 340 986 q 421 936 383 936 q 481 961 460 936 q 504 1035 501 986 l 657 1028 q 592 851 653 913 q 421 790 532 790 z "},"ф":{"ha":1133,"x_min":36,"x_max":1097,"o":"m 436 -7 q 226 41 317 -6 q 85 169 135 88 q 36 360 36 251 q 85 551 36 468 q 226 680 135 633 q 436 728 317 726 l 436 972 l 697 972 l 697 728 q 908 680 817 726 q 1048 551 999 633 q 1097 360 1097 468 q 1048 169 1097 251 q 908 41 999 88 q 697 -7 817 -6 l 697 -250 l 436 -250 l 436 -7 m 285 360 q 329 244 285 288 q 446 200 374 201 l 446 521 q 329 475 374 518 q 285 360 285 432 m 688 200 q 804 244 760 201 q 849 360 849 288 q 804 475 849 432 q 688 521 760 518 l 688 200 z "},"х":{"ha":825,"x_min":21,"x_max":804,"o":"m 467 121 l 413 257 l 360 121 l 307 0 l 21 0 l 217 365 l 39 721 l 317 721 l 363 604 l 413 471 l 461 604 l 508 721 l 786 721 l 608 365 l 804 0 l 519 0 l 467 121 z "},"ц":{"ha":938,"x_min":83,"x_max":904,"o":"m 656 0 l 83 0 l 83 721 l 344 721 l 344 238 l 524 238 l 524 721 l 785 721 l 785 243 l 904 243 l 904 -182 l 656 -182 l 656 0 z "},"ч":{"ha":822,"x_min":51,"x_max":740,"o":"m 479 299 q 275 196 407 196 q 110 260 168 196 q 51 435 51 324 l 51 721 l 313 721 l 313 481 q 334 408 313 433 q 396 383 356 383 q 457 408 435 383 q 479 481 479 433 l 479 721 l 740 721 l 740 0 l 479 0 l 479 299 z "},"ш":{"ha":1294,"x_min":83,"x_max":1211,"o":"m 83 721 l 344 721 l 344 238 l 521 238 l 521 721 l 772 721 l 772 238 l 950 238 l 950 721 l 1211 721 l 1211 0 l 83 0 l 83 721 z "},"щ":{"ha":1364,"x_min":83,"x_max":1329,"o":"m 1081 0 l 83 0 l 83 721 l 344 721 l 344 238 l 521 238 l 521 721 l 772 721 l 772 238 l 950 238 l 950 721 l 1211 721 l 1211 243 l 1329 243 l 1329 -182 l 1081 -182 l 1081 0 z "},"џ":{"ha":868,"x_min":83,"x_max":785,"o":"m 83 721 l 344 721 l 344 238 l 524 238 l 524 721 l 785 721 l 785 0 l 558 0 l 558 -182 l 310 -182 l 310 0 l 83 0 l 83 721 z "},"ь":{"ha":749,"x_min":83,"x_max":740,"o":"m 83 721 l 344 721 l 344 528 l 451 528 q 661 456 582 528 q 740 264 740 385 q 661 72 740 143 q 451 0 582 0 l 83 0 l 83 721 m 403 193 q 489 267 489 193 q 403 339 489 339 l 339 339 l 339 193 l 403 193 z "},"ы":{"ha":1175,"x_min":83,"x_max":1093,"o":"m 83 721 l 344 721 l 344 528 l 451 528 q 661 456 582 528 q 740 264 740 385 q 661 72 740 143 q 451 0 582 0 l 83 0 l 83 721 m 403 193 q 489 267 489 193 q 403 339 489 339 l 339 339 l 339 193 l 403 193 m 832 721 l 1093 721 l 1093 0 l 832 0 l 832 721 z "},"ъ":{"ha":856,"x_min":31,"x_max":847,"o":"m 194 494 l 31 494 l 31 721 l 456 721 l 456 528 l 558 528 q 768 456 689 528 q 847 264 847 385 q 768 72 847 143 q 558 0 689 0 l 194 0 l 194 494 m 510 193 q 596 267 596 193 q 510 339 596 339 l 450 339 l 450 193 l 510 193 z "},"љ":{"ha":1188,"x_min":35,"x_max":1179,"o":"m 35 236 l 53 236 q 127 257 106 236 q 151 331 149 278 l 178 721 l 806 721 l 806 528 l 890 528 q 1100 456 1021 528 q 1179 264 1179 385 q 1100 72 1179 143 q 890 0 1021 0 l 544 0 l 544 485 l 417 485 l 404 311 q 361 129 396 197 q 258 31 326 61 q 78 0 190 0 l 35 0 l 35 236 m 842 193 q 928 267 928 193 q 842 339 928 339 l 800 339 l 800 193 l 842 193 z "},"њ":{"ha":1156,"x_min":83,"x_max":1147,"o":"m 501 267 l 344 267 l 344 0 l 83 0 l 83 721 l 344 721 l 344 501 l 501 501 l 501 721 l 763 721 l 763 517 l 858 517 q 1009 485 943 517 q 1111 394 1075 453 q 1147 258 1147 335 q 1111 123 1147 182 q 1009 32 1075 64 q 858 0 943 0 l 501 0 l 501 267 m 810 193 q 874 210 851 193 q 896 261 896 228 q 874 310 896 293 q 810 328 851 328 l 758 328 l 758 193 l 810 193 z "},"ѕ":{"ha":724,"x_min":26,"x_max":686,"o":"m 385 -15 q 188 19 283 -15 q 26 117 93 53 l 140 265 q 252 198 182 228 q 375 168 322 168 q 426 179 408 168 q 443 210 443 190 q 413 251 443 236 q 319 282 383 265 q 191 324 242 303 q 103 392 140 346 q 65 514 65 438 q 137 676 65 617 q 336 736 208 736 q 506 708 422 736 q 654 625 589 679 l 543 478 q 451 533 506 510 q 356 556 397 556 q 315 545 329 556 q 301 517 301 535 q 331 477 301 492 q 425 446 361 463 q 557 402 506 424 q 647 334 608 381 q 686 211 686 288 q 606 44 686 104 q 385 -15 525 -15 z "},"є":{"ha":786,"x_min":38,"x_max":775,"o":"m 428 -17 q 222 29 310 -17 q 85 160 133 75 q 38 360 38 246 q 85 559 38 474 q 219 691 132 644 q 421 738 306 738 q 612 697 526 738 q 758 581 697 657 l 608 443 q 531 515 572 492 q 436 538 489 538 q 339 513 381 538 q 279 447 297 489 l 493 447 l 493 275 l 278 275 q 339 207 296 232 q 440 182 382 182 q 540 208 496 182 q 622 286 585 233 l 775 149 q 626 25 714 67 q 428 -17 538 -17 z "},"э":{"ha":786,"x_min":11,"x_max":749,"o":"m 358 -17 q 11 149 135 -17 l 165 285 q 247 207 203 232 q 347 182 292 182 q 448 207 406 182 q 508 275 490 232 l 293 275 l 293 447 l 507 447 q 447 513 489 489 q 350 538 406 538 q 256 515 297 538 q 178 443 214 492 l 28 581 q 174 697 88 657 q 365 738 260 738 q 567 691 481 738 q 701 559 654 644 q 749 360 749 474 q 701 160 749 246 q 565 29 653 75 q 358 -17 476 -17 z "},"і":{"ha":426,"x_min":61,"x_max":365,"o":"m 83 721 l 344 721 l 344 0 l 83 0 l 83 721 m 214 792 q 103 833 144 792 q 61 939 61 874 q 103 1045 61 1004 q 214 1086 144 1086 q 324 1045 283 1086 q 365 939 365 1004 q 324 833 365 874 q 214 792 282 792 z "},"ї":{"ha":426,"x_min":-42,"x_max":468,"o":"m 83 721 l 344 721 l 344 0 l 83 0 l 83 721 m 354 800 q 271 833 303 800 q 239 915 239 867 q 272 998 239 965 q 354 1031 304 1031 q 436 997 404 1031 q 468 915 468 964 q 436 833 468 867 q 354 800 404 800 m 72 800 q -10 833 22 800 q -42 915 -42 867 q -10 998 -42 965 q 72 1031 22 1031 q 155 997 122 1031 q 188 915 188 964 q 155 833 188 867 q 72 800 122 800 z "},"ј":{"ha":431,"x_min":-54,"x_max":369,"o":"m -54 -108 l -4 -108 q 66 -87 44 -108 q 88 -17 88 -65 l 88 721 l 349 721 l 349 -49 q 279 -267 349 -199 q 61 -336 210 -336 l -54 -336 l -54 -108 m 218 792 q 107 833 149 792 q 65 939 65 874 q 107 1045 65 1004 q 218 1086 149 1086 q 328 1045 288 1086 q 369 939 369 1004 q 328 833 369 874 q 218 792 286 792 z "},"ћ":{"ha":900,"x_min":-11,"x_max":829,"o":"m 93 731 l -11 731 l -11 901 l 93 901 l 93 972 l 354 972 l 354 901 l 542 901 l 542 742 l 354 742 l 354 542 q 440 664 381 621 q 586 707 500 707 q 766 632 703 707 q 829 419 829 557 l 829 0 l 568 0 l 568 351 q 540 444 568 411 q 461 478 513 478 q 382 444 410 478 q 354 351 354 411 l 354 0 l 93 0 l 93 731 z "},"ю":{"ha":1249,"x_min":83,"x_max":1211,"o":"m 814 -17 q 566 56 668 -17 q 431 251 464 129 l 344 251 l 344 0 l 83 0 l 83 721 l 344 721 l 344 486 l 436 486 q 574 669 474 601 q 814 738 674 738 q 1021 690 931 738 q 1161 556 1111 642 q 1211 360 1211 469 q 1161 165 1211 250 q 1021 31 1111 79 q 814 -17 931 -17 m 807 207 q 913 249 872 207 q 953 360 953 292 q 913 472 953 429 q 807 514 872 514 q 701 472 742 514 q 661 360 661 429 q 701 249 661 292 q 807 207 742 207 z "},"я":{"ha":807,"x_min":36,"x_max":724,"o":"m 465 188 l 388 188 l 314 0 l 36 0 l 146 253 q 54 454 54 324 q 140 650 54 579 q 379 721 226 721 l 724 721 l 724 0 l 465 0 l 465 188 m 317 446 q 417 371 317 371 l 468 371 l 468 521 l 417 521 q 317 446 317 521 z "},"ђ":{"ha":900,"x_min":-11,"x_max":829,"o":"m 426 -108 l 475 -108 q 547 -87 525 -108 q 568 -17 568 -65 l 568 351 q 540 444 568 411 q 461 478 513 478 q 382 444 410 478 q 354 351 354 411 l 354 0 l 93 0 l 93 731 l -11 731 l -11 901 l 93 901 l 93 972 l 354 972 l 354 901 l 542 901 l 542 742 l 354 742 l 354 542 q 440 664 381 621 q 586 707 500 707 q 766 632 703 707 q 829 419 829 557 l 829 -49 q 760 -267 829 -199 q 542 -336 690 -336 l 426 -336 l 426 -108 z "},"ү":{"ha":838,"x_min":11,"x_max":826,"o":"m 11 721 l 285 721 l 378 343 l 419 146 l 460 343 l 551 721 l 826 721 l 601 0 l 549 0 l 549 -250 l 288 -250 l 288 0 l 235 0 l 11 721 z "},"ӂ":{"ha":1338,"x_min":8,"x_max":1329,"o":"m 876 263 l 797 263 l 797 0 l 540 0 l 540 263 l 461 263 l 311 0 l 8 0 l 228 372 l 36 721 l 328 721 l 461 475 l 540 475 l 540 721 l 797 721 l 797 475 l 876 475 l 1010 721 l 1300 721 l 1110 372 l 1329 0 l 1026 0 l 876 263 m 668 790 q 497 851 557 790 q 432 1028 436 913 l 585 1035 q 609 961 588 986 q 668 936 631 936 q 728 961 707 936 q 751 1035 749 986 l 904 1028 q 840 851 900 913 q 668 790 779 790 z "},"ӑ":{"ha":829,"x_min":32,"x_max":758,"o":"m 274 -11 q 102 45 172 -11 q 32 203 32 101 q 101 365 32 306 q 290 425 169 425 l 519 425 q 485 514 519 483 q 385 544 451 544 q 291 526 335 544 q 200 469 247 508 l 90 629 q 241 710 163 685 q 418 735 319 735 q 669 656 581 735 q 758 435 758 578 l 758 0 l 526 0 l 526 124 q 419 23 486 57 q 274 -11 351 -11 m 418 790 q 247 851 307 790 q 182 1028 186 913 l 335 1035 q 359 961 338 986 q 418 936 381 936 q 478 961 457 936 q 501 1035 499 986 l 654 1028 q 590 851 650 913 q 418 790 529 790 m 281 222 q 376 158 281 158 q 484 194 446 158 q 522 293 522 229 l 522 329 l 344 292 q 297 267 314 285 q 281 222 281 249 z "},"ӓ":{"ha":829,"x_min":32,"x_max":758,"o":"m 274 -11 q 102 45 172 -11 q 32 203 32 101 q 101 365 32 306 q 290 425 169 425 l 519 425 q 485 514 519 483 q 385 544 451 544 q 291 526 335 544 q 200 469 247 508 l 90 629 q 241 710 163 685 q 418 735 319 735 q 669 656 581 735 q 758 435 758 578 l 758 0 l 526 0 l 526 124 q 419 23 486 57 q 274 -11 351 -11 m 567 800 q 481 833 514 800 q 447 917 447 867 q 481 1000 447 967 q 567 1033 515 1033 q 653 999 619 1033 q 686 917 686 965 q 652 833 686 867 q 567 800 618 800 m 268 800 q 182 833 215 800 q 149 917 149 867 q 183 1000 149 967 q 268 1033 217 1033 q 354 999 321 1033 q 388 917 388 965 q 353 833 388 867 q 268 800 319 800 m 281 222 q 376 158 281 158 q 484 194 446 158 q 522 293 522 229 l 522 329 l 344 292 q 297 267 314 285 q 281 222 281 249 z "},"ӕ":{"ha":1258,"x_min":32,"x_max":1229,"o":"m 315 -17 q 110 42 188 -17 q 32 207 32 100 q 99 366 32 307 q 281 425 165 425 l 496 425 q 371 544 493 544 q 284 527 325 544 q 196 469 243 510 l 90 631 q 376 735 222 735 q 618 608 546 735 q 726 704 661 671 q 879 738 792 738 q 1065 690 986 738 q 1187 557 1144 642 q 1229 364 1229 472 q 1224 286 1229 321 l 722 286 q 776 202 733 232 q 883 172 818 172 q 1058 246 982 172 l 1181 94 q 1047 13 1125 42 q 882 -17 968 -17 q 611 126 700 -17 q 315 -17 517 -17 m 281 222 q 365 158 281 158 q 463 194 426 158 q 499 294 499 231 l 499 328 l 336 292 q 294 267 308 286 q 281 222 281 249 m 990 440 q 944 524 979 494 q 854 553 910 553 q 752 510 789 553 q 717 392 715 468 l 990 440 z "},"ӗ":{"ha":844,"x_min":38,"x_max":814,"o":"m 443 -17 q 231 30 322 -17 q 88 162 139 76 q 38 358 38 247 q 87 556 38 469 q 224 690 136 642 q 425 738 313 738 q 628 687 540 738 q 765 547 717 636 q 814 349 814 458 q 810 286 814 318 l 283 286 q 340 202 296 232 q 454 172 385 172 q 639 244 565 172 l 765 96 q 623 13 707 43 q 443 -17 539 -17 m 424 790 q 252 851 313 790 q 188 1028 192 913 l 340 1035 q 365 961 343 986 q 424 936 386 936 q 483 961 463 936 q 507 1035 504 986 l 660 1028 q 595 851 656 913 q 424 790 535 790 m 574 442 q 428 553 543 553 q 317 510 357 553 q 278 392 278 467 l 574 442 z "},"ә":{"ha":844,"x_min":31,"x_max":807,"o":"m 401 738 q 614 691 522 738 q 756 559 706 644 q 807 363 807 474 q 758 165 807 251 q 620 31 708 79 q 419 -17 532 -17 q 216 34 304 -17 q 79 174 128 85 q 31 372 31 263 q 35 435 31 404 l 561 435 q 504 519 549 489 q 390 549 460 549 q 206 476 279 549 l 79 625 q 222 708 138 678 q 401 738 306 738 m 271 279 q 417 168 301 168 q 527 211 488 168 q 567 329 567 254 l 271 279 z "},"ӝ":{"ha":1338,"x_min":8,"x_max":1329,"o":"m 876 263 l 797 263 l 797 0 l 540 0 l 540 263 l 461 263 l 311 0 l 8 0 l 228 372 l 36 721 l 328 721 l 461 475 l 540 475 l 540 721 l 797 721 l 797 475 l 876 475 l 1010 721 l 1300 721 l 1110 372 l 1329 0 l 1026 0 l 876 263 m 818 800 q 732 833 765 800 q 699 917 699 867 q 733 1000 699 967 q 818 1033 767 1033 q 904 999 871 1033 q 938 917 938 965 q 903 833 938 867 q 818 800 869 800 m 519 800 q 433 833 467 800 q 400 917 400 867 q 434 1000 400 967 q 519 1033 468 1033 q 606 999 572 1033 q 639 917 639 965 q 605 833 639 867 q 519 800 571 800 z "},"ӟ":{"ha":703,"x_min":19,"x_max":665,"o":"m 349 -15 q 161 15 242 -15 q 19 108 81 44 l 132 243 q 221 185 175 204 q 322 167 267 167 q 422 225 422 167 q 342 281 422 281 l 215 281 l 215 443 l 329 443 q 390 458 368 443 q 411 499 411 472 q 321 554 411 554 q 140 482 226 554 l 38 625 q 357 736 167 736 q 560 686 489 736 q 632 544 632 636 q 603 443 632 486 q 525 379 575 400 q 628 311 592 358 q 665 196 665 264 q 583 40 665 94 q 349 -15 500 -15 m 507 800 q 421 833 454 800 q 388 917 388 867 q 422 1000 388 967 q 507 1033 456 1033 q 593 999 560 1033 q 626 917 626 965 q 592 833 626 867 q 507 800 558 800 m 208 800 q 122 833 156 800 q 89 917 89 867 q 123 1000 89 967 q 208 1033 157 1033 q 294 999 261 1033 q 328 917 328 965 q 294 833 328 867 q 208 800 260 800 z "},"ӣ":{"ha":911,"x_min":83,"x_max":828,"o":"m 83 721 l 321 721 l 321 383 l 317 156 l 358 340 l 446 721 l 828 721 l 828 0 l 590 0 l 590 338 l 594 565 l 551 379 l 465 0 l 83 0 l 83 721 m 243 992 l 668 992 l 668 825 l 243 825 l 243 992 z "},"ӥ":{"ha":911,"x_min":83,"x_max":828,"o":"m 83 721 l 321 721 l 321 383 l 317 156 l 358 340 l 446 721 l 828 721 l 828 0 l 590 0 l 590 338 l 594 565 l 551 379 l 465 0 l 83 0 l 83 721 m 606 800 q 519 833 553 800 q 486 917 486 867 q 520 1000 486 967 q 606 1033 554 1033 q 692 999 658 1033 q 725 917 725 965 q 691 833 725 867 q 606 800 657 800 m 307 800 q 221 833 254 800 q 188 917 188 867 q 222 1000 188 967 q 307 1033 256 1033 q 393 999 360 1033 q 426 917 426 965 q 392 833 426 867 q 307 800 358 800 z "},"ӭ":{"ha":786,"x_min":11,"x_max":749,"o":"m 358 -17 q 11 149 135 -17 l 165 285 q 247 207 203 232 q 347 182 292 182 q 448 207 406 182 q 508 275 490 232 l 293 275 l 293 447 l 507 447 q 447 513 489 489 q 350 538 406 538 q 256 515 297 538 q 178 443 214 492 l 28 581 q 174 697 88 657 q 365 738 260 738 q 567 691 481 738 q 701 559 654 644 q 749 360 749 474 q 701 160 749 246 q 565 29 653 75 q 358 -17 476 -17 m 514 800 q 428 833 461 800 q 394 917 394 867 q 428 1000 394 967 q 514 1033 463 1033 q 600 999 567 1033 q 633 917 633 965 q 599 833 633 867 q 514 800 565 800 m 215 800 q 129 833 163 800 q 96 917 96 867 q 130 1000 96 967 q 215 1033 164 1033 q 301 999 268 1033 q 335 917 335 965 q 301 833 335 867 q 215 800 267 800 z "},"ӯ":{"ha":838,"x_min":11,"x_max":828,"o":"m 133 -117 l 193 -117 q 281 -100 253 -117 q 328 -33 308 -83 l 342 0 l 233 0 l 11 721 l 285 721 l 376 343 l 421 147 l 464 343 l 554 721 l 828 721 l 575 -106 q 504 -247 547 -194 q 392 -322 461 -299 q 218 -344 324 -344 l 133 -344 l 133 -117 m 208 992 l 632 992 l 632 825 l 208 825 l 208 992 z "},"ӱ":{"ha":838,"x_min":11,"x_max":828,"o":"m 133 -117 l 193 -117 q 281 -100 253 -117 q 328 -33 308 -83 l 342 0 l 233 0 l 11 721 l 285 721 l 376 343 l 421 147 l 464 343 l 554 721 l 828 721 l 575 -106 q 504 -247 547 -194 q 392 -322 461 -299 q 218 -344 324 -344 l 133 -344 l 133 -117 m 569 800 q 483 833 517 800 q 450 917 450 867 q 484 1000 450 967 q 569 1033 518 1033 q 656 999 622 1033 q 689 917 689 965 q 655 833 689 867 q 569 800 621 800 m 271 800 q 185 833 218 800 q 151 917 151 867 q 185 1000 151 967 q 271 1033 219 1033 q 357 999 324 1033 q 390 917 390 965 q 356 833 390 867 q 271 800 322 800 z "},"ӳ":{"ha":838,"x_min":11,"x_max":828,"o":"m 133 -117 l 193 -117 q 281 -100 253 -117 q 328 -33 308 -83 l 342 0 l 233 0 l 11 721 l 285 721 l 376 343 l 421 147 l 464 343 l 554 721 l 828 721 l 575 -106 q 504 -247 547 -194 q 392 -322 461 -299 q 218 -344 324 -344 l 133 -344 l 133 -117 m 643 1110 l 797 981 l 635 801 l 446 801 l 643 1110 m 336 1111 l 507 997 l 376 801 l 199 801 l 336 1111 z "},"ӵ":{"ha":822,"x_min":51,"x_max":740,"o":"m 479 299 q 275 196 407 196 q 110 260 168 196 q 51 435 51 324 l 51 721 l 313 721 l 313 481 q 334 408 313 433 q 396 383 356 383 q 457 408 435 383 q 479 481 479 433 l 479 721 l 740 721 l 740 0 l 479 0 l 479 299 m 540 800 q 454 833 488 800 q 421 917 421 867 q 455 1000 421 967 q 540 1033 489 1033 q 626 999 593 1033 q 660 917 660 965 q 626 833 660 867 q 540 800 592 800 m 242 800 q 156 833 189 800 q 122 917 122 867 q 156 1000 122 967 q 242 1033 190 1033 q 328 999 294 1033 q 361 917 361 965 q 327 833 361 867 q 242 800 293 800 z "},"ӹ":{"ha":1175,"x_min":83,"x_max":1231,"o":"m 83 721 l 344 721 l 344 528 l 451 528 q 661 456 582 528 q 740 264 740 385 q 661 72 740 143 q 451 0 582 0 l 83 0 l 83 721 m 832 721 l 1093 721 l 1093 0 l 832 0 l 832 721 m 1111 800 q 1025 833 1058 800 q 992 917 992 867 q 1026 1000 992 967 q 1111 1033 1060 1033 q 1197 999 1164 1033 q 1231 917 1231 965 q 1197 833 1231 867 q 1111 800 1163 800 m 813 800 q 726 833 760 800 q 693 917 693 867 q 727 1000 693 967 q 813 1033 761 1033 q 899 999 865 1033 q 932 917 932 965 q 898 833 932 867 q 813 800 864 800 m 403 193 q 489 267 489 193 q 403 339 489 339 l 339 339 l 339 193 l 403 193 z "},"ԝ":{"ha":1340,"x_min":36,"x_max":1304,"o":"m 36 721 l 301 721 l 358 403 l 397 149 l 433 403 l 486 721 l 856 721 l 907 403 l 943 149 l 982 403 l 1039 721 l 1304 721 l 1150 0 l 753 0 l 713 269 l 671 567 l 629 269 l 588 0 l 192 0 l 36 721 z "},"Α":{"ha":1068,"x_min":15,"x_max":1051,"o":"m 339 972 l 728 972 l 1051 0 l 761 0 l 715 150 l 353 150 l 307 0 l 15 0 l 339 972 m 660 343 l 579 622 l 533 806 l 489 622 l 408 343 l 660 343 z "},"Β":{"ha":928,"x_min":92,"x_max":885,"o":"m 92 972 l 557 972 q 766 908 689 972 q 843 735 843 844 q 797 590 843 650 q 669 507 751 531 q 828 420 771 486 q 885 257 885 354 q 801 69 885 139 q 576 0 718 0 l 92 0 l 92 972 m 497 193 q 588 219 556 193 q 619 294 619 246 q 588 369 619 343 q 497 396 556 396 l 358 396 l 358 193 l 497 193 m 475 581 q 563 607 532 581 q 594 682 594 633 q 563 756 594 731 q 475 782 532 782 l 358 782 l 358 581 l 475 581 z "},"Γ":{"ha":810,"x_min":92,"x_max":776,"o":"m 92 972 l 776 972 l 776 718 l 369 718 l 369 0 l 92 0 l 92 972 z "},"Δ":{"ha":1068,"x_min":15,"x_max":1051,"o":"m 339 972 l 728 972 l 1051 0 l 15 0 l 339 972 m 692 229 l 579 622 l 535 804 l 489 622 l 378 229 l 692 229 z "},"Ε":{"ha":842,"x_min":92,"x_max":792,"o":"m 92 972 l 775 972 l 775 760 l 364 760 l 364 596 l 710 596 l 710 386 l 364 386 l 364 217 l 792 217 l 792 0 l 92 0 l 92 972 z "},"Ζ":{"ha":913,"x_min":65,"x_max":846,"o":"m 65 363 l 396 610 l 565 735 l 319 731 l 85 731 l 85 972 l 831 972 l 831 619 l 496 368 l 325 247 l 576 251 l 846 251 l 846 0 l 65 0 l 65 363 z "},"Η":{"ha":1043,"x_min":92,"x_max":951,"o":"m 672 368 l 369 368 l 369 0 l 92 0 l 92 972 l 369 972 l 369 624 l 672 624 l 672 972 l 951 972 l 951 0 l 672 0 l 672 368 z "},"Θ":{"ha":1144,"x_min":44,"x_max":1099,"o":"m 572 -17 q 297 47 417 -17 q 110 224 176 110 q 44 486 44 338 q 110 749 44 635 q 297 926 176 863 q 572 989 417 989 q 847 926 728 989 q 1033 749 967 863 q 1099 486 1099 635 q 1033 224 1099 338 q 847 47 967 110 q 572 -17 728 -17 m 572 210 q 720 245 657 210 q 818 343 783 281 q 853 486 853 406 q 818 630 853 567 q 720 728 783 693 q 572 764 657 764 q 424 728 488 764 q 325 630 360 693 q 290 486 290 567 q 325 343 290 406 q 424 245 360 281 q 572 210 488 210 m 365 588 l 779 588 l 779 385 l 365 385 l 365 588 z "},"Ι":{"ha":461,"x_min":92,"x_max":369,"o":"m 92 972 l 369 972 l 369 0 l 92 0 l 92 972 z "},"Κ":{"ha":1057,"x_min":92,"x_max":1051,"o":"m 92 972 l 369 972 l 369 446 l 686 972 l 1017 972 l 700 494 l 1051 0 l 707 0 l 478 346 l 369 215 l 369 0 l 92 0 l 92 972 z "},"Λ":{"ha":1053,"x_min":15,"x_max":1036,"o":"m 332 972 l 721 972 l 1036 0 l 742 0 l 607 483 l 526 810 l 446 483 l 310 0 l 15 0 l 332 972 z "},"Μ":{"ha":1461,"x_min":42,"x_max":1418,"o":"m 169 972 l 608 972 l 693 500 l 731 267 l 767 500 l 853 972 l 1292 972 l 1418 0 l 1138 0 l 1088 489 l 1060 813 l 1007 489 l 929 107 l 531 107 l 454 489 l 401 813 l 374 489 l 322 0 l 42 0 l 169 972 z "},"Ν":{"ha":1092,"x_min":92,"x_max":1000,"o":"m 92 972 l 544 972 l 685 418 l 743 164 l 738 457 l 738 972 l 1000 972 l 1000 0 l 547 0 l 407 554 l 347 822 l 353 515 l 353 0 l 92 0 l 92 972 z "},"Ξ":{"ha":871,"x_min":49,"x_max":821,"o":"m 49 222 l 821 222 l 821 0 l 49 0 l 49 222 m 132 600 l 738 600 l 738 382 l 132 382 l 132 600 m 65 972 l 804 972 l 804 756 l 65 756 l 65 972 z "},"Ο":{"ha":1144,"x_min":44,"x_max":1099,"o":"m 572 -17 q 297 47 417 -17 q 110 224 176 110 q 44 486 44 338 q 110 749 44 635 q 297 926 176 863 q 572 989 417 989 q 847 926 728 989 q 1033 749 967 863 q 1099 486 1099 635 q 1033 224 1099 338 q 847 47 967 110 q 572 -17 728 -17 m 572 240 q 746 308 679 240 q 813 486 813 376 q 746 664 813 596 q 572 732 679 732 q 399 664 465 732 q 332 486 332 596 q 399 308 332 376 q 572 240 465 240 z "},"Π":{"ha":1043,"x_min":92,"x_max":951,"o":"m 92 972 l 951 972 l 951 0 l 672 0 l 672 717 l 369 717 l 369 0 l 92 0 l 92 972 z "},"Ρ":{"ha":918,"x_min":92,"x_max":881,"o":"m 92 972 l 496 972 q 778 877 676 972 q 881 615 881 782 q 778 353 881 447 q 496 258 676 258 l 369 258 l 369 0 l 92 0 l 92 972 m 464 481 q 570 515 532 481 q 608 610 608 549 q 570 706 608 671 q 464 740 532 740 l 365 740 l 365 481 l 464 481 z "},"Σ":{"ha":847,"x_min":68,"x_max":797,"o":"m 68 339 l 288 444 l 397 493 l 288 547 l 86 643 l 86 972 l 781 972 l 781 756 l 488 756 l 310 758 l 482 678 l 610 610 l 610 372 l 471 299 l 306 225 l 475 226 l 797 226 l 797 0 l 68 0 l 68 339 z "},"Τ":{"ha":889,"x_min":35,"x_max":853,"o":"m 306 718 l 35 718 l 35 972 l 853 972 l 853 718 l 583 718 l 583 0 l 306 0 l 306 718 z "},"Υ":{"ha":996,"x_min":13,"x_max":983,"o":"m 13 972 l 317 972 l 433 653 l 499 460 l 563 653 l 679 972 l 983 972 l 708 321 l 638 321 l 638 0 l 358 0 l 358 321 l 288 321 l 13 972 z "},"Φ":{"ha":1392,"x_min":44,"x_max":1347,"o":"m 557 -6 q 269 69 385 0 q 99 247 154 138 q 44 486 44 357 q 99 724 44 614 q 269 903 154 833 q 557 978 385 972 l 557 1135 l 835 1135 l 835 978 q 1122 903 1007 972 q 1292 724 1238 833 q 1347 486 1347 614 q 1292 247 1347 357 q 1122 69 1238 138 q 835 -6 1007 0 l 835 -162 l 557 -162 l 557 -6 m 321 486 q 383 311 321 379 q 565 238 444 243 l 565 735 q 383 661 444 729 q 321 486 321 593 m 826 238 q 1009 311 947 243 q 1071 486 1071 379 q 1009 661 1071 593 q 826 735 947 729 l 826 238 z "},"Χ":{"ha":1017,"x_min":31,"x_max":986,"o":"m 581 194 l 508 368 l 436 194 l 346 0 l 31 0 l 289 496 l 53 972 l 361 972 l 440 796 l 508 625 l 576 796 l 656 972 l 964 972 l 728 494 l 986 0 l 671 0 l 581 194 z "},"Ψ":{"ha":1228,"x_min":57,"x_max":1171,"o":"m 475 235 q 57 640 57 243 l 57 972 l 328 972 l 328 629 q 363 501 328 540 q 482 458 399 461 l 482 972 l 746 972 l 746 458 q 865 501 829 461 q 900 629 900 540 l 900 972 l 1171 972 l 1171 640 q 754 235 1171 243 l 754 0 l 475 0 l 475 235 z "},"Ω":{"ha":1154,"x_min":60,"x_max":1094,"o":"m 60 214 l 197 214 l 319 211 q 127 341 194 251 q 60 560 60 431 q 124 785 60 688 q 306 935 189 882 q 576 989 424 989 q 848 935 731 989 q 1030 785 965 882 q 1094 560 1094 688 q 1027 341 1094 431 q 835 211 960 251 l 957 214 l 1094 214 l 1094 0 l 654 0 l 654 324 q 767 400 728 349 q 807 522 807 451 q 743 674 807 615 q 576 732 679 732 q 411 674 475 732 q 347 522 347 615 q 387 400 347 451 q 500 324 426 349 l 500 0 l 60 0 l 60 214 z "},"Ά":{"ha":1068,"x_min":-42,"x_max":1051,"o":"m 339 972 l 728 972 l 1051 0 l 761 0 l 715 150 l 353 150 l 307 0 l 15 0 l 339 972 m 660 343 l 579 622 l 533 806 l 489 622 l 408 343 l 660 343 m 35 1025 l 246 951 l 119 722 l -42 722 l 35 1025 z "},"Έ":{"ha":842,"x_min":-226,"x_max":792,"o":"m 92 972 l 775 972 l 775 760 l 364 760 l 364 596 l 710 596 l 710 386 l 364 386 l 364 217 l 792 217 l 792 0 l 92 0 l 92 972 m -150 1025 l 61 951 l -65 722 l -226 722 l -150 1025 z "},"Ή":{"ha":1043,"x_min":-226,"x_max":951,"o":"m 672 368 l 369 368 l 369 0 l 92 0 l 92 972 l 369 972 l 369 624 l 672 624 l 672 972 l 951 972 l 951 0 l 672 0 l 672 368 m -150 1025 l 61 951 l -65 722 l -226 722 l -150 1025 z "},"Ί":{"ha":461,"x_min":-226,"x_max":369,"o":"m 92 972 l 369 972 l 369 0 l 92 0 l 92 972 m -150 1025 l 61 951 l -65 722 l -226 722 l -150 1025 z "},"Ό":{"ha":1144,"x_min":-149,"x_max":1099,"o":"m 572 -17 q 297 47 417 -17 q 110 224 176 110 q 44 486 44 338 q 110 749 44 635 q 297 926 176 863 q 572 989 417 989 q 847 926 728 989 q 1033 749 967 863 q 1099 486 1099 635 q 1033 224 1099 338 q 847 47 967 110 q 572 -17 728 -17 m 572 240 q 746 308 679 240 q 813 486 813 376 q 746 664 813 596 q 572 732 679 732 q 399 664 465 732 q 332 486 332 596 q 399 308 332 376 q 572 240 465 240 m -72 1025 l 139 951 l 13 722 l -149 722 l -72 1025 z "},"Ύ":{"ha":996,"x_min":-175,"x_max":983,"o":"m 51 879 l -17 722 l -175 722 l -128 1024 l 18 972 l 317 972 l 433 653 l 499 460 l 563 653 l 679 972 l 983 972 l 708 321 l 638 321 l 638 0 l 358 0 l 358 321 l 288 321 l 51 879 z "},"Ώ":{"ha":1154,"x_min":-136,"x_max":1094,"o":"m 60 214 l 197 214 l 319 211 q 127 341 194 251 q 60 560 60 431 q 124 785 60 688 q 306 935 189 882 q 576 989 424 989 q 848 935 731 989 q 1030 785 965 882 q 1094 560 1094 688 q 1027 341 1094 431 q 835 211 960 251 l 957 214 l 1094 214 l 1094 0 l 654 0 l 654 324 q 767 400 728 349 q 807 522 807 451 q 743 674 807 615 q 576 732 679 732 q 411 674 475 732 q 347 522 347 615 q 387 400 347 451 q 500 324 426 349 l 500 0 l 60 0 l 60 214 m -60 1025 l 151 951 l 25 722 l -136 722 l -60 1025 z "},"Ϊ":{"ha":461,"x_min":-33,"x_max":497,"o":"m 92 972 l 369 972 l 369 0 l 92 0 l 92 972 m 379 1047 q 293 1082 326 1047 q 260 1169 260 1117 q 293 1256 260 1222 q 379 1290 326 1290 q 464 1256 431 1290 q 497 1169 497 1222 q 464 1082 497 1117 q 379 1047 431 1047 m 86 1047 q 0 1082 33 1047 q -33 1169 -33 1117 q 0 1256 -33 1222 q 86 1290 33 1290 q 170 1256 138 1290 q 203 1169 203 1222 q 170 1081 203 1115 q 86 1047 138 1047 z "},"Ϋ":{"ha":996,"x_min":13,"x_max":983,"o":"m 13 972 l 317 972 l 433 653 l 499 460 l 563 653 l 679 972 l 983 972 l 708 321 l 638 321 l 638 0 l 358 0 l 358 321 l 288 321 l 13 972 m 656 1047 q 567 1082 601 1047 q 532 1169 532 1117 q 567 1256 532 1222 q 656 1290 601 1290 q 742 1256 708 1290 q 776 1169 776 1222 q 742 1081 776 1115 q 656 1047 708 1047 m 343 1047 q 254 1082 289 1047 q 219 1169 219 1117 q 254 1256 219 1222 q 343 1290 289 1290 q 430 1256 396 1290 q 464 1169 464 1222 q 430 1081 464 1115 q 343 1047 396 1047 z "},"Ϗ":{"ha":1114,"x_min":92,"x_max":1079,"o":"m 689 -99 l 731 -99 q 819 -24 819 -99 l 819 6 q 687 51 739 17 q 589 157 635 86 l 471 338 l 369 214 l 369 0 l 92 0 l 92 972 l 369 972 l 369 443 l 686 972 l 1017 972 l 694 485 l 815 317 q 880 255 850 269 q 976 240 910 240 l 1079 240 l 1079 -19 q 1007 -250 1079 -172 q 792 -328 935 -328 l 689 -328 l 689 -99 z "},"α":{"ha":986,"x_min":46,"x_max":950,"o":"m 344 -15 q 125 84 204 -15 q 46 360 46 183 q 125 635 46 536 q 344 735 204 735 q 513 685 443 735 q 614 542 582 635 l 614 721 l 865 721 l 865 292 q 878 238 865 253 q 928 224 892 224 l 950 224 l 950 0 l 828 0 q 677 48 733 0 q 614 181 621 96 q 513 36 582 88 q 344 -15 443 -15 m 457 207 q 567 249 525 207 q 608 360 608 292 q 567 472 608 429 q 457 514 525 514 q 347 472 389 514 q 306 360 306 429 q 347 249 306 290 q 457 207 389 207 z "},"β":{"ha":901,"x_min":83,"x_max":864,"o":"m 83 656 q 179 954 83 853 q 461 1056 275 1056 q 725 980 628 1056 q 822 774 822 904 q 674 556 822 618 q 816 463 768 531 q 864 288 864 394 q 787 69 864 150 q 579 -11 710 -11 q 429 28 489 -11 q 344 144 369 68 l 344 -250 l 83 -250 l 83 656 m 478 200 q 574 232 540 200 q 607 324 607 264 q 461 446 607 446 l 406 446 l 406 625 l 458 625 q 542 654 511 625 q 574 735 574 683 q 544 812 574 785 q 461 839 514 839 q 342 700 342 839 l 342 336 q 378 236 342 272 q 478 200 414 200 z "},"γ":{"ha":881,"x_min":31,"x_max":869,"o":"m 151 438 q 125 485 142 472 q 72 499 108 499 l 31 499 l 31 721 l 138 721 q 306 669 246 721 q 390 508 367 617 l 429 343 l 467 142 l 508 343 l 594 721 l 869 721 l 650 0 l 597 0 l 597 -250 l 336 -250 l 336 0 l 283 0 l 151 438 z "},"δ":{"ha":856,"x_min":36,"x_max":819,"o":"m 426 -17 q 221 22 310 -17 q 84 133 132 61 q 36 299 36 204 q 74 448 36 382 q 177 552 111 514 q 325 592 243 590 l 78 714 l 78 972 l 783 972 l 783 774 l 532 774 l 339 778 l 481 713 l 593 656 q 763 513 707 596 q 819 321 819 431 q 772 142 819 218 q 635 24 724 65 q 426 -17 546 -17 m 428 200 q 529 239 490 200 q 568 342 568 278 q 529 444 568 406 q 428 483 490 483 q 326 444 364 483 q 288 342 288 406 q 326 239 288 278 q 428 200 364 200 z "},"ε":{"ha":703,"x_min":38,"x_max":683,"o":"m 354 -15 q 121 40 204 -15 q 38 194 38 96 q 74 309 38 261 q 176 378 111 357 q 99 442 126 399 q 71 543 71 485 q 142 686 71 636 q 346 736 214 736 q 665 626 533 736 l 563 482 q 475 537 518 519 q 382 554 432 554 q 293 497 293 554 q 314 458 293 472 q 374 443 335 443 l 489 443 l 489 281 l 361 281 q 281 224 281 281 q 381 167 281 167 q 482 185 436 167 q 571 243 528 204 l 683 108 q 542 15 621 46 q 354 -15 463 -15 z "},"ζ":{"ha":726,"x_min":25,"x_max":739,"o":"m 479 -250 q 490 -183 490 -217 q 465 -108 490 -137 q 401 -62 439 -79 q 297 -26 363 -46 q 156 28 210 1 q 63 108 101 54 q 25 253 25 163 q 126 497 25 379 q 456 756 228 614 l 263 750 l 29 750 l 29 972 l 685 972 l 685 675 q 399 450 485 542 q 313 296 313 358 q 333 242 313 264 q 383 206 353 219 q 471 174 414 193 q 609 117 556 144 q 701 33 663 89 q 739 -112 739 -22 q 719 -250 739 -176 l 479 -250 z "},"η":{"ha":890,"x_min":83,"x_max":819,"o":"m 558 376 q 530 469 558 436 q 451 503 501 503 q 372 469 400 503 q 344 376 344 436 l 344 0 l 83 0 l 83 721 l 336 721 l 336 565 q 424 689 364 646 q 571 732 483 732 q 754 656 689 732 q 819 444 819 581 l 819 -250 l 558 -250 l 558 376 z "},"θ":{"ha":921,"x_min":50,"x_max":871,"o":"m 460 -17 q 244 40 336 -17 q 101 210 151 97 q 50 486 50 324 q 101 762 50 649 q 244 932 151 875 q 460 989 336 989 q 676 932 583 989 q 819 762 768 875 q 871 486 871 649 q 819 210 871 324 q 676 40 768 97 q 460 -17 583 -17 m 460 200 q 614 392 589 200 l 307 392 q 460 200 332 200 m 614 586 q 460 774 588 774 q 307 586 333 774 l 614 586 z "},"ι":{"ha":469,"x_min":71,"x_max":438,"o":"m 319 0 q 131 60 192 0 q 71 249 71 121 l 71 721 l 322 721 l 322 304 q 339 240 322 256 q 403 224 356 224 l 438 224 l 438 0 l 319 0 z "},"κ":{"ha":886,"x_min":83,"x_max":881,"o":"m 83 721 l 343 721 l 343 353 l 546 721 l 856 721 l 633 369 l 881 0 l 572 0 l 428 229 l 343 126 l 343 0 l 83 0 l 83 721 z "},"λ":{"ha":838,"x_min":11,"x_max":826,"o":"m 235 721 l 343 721 l 336 738 q 297 788 321 772 q 232 803 274 803 l 126 803 l 126 1017 l 247 1017 q 421 992 353 1017 q 533 910 489 967 q 604 757 576 854 l 826 0 l 554 0 l 465 378 l 424 578 l 379 376 l 285 0 l 11 0 l 235 721 z "},"μ":{"ha":901,"x_min":83,"x_max":819,"o":"m 83 721 l 344 721 l 344 344 q 372 250 344 283 q 451 217 400 217 q 531 250 503 217 q 558 344 558 283 l 558 721 l 819 721 l 819 0 l 589 0 l 589 128 q 538 22 574 56 q 451 -11 503 -11 q 313 119 344 -11 l 313 -250 l 83 -250 l 83 721 z "},"ν":{"ha":838,"x_min":11,"x_max":826,"o":"m 11 721 l 285 721 l 378 343 l 419 146 l 460 343 l 551 721 l 826 721 l 601 0 l 235 0 l 11 721 z "},"ξ":{"ha":725,"x_min":38,"x_max":765,"o":"m 524 -250 q 535 -183 535 -217 q 508 -105 535 -135 q 440 -58 481 -75 q 326 -21 399 -42 q 176 31 233 6 q 78 111 119 57 q 38 257 38 165 q 87 414 38 351 q 228 503 136 476 q 118 589 157 531 q 79 726 79 647 q 164 919 79 850 q 400 989 249 989 q 590 950 507 989 q 754 818 674 911 l 614 679 q 428 775 529 775 q 343 749 372 775 q 314 678 314 724 q 350 601 314 625 q 458 578 386 578 l 567 578 l 567 386 l 418 386 q 330 363 361 386 q 299 297 299 339 q 322 235 299 260 q 382 194 346 210 q 482 160 418 179 q 628 106 571 133 q 725 24 685 79 q 765 -121 765 -31 q 747 -250 765 -179 l 524 -250 z "},"ο":{"ha":894,"x_min":36,"x_max":857,"o":"m 447 -17 q 233 31 326 -17 q 88 165 140 79 q 36 360 36 250 q 88 556 36 469 q 233 690 140 642 q 447 738 326 738 q 661 690 568 738 q 806 556 754 642 q 857 360 857 469 q 806 165 857 250 q 661 31 754 79 q 447 -17 568 -17 m 447 207 q 557 249 515 207 q 599 360 599 292 q 557 472 599 429 q 447 514 515 514 q 338 472 379 514 q 296 360 296 429 q 338 249 296 292 q 447 207 379 207 z "},"π":{"ha":953,"x_min":35,"x_max":918,"o":"m 35 721 l 918 721 l 918 489 l 821 489 l 821 0 l 560 0 l 560 489 l 392 489 l 392 0 l 131 0 l 131 489 l 35 489 l 35 721 z "},"ρ":{"ha":921,"x_min":65,"x_max":885,"o":"m 65 297 q 174 622 65 506 q 474 738 282 738 q 690 689 597 738 q 834 551 783 640 q 885 340 885 461 q 849 154 885 235 q 745 29 813 74 q 588 -15 678 -15 q 428 29 494 -15 q 326 158 363 74 l 326 -250 l 65 -250 l 65 297 m 474 207 q 585 249 543 207 q 626 360 626 292 q 585 472 626 429 q 474 514 543 514 q 364 472 406 514 q 322 360 322 429 q 365 249 322 292 q 474 207 407 207 z "},"ς":{"ha":761,"x_min":38,"x_max":765,"o":"m 514 -250 q 526 -182 526 -211 q 503 -111 526 -139 q 444 -66 479 -83 q 346 -28 408 -49 q 188 39 250 4 q 82 147 126 74 q 38 343 38 219 q 86 553 38 464 q 222 690 135 642 q 422 738 308 738 q 616 693 528 738 q 765 563 704 649 l 594 431 q 444 514 540 514 q 338 471 378 514 q 297 357 297 428 q 325 259 297 297 q 394 199 353 221 q 507 153 436 178 q 637 96 588 122 q 720 18 686 69 q 754 -117 754 -33 q 735 -250 754 -178 l 514 -250 z "},"σ":{"ha":928,"x_min":36,"x_max":882,"o":"m 444 -17 q 144 80 253 -17 q 36 346 36 176 q 87 542 36 457 q 230 674 138 628 q 442 721 322 721 l 882 721 l 882 493 l 743 493 l 668 496 q 800 408 753 468 q 847 267 847 349 q 796 120 847 185 q 653 19 744 56 q 444 -17 561 -17 m 442 208 q 548 248 507 208 q 589 351 589 288 q 549 456 589 417 q 442 496 508 496 q 335 456 375 496 q 296 351 296 417 q 336 248 296 288 q 442 208 376 208 z "},"τ":{"ha":746,"x_min":26,"x_max":692,"o":"m 533 0 q 291 74 365 0 q 217 318 217 147 l 217 497 l 26 497 l 26 721 l 678 721 l 678 499 l 478 499 l 478 342 q 501 249 478 274 q 594 224 525 224 l 692 224 l 692 0 l 533 0 z "},"υ":{"ha":878,"x_min":71,"x_max":807,"o":"m 439 -12 q 167 81 263 -12 q 71 340 71 174 l 71 721 l 332 721 l 332 340 q 360 245 332 279 q 439 211 388 211 q 518 245 490 211 q 546 340 546 279 l 546 721 l 807 721 l 807 340 q 711 81 807 174 q 439 -12 615 -12 z "},"φ":{"ha":1133,"x_min":46,"x_max":1093,"o":"m 429 -7 q 145 93 244 -6 q 46 372 46 192 q 90 588 46 490 q 217 751 133 685 l 382 590 q 294 381 294 511 q 332 248 294 294 q 439 200 369 201 l 439 426 q 478 588 439 518 q 590 694 518 657 q 758 732 663 732 q 1003 635 914 732 q 1093 371 1093 539 q 989 92 1093 189 q 690 -7 885 -6 l 690 -250 l 429 -250 l 429 -7 m 681 199 q 802 244 760 196 q 844 386 844 293 q 822 485 844 451 q 758 519 800 519 q 701 492 721 519 q 681 415 681 465 l 681 199 z "},"χ":{"ha":840,"x_min":29,"x_max":838,"o":"m 758 -250 q 585 -210 644 -250 q 489 -67 525 -169 l 457 25 l 431 121 l 400 25 l 304 -250 l 29 -250 l 238 239 l 161 431 q 126 479 147 465 q 67 493 106 493 l 33 493 l 33 721 l 111 721 q 289 680 229 721 q 381 536 349 639 l 408 450 l 432 354 l 458 450 l 546 721 l 815 721 l 624 238 l 707 39 q 743 -11 724 1 q 803 -24 763 -24 l 838 -24 l 838 -250 l 758 -250 z "},"ψ":{"ha":1156,"x_min":71,"x_max":1085,"o":"m 447 -7 q 169 87 268 -6 q 71 350 71 179 l 71 721 l 324 721 l 324 350 q 358 234 324 269 q 458 200 392 199 l 458 851 l 699 851 l 699 200 q 798 234 764 199 q 832 350 832 269 l 832 721 l 1085 721 l 1085 350 q 987 87 1085 179 q 708 -7 889 -6 l 708 -250 l 447 -250 l 447 -7 z "},"ω":{"ha":1135,"x_min":49,"x_max":1086,"o":"m 315 -10 q 119 74 189 -10 q 49 315 49 157 q 206 757 49 550 l 399 626 q 322 476 344 540 q 300 344 300 413 q 372 211 300 211 q 426 242 407 211 q 444 331 444 274 l 444 494 l 690 494 l 690 331 q 709 242 690 272 q 763 211 728 211 q 835 344 835 211 q 813 477 835 413 q 736 626 790 542 l 929 757 q 1086 315 1086 550 q 1017 74 1086 157 q 819 -10 947 -10 q 647 53 710 -10 q 567 242 585 115 q 315 -10 533 -10 z "},"ί":{"ha":469,"x_min":71,"x_max":438,"o":"m 319 0 q 131 60 192 0 q 71 249 71 121 l 71 721 l 322 721 l 322 304 q 339 240 322 256 q 403 224 356 224 l 438 224 l 438 0 l 319 0 m 215 1086 l 415 982 l 268 801 l 100 801 l 215 1086 z "},"ϊ":{"ha":469,"x_min":-58,"x_max":451,"o":"m 319 0 q 131 60 192 0 q 71 249 71 121 l 71 721 l 322 721 l 322 304 q 339 240 322 256 q 403 224 356 224 l 438 224 l 438 0 l 319 0 m 338 800 q 254 833 286 800 q 222 915 222 867 q 255 998 222 965 q 338 1031 288 1031 q 419 997 388 1031 q 451 915 451 964 q 419 833 451 867 q 338 800 388 800 m 56 800 q -26 833 6 800 q -58 915 -58 867 q -26 998 -58 965 q 56 1031 6 1031 q 138 997 106 1031 q 171 915 171 964 q 138 833 171 867 q 56 800 106 800 z "},"ΐ":{"ha":469,"x_min":-112,"x_max":546,"o":"m 319 0 q 131 60 192 0 q 71 249 71 121 l 71 721 l 322 721 l 322 304 q 339 240 322 256 q 403 224 356 224 l 438 224 l 438 0 l 319 0 m 160 1100 l 349 1049 l 253 801 l 117 801 l 160 1100 m -6 803 q -83 833 -53 803 q -112 910 -112 864 q -82 987 -112 957 q -6 1017 -51 1017 q 70 986 40 1017 q 100 910 100 956 q 70 833 100 864 q -6 803 40 803 m 440 803 q 364 833 394 803 q 333 910 333 864 q 364 986 333 956 q 440 1017 394 1017 q 516 986 486 1017 q 546 910 546 956 q 516 833 546 864 q 440 803 486 803 z "},"ύ":{"ha":878,"x_min":71,"x_max":807,"o":"m 439 -12 q 167 81 263 -12 q 71 340 71 174 l 71 721 l 332 721 l 332 340 q 360 245 332 279 q 439 211 388 211 q 518 245 490 211 q 546 340 546 279 l 546 721 l 807 721 l 807 340 q 711 81 807 174 q 439 -12 615 -12 m 457 1086 l 657 982 l 510 801 l 342 801 l 457 1086 z "},"ϋ":{"ha":878,"x_min":71,"x_max":807,"o":"m 439 -12 q 167 81 263 -12 q 71 340 71 174 l 71 721 l 332 721 l 332 340 q 360 245 332 279 q 439 211 388 211 q 518 245 490 211 q 546 340 546 279 l 546 721 l 807 721 l 807 340 q 711 81 807 174 q 439 -12 615 -12 m 589 800 q 503 833 536 800 q 469 917 469 867 q 503 1000 469 967 q 589 1033 538 1033 q 675 999 642 1033 q 708 917 708 965 q 674 833 708 867 q 589 800 640 800 m 290 800 q 204 833 238 800 q 171 917 171 867 q 205 1000 171 967 q 290 1033 239 1033 q 376 999 343 1033 q 410 917 410 965 q 376 833 410 867 q 290 800 342 800 z "},"ΰ":{"ha":878,"x_min":71,"x_max":807,"o":"m 439 -12 q 167 81 263 -12 q 71 340 71 174 l 71 721 l 332 721 l 332 340 q 360 245 332 279 q 439 211 388 211 q 518 245 490 211 q 546 340 546 279 l 546 721 l 807 721 l 807 340 q 711 81 807 174 q 439 -12 615 -12 m 378 1100 l 572 1049 l 472 801 l 332 801 l 378 1100 m 193 803 q 115 833 146 803 q 83 910 83 864 q 115 987 83 957 q 193 1017 146 1017 q 272 986 240 1017 q 303 910 303 956 q 272 833 303 863 q 193 803 240 803 m 681 803 q 602 833 633 803 q 571 910 571 864 q 602 987 571 957 q 681 1017 633 1017 q 759 986 728 1017 q 790 910 790 956 q 759 833 790 863 q 681 803 728 803 z "},"ό":{"ha":894,"x_min":36,"x_max":857,"o":"m 447 -17 q 233 31 326 -17 q 88 165 140 79 q 36 360 36 250 q 88 556 36 469 q 233 690 140 642 q 447 738 326 738 q 661 690 568 738 q 806 556 754 642 q 857 360 857 469 q 806 165 857 250 q 661 31 754 79 q 447 -17 568 -17 m 447 207 q 557 249 515 207 q 599 360 599 292 q 557 472 599 429 q 447 514 515 514 q 338 472 379 514 q 296 360 296 429 q 338 249 296 292 q 447 207 379 207 m 465 1086 l 665 982 l 518 801 l 350 801 l 465 1086 z "},"ώ":{"ha":1135,"x_min":49,"x_max":1086,"o":"m 315 -10 q 119 74 189 -10 q 49 315 49 157 q 206 757 49 550 l 399 626 q 322 476 344 540 q 300 344 300 413 q 372 211 300 211 q 426 242 407 211 q 444 331 444 274 l 444 494 l 690 494 l 690 331 q 709 242 690 272 q 763 211 728 211 q 835 344 835 211 q 813 477 835 413 q 736 626 790 542 l 929 757 q 1086 315 1086 550 q 1017 74 1086 157 q 819 -10 947 -10 q 647 53 710 -10 q 567 242 585 115 q 315 -10 533 -10 m 585 1086 l 785 982 l 638 801 l 469 801 l 585 1086 z "},"ά":{"ha":986,"x_min":46,"x_max":950,"o":"m 344 -15 q 125 84 204 -15 q 46 360 46 183 q 125 635 46 536 q 344 735 204 735 q 513 685 443 735 q 614 542 582 635 l 614 721 l 865 721 l 865 292 q 878 238 865 253 q 928 224 892 224 l 950 224 l 950 0 l 828 0 q 677 48 733 0 q 614 181 621 96 q 513 36 582 88 q 344 -15 443 -15 m 457 207 q 567 249 525 207 q 608 360 608 292 q 567 472 608 429 q 457 514 525 514 q 347 472 389 514 q 306 360 306 429 q 347 249 306 290 q 457 207 389 207 m 478 1086 l 678 982 l 531 801 l 363 801 l 478 1086 z "},"έ":{"ha":703,"x_min":38,"x_max":683,"o":"m 354 -15 q 121 40 204 -15 q 38 194 38 96 q 74 309 38 261 q 176 378 111 357 q 99 442 126 399 q 71 543 71 485 q 142 686 71 636 q 346 736 214 736 q 665 626 533 736 l 563 482 q 475 537 518 519 q 382 554 432 554 q 293 497 293 554 q 314 458 293 472 q 374 443 335 443 l 489 443 l 489 281 l 361 281 q 281 224 281 281 q 381 167 281 167 q 482 185 436 167 q 571 243 528 204 l 683 108 q 542 15 621 46 q 354 -15 463 -15 m 364 1086 l 564 982 l 417 801 l 249 801 l 364 1086 z "},"ή":{"ha":890,"x_min":83,"x_max":819,"o":"m 558 376 q 530 469 558 436 q 451 503 501 503 q 372 469 400 503 q 344 376 344 436 l 344 0 l 83 0 l 83 721 l 336 721 l 336 565 q 424 689 364 646 q 571 732 483 732 q 754 656 689 732 q 819 444 819 581 l 819 -250 l 558 -250 l 558 376 m 467 1086 l 667 982 l 519 801 l 351 801 l 467 1086 z "},"ϗ":{"ha":932,"x_min":83,"x_max":899,"o":"m 544 -94 l 590 -94 q 647 -78 631 -94 q 664 -25 664 -62 l 664 4 q 569 35 604 13 q 499 107 533 58 l 419 221 l 343 126 l 343 0 l 83 0 l 83 721 l 343 721 l 343 353 l 546 721 l 856 721 l 626 358 l 703 257 q 747 214 728 224 q 810 204 767 204 l 899 204 l 899 -56 q 639 -315 899 -315 l 544 -315 l 544 -94 z "},"⁄":{"ha":342,"x_min":-246,"x_max":588,"o":"m 414 972 l 588 972 l -72 0 l -246 0 l 414 972 z "},"½":{"ha":1307,"x_min":25,"x_max":1269,"o":"m 36 615 l 175 615 l 175 718 l 181 828 l 158 797 l 124 754 l 25 838 l 143 972 l 329 972 l 329 615 l 457 615 l 457 486 l 36 486 l 36 615 m 907 972 l 1081 972 l 421 0 l 247 0 l 907 972 m 876 197 l 1075 278 q 1108 299 1097 288 q 1118 325 1118 310 q 1104 356 1118 344 q 1067 367 1090 367 q 988 303 1014 367 l 875 358 q 949 461 901 428 q 1072 494 997 494 q 1210 451 1160 494 q 1261 335 1261 408 q 1224 233 1261 275 q 1106 158 1188 192 l 1076 147 l 1011 125 l 1088 126 l 1269 126 l 1269 0 l 876 0 l 876 197 z "},"⅓":{"ha":1297,"x_min":25,"x_max":1268,"o":"m 36 615 l 175 615 l 175 718 l 181 828 l 158 797 l 124 754 l 25 838 l 143 972 l 329 972 l 329 615 l 457 615 l 457 486 l 36 486 l 36 615 m 907 972 l 1081 972 l 421 0 l 247 0 l 907 972 m 1061 -8 q 854 114 908 -8 l 963 171 q 1002 129 981 142 q 1056 117 1024 117 q 1117 160 1117 117 q 1103 188 1117 179 q 1058 196 1089 196 l 976 196 l 976 313 l 1035 336 l 1118 369 l 1010 365 l 879 365 l 879 486 l 1240 486 l 1240 326 l 1131 282 l 1113 275 l 1119 275 q 1227 238 1186 275 q 1268 144 1268 201 q 1210 34 1268 76 q 1061 -8 1153 -8 z "},"⅔":{"ha":1275,"x_min":40,"x_max":1246,"o":"m 42 683 l 240 764 q 273 785 263 774 q 283 811 283 796 q 269 842 283 831 q 232 853 256 853 q 153 789 179 853 l 40 844 q 115 947 67 914 q 238 981 163 981 q 376 938 325 981 q 426 821 426 894 q 390 719 426 761 q 271 644 353 678 l 242 633 l 176 611 l 253 613 l 435 613 l 435 486 l 42 486 l 42 683 m 885 972 l 1058 972 l 399 0 l 225 0 l 885 972 m 1039 -8 q 832 114 886 -8 l 940 171 q 980 129 958 142 q 1033 117 1001 117 q 1094 160 1094 117 q 1081 188 1094 179 q 1036 196 1067 196 l 954 196 l 954 313 l 1013 336 l 1096 369 l 988 365 l 857 365 l 857 486 l 1218 486 l 1218 326 l 1108 282 l 1090 275 l 1097 275 q 1205 238 1164 275 q 1246 144 1246 201 q 1188 34 1246 76 q 1039 -8 1131 -8 z "},"¼":{"ha":1344,"x_min":25,"x_max":1319,"o":"m 36 615 l 175 615 l 175 718 l 181 828 l 158 797 l 124 754 l 25 838 l 143 972 l 329 972 l 329 615 l 457 615 l 457 486 l 36 486 l 36 615 m 907 972 l 1081 972 l 421 0 l 247 0 l 907 972 m 1117 69 l 868 69 l 868 251 l 1058 486 l 1264 486 l 1264 199 l 1319 199 l 1319 69 l 1264 69 l 1264 0 l 1117 0 l 1117 69 m 1063 194 l 1121 194 l 1121 299 l 1121 344 l 1078 290 l 1044 251 l 992 193 l 1063 194 z "},"¾":{"ha":1314,"x_min":19,"x_max":1289,"o":"m 226 478 q 19 600 74 478 l 128 657 q 167 615 146 628 q 221 603 189 603 q 282 646 282 603 q 268 674 282 665 q 224 682 254 682 l 142 682 l 142 799 l 200 822 l 283 856 l 175 851 l 44 851 l 44 972 l 406 972 l 406 813 l 296 768 l 278 761 l 285 761 q 392 724 351 761 q 433 631 433 688 q 376 520 433 563 q 226 478 318 478 m 876 972 l 1050 972 l 390 0 l 217 0 l 876 972 m 1086 69 l 838 69 l 838 251 l 1028 486 l 1233 486 l 1233 199 l 1289 199 l 1289 69 l 1233 69 l 1233 0 l 1086 0 l 1086 69 m 1032 194 l 1090 194 l 1090 299 l 1090 344 l 1047 290 l 1014 251 l 961 193 l 1032 194 z "},"⅕":{"ha":1311,"x_min":25,"x_max":1282,"o":"m 36 615 l 175 615 l 175 718 l 181 828 l 158 797 l 124 754 l 25 838 l 143 972 l 329 972 l 329 615 l 457 615 l 457 486 l 36 486 l 36 615 m 907 972 l 1081 972 l 421 0 l 247 0 l 907 972 m 1075 -8 q 861 96 936 -8 l 967 169 q 1067 119 1004 119 q 1117 132 1099 119 q 1135 167 1135 144 q 1119 201 1135 189 q 1076 214 1104 214 q 1001 186 1035 214 l 883 221 l 901 486 l 1244 486 l 1244 363 l 1014 363 l 1007 268 q 1124 321 1044 321 q 1238 277 1194 321 q 1282 164 1282 233 q 1226 38 1282 83 q 1075 -8 1171 -8 z "},"⅖":{"ha":1289,"x_min":40,"x_max":1260,"o":"m 42 683 l 240 764 q 273 785 263 774 q 283 811 283 796 q 269 842 283 831 q 232 853 256 853 q 153 789 179 853 l 40 844 q 115 947 67 914 q 238 981 163 981 q 376 938 325 981 q 426 821 426 894 q 390 719 426 761 q 271 644 353 678 l 242 633 l 176 611 l 253 613 l 435 613 l 435 486 l 42 486 l 42 683 m 885 972 l 1058 972 l 399 0 l 225 0 l 885 972 m 1053 -8 q 839 96 914 -8 l 944 169 q 1044 119 982 119 q 1094 132 1076 119 q 1113 167 1113 144 q 1097 201 1113 189 q 1054 214 1082 214 q 979 186 1013 214 l 861 221 l 879 486 l 1222 486 l 1222 363 l 992 363 l 985 268 q 1101 321 1022 321 q 1216 277 1172 321 q 1260 164 1260 233 q 1204 38 1260 83 q 1053 -8 1149 -8 z "},"⅗":{"ha":1279,"x_min":19,"x_max":1251,"o":"m 226 478 q 19 600 74 478 l 128 657 q 167 615 146 628 q 221 603 189 603 q 282 646 282 603 q 268 674 282 665 q 224 682 254 682 l 142 682 l 142 799 l 200 822 l 283 856 l 175 851 l 44 851 l 44 972 l 406 972 l 406 813 l 296 768 l 278 761 l 285 761 q 392 724 351 761 q 433 631 433 688 q 376 520 433 563 q 226 478 318 478 m 876 972 l 1050 972 l 390 0 l 217 0 l 876 972 m 1044 -8 q 831 96 906 -8 l 936 169 q 1036 119 974 119 q 1086 132 1068 119 q 1104 167 1104 144 q 1089 201 1104 189 q 1046 214 1074 214 q 971 186 1004 214 l 853 221 l 871 486 l 1214 486 l 1214 363 l 983 363 l 976 268 q 1093 321 1014 321 q 1208 277 1164 321 q 1251 164 1251 233 q 1196 38 1251 83 q 1044 -8 1140 -8 z "},"⅘":{"ha":1326,"x_min":33,"x_max":1299,"o":"m 282 556 l 33 556 l 33 738 l 224 972 l 429 972 l 429 685 l 485 685 l 485 556 l 429 556 l 429 486 l 282 486 l 282 556 m 228 681 l 286 681 l 286 785 l 286 831 l 243 776 l 210 738 l 157 679 l 228 681 m 924 972 l 1097 972 l 438 0 l 264 0 l 924 972 m 1092 -8 q 878 96 953 -8 l 983 169 q 1083 119 1021 119 q 1133 132 1115 119 q 1151 167 1151 144 q 1136 201 1151 189 q 1093 214 1121 214 q 1018 186 1051 214 l 900 221 l 918 486 l 1261 486 l 1261 363 l 1031 363 l 1024 268 q 1140 321 1061 321 q 1255 277 1211 321 q 1299 164 1299 233 q 1243 38 1299 83 q 1092 -8 1188 -8 z "},"⅙":{"ha":1339,"x_min":25,"x_max":1307,"o":"m 36 615 l 175 615 l 175 718 l 181 828 l 158 797 l 124 754 l 25 838 l 143 972 l 329 972 l 329 615 l 457 615 l 457 486 l 36 486 l 36 615 m 907 972 l 1081 972 l 421 0 l 247 0 l 907 972 m 1097 -8 q 928 56 988 -8 q 869 243 869 121 q 929 429 869 364 q 1099 494 989 494 q 1285 429 1207 494 l 1208 339 q 1160 363 1186 354 q 1108 372 1133 372 q 1010 254 1017 372 q 1140 326 1044 326 q 1260 281 1214 326 q 1307 163 1307 235 q 1250 38 1307 85 q 1097 -8 1193 -8 m 1089 114 q 1137 128 1119 114 q 1154 169 1154 143 q 1137 210 1154 194 q 1089 225 1119 225 q 1041 210 1058 225 q 1024 169 1024 194 q 1041 128 1024 143 q 1089 114 1058 114 z "},"⅚":{"ha":1319,"x_min":26,"x_max":1289,"o":"m 240 478 q 26 582 101 478 l 132 656 q 232 606 169 606 q 282 618 264 606 q 300 653 300 631 q 285 688 300 675 q 242 700 269 700 q 167 672 200 700 l 49 707 l 67 972 l 410 972 l 410 849 l 179 849 l 172 754 q 289 807 210 807 q 403 763 360 807 q 447 650 447 719 q 392 524 447 569 q 240 478 336 478 m 889 972 l 1063 972 l 403 0 l 229 0 l 889 972 m 1079 -8 q 910 56 969 -8 q 851 243 851 121 q 911 429 851 364 q 1081 494 971 494 q 1267 429 1189 494 l 1190 339 q 1142 363 1168 354 q 1090 372 1115 372 q 992 254 999 372 q 1122 326 1026 326 q 1242 281 1196 326 q 1289 163 1289 235 q 1232 38 1289 85 q 1079 -8 1175 -8 m 1071 114 q 1119 128 1101 114 q 1136 169 1136 143 q 1119 210 1136 194 q 1071 225 1101 225 q 1023 210 1040 225 q 1006 169 1006 194 q 1023 128 1006 143 q 1071 114 1040 114 z "},"⅐":{"ha":1278,"x_min":25,"x_max":1244,"o":"m 36 615 l 175 615 l 175 718 l 181 828 l 158 797 l 124 754 l 25 838 l 143 972 l 329 972 l 329 615 l 457 615 l 457 486 l 36 486 l 36 615 m 907 972 l 1081 972 l 421 0 l 247 0 l 907 972 m 1060 274 l 1097 358 l 1028 358 l 858 358 l 858 486 l 1244 486 l 1244 331 l 1106 0 l 942 0 l 1060 274 z "},"⅛":{"ha":1326,"x_min":25,"x_max":1294,"o":"m 36 615 l 175 615 l 175 718 l 181 828 l 158 797 l 124 754 l 25 838 l 143 972 l 329 972 l 329 615 l 457 615 l 457 486 l 36 486 l 36 615 m 907 972 l 1081 972 l 421 0 l 247 0 l 907 972 m 1081 -8 q 922 28 979 -8 q 865 132 865 65 q 971 253 865 222 q 888 358 888 285 q 940 458 888 421 q 1081 494 992 494 q 1221 458 1168 494 q 1274 358 1274 421 q 1254 296 1274 321 q 1190 253 1235 271 q 1294 132 1294 222 q 1238 28 1294 65 q 1081 -8 1182 -8 m 1081 99 q 1127 113 1110 99 q 1144 150 1144 126 q 1127 188 1144 174 q 1081 201 1110 201 q 1035 188 1053 201 q 1018 150 1018 174 q 1035 113 1018 126 q 1081 99 1053 99 m 1081 301 q 1120 313 1106 301 q 1135 346 1135 325 q 1120 378 1135 365 q 1081 392 1106 392 q 1040 379 1056 392 q 1025 346 1025 367 q 1040 314 1025 326 q 1081 301 1056 301 z "},"⅜":{"ha":1294,"x_min":19,"x_max":1264,"o":"m 226 478 q 19 600 74 478 l 128 657 q 167 615 146 628 q 221 603 189 603 q 282 646 282 603 q 268 674 282 665 q 224 682 254 682 l 142 682 l 142 799 l 200 822 l 283 856 l 175 851 l 44 851 l 44 972 l 406 972 l 406 813 l 296 768 l 278 761 l 285 761 q 392 724 351 761 q 433 631 433 688 q 376 520 433 563 q 226 478 318 478 m 876 972 l 1050 972 l 390 0 l 217 0 l 876 972 m 1050 -8 q 892 28 949 -8 q 835 132 835 65 q 940 253 835 222 q 857 358 857 285 q 909 458 857 421 q 1050 494 961 494 q 1190 458 1138 494 q 1243 358 1243 421 q 1224 296 1243 321 q 1160 253 1204 271 q 1264 132 1264 222 q 1208 28 1264 65 q 1050 -8 1151 -8 m 1050 99 q 1097 113 1079 99 q 1114 150 1114 126 q 1097 188 1114 174 q 1050 201 1079 201 q 1005 188 1022 201 q 988 150 988 174 q 1005 113 988 126 q 1050 99 1022 99 m 1050 301 q 1090 313 1075 301 q 1104 346 1104 325 q 1090 378 1104 365 q 1050 392 1075 392 q 1010 379 1025 392 q 994 346 994 367 q 1010 314 994 326 q 1050 301 1025 301 z "},"⅝":{"ha":1308,"x_min":26,"x_max":1276,"o":"m 240 478 q 26 582 101 478 l 132 656 q 232 606 169 606 q 282 618 264 606 q 300 653 300 631 q 285 688 300 675 q 242 700 269 700 q 167 672 200 700 l 49 707 l 67 972 l 410 972 l 410 849 l 179 849 l 172 754 q 289 807 210 807 q 403 763 360 807 q 447 650 447 719 q 392 524 447 569 q 240 478 336 478 m 889 972 l 1063 972 l 403 0 l 229 0 l 889 972 m 1063 -8 q 904 28 961 -8 q 847 132 847 65 q 953 253 847 222 q 869 358 869 285 q 922 458 869 421 q 1063 494 974 494 q 1203 458 1150 494 q 1256 358 1256 421 q 1236 296 1256 321 q 1172 253 1217 271 q 1276 132 1276 222 q 1220 28 1276 65 q 1063 -8 1164 -8 m 1063 99 q 1109 113 1092 99 q 1126 150 1126 126 q 1109 188 1126 174 q 1063 201 1092 201 q 1017 188 1035 201 q 1000 150 1000 174 q 1017 113 1000 126 q 1063 99 1035 99 m 1063 301 q 1102 313 1088 301 q 1117 346 1117 325 q 1102 378 1117 365 q 1063 392 1088 392 q 1022 379 1038 392 q 1007 346 1007 367 q 1022 314 1007 326 q 1063 301 1038 301 z "},"⅞":{"ha":1275,"x_min":24,"x_max":1244,"o":"m 225 760 l 263 844 l 193 844 l 24 844 l 24 972 l 410 972 l 410 817 l 271 486 l 107 486 l 225 760 m 857 972 l 1031 972 l 371 0 l 197 0 l 857 972 m 1031 -8 q 872 28 929 -8 q 815 132 815 65 q 921 253 815 222 q 838 358 838 285 q 890 458 838 421 q 1031 494 942 494 q 1171 458 1118 494 q 1224 358 1224 421 q 1204 296 1224 321 q 1140 253 1185 271 q 1244 132 1244 222 q 1188 28 1244 65 q 1031 -8 1132 -8 m 1031 99 q 1077 113 1060 99 q 1094 150 1094 126 q 1077 188 1094 174 q 1031 201 1060 201 q 985 188 1003 201 q 968 150 968 174 q 985 113 968 126 q 1031 99 1003 99 m 1031 301 q 1070 313 1056 301 q 1085 346 1085 325 q 1070 378 1085 365 q 1031 392 1056 392 q 990 379 1006 392 q 975 346 975 367 q 990 314 975 326 q 1031 301 1006 301 z "}}}
